%TF.GenerationSoftware,KiCad,Pcbnew,(6.0.2)*%
%TF.CreationDate,2022-03-28T12:52:26+08:00*%
%TF.ProjectId,CH340-USB-C,43483334-302d-4555-9342-2d432e6b6963,rev?*%
%TF.SameCoordinates,Original*%
%TF.FileFunction,Soldermask,Top*%
%TF.FilePolarity,Negative*%
%FSLAX46Y46*%
G04 Gerber Fmt 4.6, Leading zero omitted, Abs format (unit mm)*
G04 Created by KiCad (PCBNEW (6.0.2)) date 2022-03-28 12:52:26*
%MOMM*%
%LPD*%
G01*
G04 APERTURE LIST*
G04 Aperture macros list*
%AMRoundRect*
0 Rectangle with rounded corners*
0 $1 Rounding radius*
0 $2 $3 $4 $5 $6 $7 $8 $9 X,Y pos of 4 corners*
0 Add a 4 corners polygon primitive as box body*
4,1,4,$2,$3,$4,$5,$6,$7,$8,$9,$2,$3,0*
0 Add four circle primitives for the rounded corners*
1,1,$1+$1,$2,$3*
1,1,$1+$1,$4,$5*
1,1,$1+$1,$6,$7*
1,1,$1+$1,$8,$9*
0 Add four rect primitives between the rounded corners*
20,1,$1+$1,$2,$3,$4,$5,0*
20,1,$1+$1,$4,$5,$6,$7,0*
20,1,$1+$1,$6,$7,$8,$9,0*
20,1,$1+$1,$8,$9,$2,$3,0*%
G04 Aperture macros list end*
%ADD10RoundRect,0.243750X0.456250X-0.243750X0.456250X0.243750X-0.456250X0.243750X-0.456250X-0.243750X0*%
%ADD11R,1.000000X0.800000*%
%ADD12C,0.900000*%
%ADD13R,0.700000X1.500000*%
%ADD14C,2.000000*%
%ADD15RoundRect,0.250000X-0.262500X-0.450000X0.262500X-0.450000X0.262500X0.450000X-0.262500X0.450000X0*%
%ADD16RoundRect,0.243750X-0.243750X-0.456250X0.243750X-0.456250X0.243750X0.456250X-0.243750X0.456250X0*%
%ADD17C,0.650000*%
%ADD18R,1.450000X0.600000*%
%ADD19R,1.450000X0.300000*%
%ADD20O,2.100000X1.000000*%
%ADD21O,1.600000X1.000000*%
%ADD22RoundRect,0.250000X-0.475000X0.250000X-0.475000X-0.250000X0.475000X-0.250000X0.475000X0.250000X0*%
%ADD23RoundRect,0.250000X-0.250000X-0.475000X0.250000X-0.475000X0.250000X0.475000X-0.250000X0.475000X0*%
%ADD24RoundRect,0.250000X0.262500X0.450000X-0.262500X0.450000X-0.262500X-0.450000X0.262500X-0.450000X0*%
%ADD25RoundRect,0.150000X0.150000X-0.825000X0.150000X0.825000X-0.150000X0.825000X-0.150000X-0.825000X0*%
%ADD26RoundRect,0.150000X0.150000X-0.587500X0.150000X0.587500X-0.150000X0.587500X-0.150000X-0.587500X0*%
%ADD27RoundRect,0.250000X0.475000X-0.250000X0.475000X0.250000X-0.475000X0.250000X-0.475000X-0.250000X0*%
%ADD28RoundRect,0.250000X0.250000X0.475000X-0.250000X0.475000X-0.250000X-0.475000X0.250000X-0.475000X0*%
G04 APERTURE END LIST*
D10*
%TO.C,F1*%
X75740000Y-104765000D03*
X75740000Y-102890000D03*
%TD*%
D11*
%TO.C,SW1*%
X88110000Y-103660000D03*
D12*
X93260000Y-104770000D03*
D11*
X88110000Y-105870000D03*
X95410000Y-103660000D03*
D12*
X90260000Y-104770000D03*
D11*
X95410000Y-105870000D03*
D13*
X89510000Y-103010000D03*
X92510000Y-103010000D03*
X94010000Y-103010000D03*
%TD*%
D14*
%TO.C,TP2*%
X97870000Y-98440000D03*
%TD*%
%TO.C,TP6*%
X94200000Y-94690000D03*
%TD*%
D15*
%TO.C,R3*%
X89385000Y-95112500D03*
X91210000Y-95112500D03*
%TD*%
D16*
%TO.C,D2*%
X85540000Y-98580000D03*
X87415000Y-98580000D03*
%TD*%
D17*
%TO.C,J1*%
X70110000Y-99430000D03*
X70110000Y-93650000D03*
D18*
X71555000Y-93290000D03*
X71555000Y-94090000D03*
D19*
X71555000Y-95290000D03*
X71555000Y-96290000D03*
X71555000Y-96790000D03*
X71555000Y-97790000D03*
D18*
X71555000Y-98990000D03*
X71555000Y-99790000D03*
X71555000Y-99790000D03*
X71555000Y-98990000D03*
D19*
X71555000Y-98290000D03*
X71555000Y-97290000D03*
X71555000Y-95790000D03*
X71555000Y-94790000D03*
D18*
X71555000Y-94090000D03*
X71555000Y-93290000D03*
D20*
X70640000Y-92220000D03*
X70640000Y-100860000D03*
D21*
X66460000Y-92220000D03*
X66460000Y-100860000D03*
%TD*%
D22*
%TO.C,C1*%
X77806666Y-102877500D03*
X77806666Y-104777500D03*
%TD*%
D23*
%TO.C,C4*%
X73670000Y-92220000D03*
X75570000Y-92220000D03*
%TD*%
D24*
%TO.C,R4*%
X71982500Y-102940000D03*
X70157500Y-102940000D03*
%TD*%
D14*
%TO.C,TP5*%
X94120000Y-98440000D03*
%TD*%
D25*
%TO.C,U2*%
X74715000Y-99605000D03*
X75985000Y-99605000D03*
X77255000Y-99605000D03*
X78525000Y-99605000D03*
X78525000Y-94655000D03*
X77255000Y-94655000D03*
X75985000Y-94655000D03*
X74715000Y-94655000D03*
%TD*%
D24*
%TO.C,R5*%
X71982500Y-104910000D03*
X70157500Y-104910000D03*
%TD*%
D26*
%TO.C,U1*%
X79673332Y-104765000D03*
X81573332Y-104765000D03*
X80623332Y-102890000D03*
%TD*%
D27*
%TO.C,C2*%
X83440000Y-104777500D03*
X83440000Y-102877500D03*
%TD*%
D14*
%TO.C,TP1*%
X97870000Y-94625000D03*
%TD*%
D15*
%TO.C,R1*%
X89385000Y-91645000D03*
X91210000Y-91645000D03*
%TD*%
D14*
%TO.C,TP4*%
X97870000Y-90810000D03*
%TD*%
%TO.C,TP3*%
X94200000Y-90840000D03*
%TD*%
D16*
%TO.C,D3*%
X85540000Y-95135000D03*
X87415000Y-95135000D03*
%TD*%
D15*
%TO.C,R2*%
X89385000Y-98580000D03*
X91210000Y-98580000D03*
%TD*%
D28*
%TO.C,C3*%
X79080000Y-92220000D03*
X77180000Y-92220000D03*
%TD*%
D16*
%TO.C,D1*%
X85540000Y-91690000D03*
X87415000Y-91690000D03*
%TD*%
M02*
