%TF.GenerationSoftware,KiCad,Pcbnew,(6.0.2)*%
%TF.CreationDate,2022-03-28T12:52:26+08:00*%
%TF.ProjectId,CH340-USB-C,43483334-302d-4555-9342-2d432e6b6963,rev?*%
%TF.SameCoordinates,Original*%
%TF.FileFunction,Copper,L2,Bot*%
%TF.FilePolarity,Positive*%
%FSLAX46Y46*%
G04 Gerber Fmt 4.6, Leading zero omitted, Abs format (unit mm)*
G04 Created by KiCad (PCBNEW (6.0.2)) date 2022-03-28 12:52:26*
%MOMM*%
%LPD*%
G01*
G04 APERTURE LIST*
G04 Aperture macros list*
%AMRoundRect*
0 Rectangle with rounded corners*
0 $1 Rounding radius*
0 $2 $3 $4 $5 $6 $7 $8 $9 X,Y pos of 4 corners*
0 Add a 4 corners polygon primitive as box body*
4,1,4,$2,$3,$4,$5,$6,$7,$8,$9,$2,$3,0*
0 Add four circle primitives for the rounded corners*
1,1,$1+$1,$2,$3*
1,1,$1+$1,$4,$5*
1,1,$1+$1,$6,$7*
1,1,$1+$1,$8,$9*
0 Add four rect primitives between the rounded corners*
20,1,$1+$1,$2,$3,$4,$5,0*
20,1,$1+$1,$4,$5,$6,$7,0*
20,1,$1+$1,$6,$7,$8,$9,0*
20,1,$1+$1,$8,$9,$2,$3,0*%
G04 Aperture macros list end*
%TA.AperFunction,ComponentPad*%
%ADD10O,2.100000X1.000000*%
%TD*%
%TA.AperFunction,ComponentPad*%
%ADD11O,1.600000X1.000000*%
%TD*%
%TA.AperFunction,SMDPad,CuDef*%
%ADD12R,3.170000X1.200000*%
%TD*%
%TA.AperFunction,SMDPad,CuDef*%
%ADD13RoundRect,0.300000X-1.285000X0.300000X-1.285000X-0.300000X1.285000X-0.300000X1.285000X0.300000X0*%
%TD*%
%TA.AperFunction,ViaPad*%
%ADD14C,0.800000*%
%TD*%
%TA.AperFunction,Conductor*%
%ADD15C,0.600000*%
%TD*%
%TA.AperFunction,Conductor*%
%ADD16C,0.250000*%
%TD*%
G04 APERTURE END LIST*
D10*
%TO.P,J1,S1,SHIELD*%
%TO.N,GND*%
X70640000Y-92220000D03*
X70640000Y-100860000D03*
D11*
X66460000Y-92220000D03*
X66460000Y-100860000D03*
%TD*%
D12*
%TO.P,J2,1,Pin_1*%
%TO.N,GND*%
X82286000Y-90600000D03*
D13*
%TO.P,J2,2,Pin_2*%
%TO.N,/~{RTS}*%
X82286000Y-93140000D03*
%TO.P,J2,3,Pin_3*%
%TO.N,/TXD*%
X82286000Y-95680000D03*
%TO.P,J2,4,Pin_4*%
%TO.N,/RXD*%
X82286000Y-98220000D03*
%TO.P,J2,5,Pin_5*%
%TO.N,VCC*%
X82286000Y-100760000D03*
%TD*%
D14*
%TO.N,GND*%
X66420000Y-94340000D03*
X66440000Y-98870000D03*
X74130000Y-90530000D03*
X88380000Y-93360000D03*
X77370000Y-90500000D03*
X81850000Y-102870000D03*
X88380000Y-96840000D03*
X77990000Y-97940000D03*
X74410000Y-101650000D03*
%TO.N,+3V3*%
X85910000Y-102470000D03*
X96900000Y-103500000D03*
%TO.N,VCC*%
X79860000Y-98910000D03*
%TO.N,/RXD*%
X85540000Y-99860500D03*
X92740000Y-97000000D03*
X75990000Y-96260000D03*
%TO.N,/TXD*%
X85120000Y-96870000D03*
X77260000Y-96280000D03*
X92230000Y-93710000D03*
%TO.N,Net-(F1-Pad1)*%
X73100000Y-99280000D03*
X73270000Y-94050000D03*
%TO.N,/~{RTS}*%
X78980000Y-101170000D03*
%TD*%
D15*
%TO.N,+3V3*%
X94600000Y-101200000D02*
X96900000Y-103500000D01*
X86410000Y-101200000D02*
X94600000Y-101200000D01*
X85910000Y-102470000D02*
X85910000Y-101700000D01*
X85910000Y-101700000D02*
X86410000Y-101200000D01*
%TO.N,VCC*%
X79860000Y-98910000D02*
X79860000Y-100500000D01*
X79860000Y-100500000D02*
X80140000Y-100780000D01*
X82266000Y-100780000D02*
X82286000Y-100760000D01*
X80140000Y-100780000D02*
X82266000Y-100780000D01*
D16*
%TO.N,/RXD*%
X80030000Y-97160000D02*
X81090000Y-98220000D01*
X76890000Y-97160000D02*
X80030000Y-97160000D01*
X90520000Y-99220000D02*
X83970000Y-99220000D01*
X84610500Y-99860500D02*
X85540000Y-99860500D01*
X82970000Y-98220000D02*
X83970000Y-99220000D01*
X83970000Y-99220000D02*
X84210000Y-99460000D01*
X75990000Y-96260000D02*
X76890000Y-97160000D01*
X84210000Y-99460000D02*
X84610500Y-99860500D01*
X82286000Y-98220000D02*
X82970000Y-98220000D01*
X92740000Y-97000000D02*
X90520000Y-99220000D01*
X81090000Y-98220000D02*
X82286000Y-98220000D01*
%TO.N,/TXD*%
X91855489Y-94084511D02*
X86905489Y-94084511D01*
X86905489Y-94084511D02*
X85310000Y-95680000D01*
X85120000Y-96440000D02*
X85120000Y-96870000D01*
X77260000Y-96280000D02*
X78750000Y-96280000D01*
X78750000Y-96280000D02*
X79350000Y-95680000D01*
X79350000Y-95680000D02*
X82286000Y-95680000D01*
X82286000Y-95680000D02*
X84360000Y-95680000D01*
X84360000Y-95680000D02*
X85120000Y-96440000D01*
X92230000Y-93710000D02*
X91855489Y-94084511D01*
X85310000Y-95680000D02*
X84360000Y-95680000D01*
D15*
%TO.N,Net-(F1-Pad1)*%
X73270000Y-94050000D02*
X73310000Y-94090000D01*
X73310000Y-99070000D02*
X73100000Y-99280000D01*
X73310000Y-94090000D02*
X73310000Y-99070000D01*
D16*
%TO.N,/~{RTS}*%
X78980000Y-101170000D02*
X77040000Y-99230000D01*
X75020000Y-98530000D02*
X75020000Y-94510000D01*
X75020000Y-94510000D02*
X76390000Y-93140000D01*
X76390000Y-93140000D02*
X82286000Y-93140000D01*
X77040000Y-99230000D02*
X75720000Y-99230000D01*
X75720000Y-99230000D02*
X75020000Y-98530000D01*
%TD*%
%TA.AperFunction,Conductor*%
%TO.N,GND*%
G36*
X99604121Y-88978002D02*
G01*
X99650614Y-89031658D01*
X99662000Y-89084000D01*
X99662000Y-107306000D01*
X99641998Y-107374121D01*
X99588342Y-107420614D01*
X99536000Y-107432000D01*
X63564000Y-107432000D01*
X63495879Y-107411998D01*
X63449386Y-107358342D01*
X63438000Y-107306000D01*
X63438000Y-104817064D01*
X89297707Y-104817064D01*
X89326825Y-105009599D01*
X89329028Y-105015585D01*
X89329029Y-105015591D01*
X89391860Y-105186360D01*
X89391862Y-105186365D01*
X89394063Y-105192346D01*
X89496674Y-105357840D01*
X89630466Y-105499322D01*
X89789975Y-105611011D01*
X89795838Y-105613548D01*
X89962825Y-105685810D01*
X89962829Y-105685811D01*
X89968684Y-105688345D01*
X89974931Y-105689650D01*
X89974934Y-105689651D01*
X90154557Y-105727176D01*
X90154562Y-105727177D01*
X90159293Y-105728165D01*
X90165685Y-105728500D01*
X90308663Y-105728500D01*
X90377951Y-105721462D01*
X90447378Y-105714410D01*
X90447379Y-105714410D01*
X90453727Y-105713765D01*
X90534843Y-105688345D01*
X90633451Y-105657444D01*
X90633456Y-105657442D01*
X90639541Y-105655535D01*
X90726475Y-105607346D01*
X90804271Y-105564223D01*
X90804274Y-105564221D01*
X90809850Y-105561130D01*
X90814691Y-105556981D01*
X90814695Y-105556978D01*
X90952855Y-105438560D01*
X90957698Y-105434409D01*
X91077046Y-105280547D01*
X91117779Y-105197768D01*
X91160200Y-105111556D01*
X91163018Y-105105829D01*
X91164628Y-105099649D01*
X91210492Y-104923575D01*
X91210492Y-104923572D01*
X91212102Y-104917393D01*
X91217360Y-104817064D01*
X92297707Y-104817064D01*
X92326825Y-105009599D01*
X92329028Y-105015585D01*
X92329029Y-105015591D01*
X92391860Y-105186360D01*
X92391862Y-105186365D01*
X92394063Y-105192346D01*
X92496674Y-105357840D01*
X92630466Y-105499322D01*
X92789975Y-105611011D01*
X92795838Y-105613548D01*
X92962825Y-105685810D01*
X92962829Y-105685811D01*
X92968684Y-105688345D01*
X92974931Y-105689650D01*
X92974934Y-105689651D01*
X93154557Y-105727176D01*
X93154562Y-105727177D01*
X93159293Y-105728165D01*
X93165685Y-105728500D01*
X93308663Y-105728500D01*
X93377951Y-105721462D01*
X93447378Y-105714410D01*
X93447379Y-105714410D01*
X93453727Y-105713765D01*
X93534843Y-105688345D01*
X93633451Y-105657444D01*
X93633456Y-105657442D01*
X93639541Y-105655535D01*
X93726475Y-105607346D01*
X93804271Y-105564223D01*
X93804274Y-105564221D01*
X93809850Y-105561130D01*
X93814691Y-105556981D01*
X93814695Y-105556978D01*
X93952855Y-105438560D01*
X93957698Y-105434409D01*
X94077046Y-105280547D01*
X94117779Y-105197768D01*
X94160200Y-105111556D01*
X94163018Y-105105829D01*
X94164628Y-105099649D01*
X94210492Y-104923575D01*
X94210492Y-104923572D01*
X94212102Y-104917393D01*
X94222293Y-104722936D01*
X94193175Y-104530401D01*
X94190972Y-104524415D01*
X94190971Y-104524409D01*
X94128140Y-104353640D01*
X94128138Y-104353635D01*
X94125937Y-104347654D01*
X94023326Y-104182160D01*
X93889534Y-104040678D01*
X93884202Y-104036944D01*
X93735259Y-103932654D01*
X93730025Y-103928989D01*
X93682013Y-103908212D01*
X93557175Y-103854190D01*
X93557171Y-103854189D01*
X93551316Y-103851655D01*
X93545069Y-103850350D01*
X93545066Y-103850349D01*
X93365443Y-103812824D01*
X93365438Y-103812823D01*
X93360707Y-103811835D01*
X93354315Y-103811500D01*
X93211337Y-103811500D01*
X93142049Y-103818538D01*
X93072622Y-103825590D01*
X93072621Y-103825590D01*
X93066273Y-103826235D01*
X93009939Y-103843889D01*
X92886549Y-103882556D01*
X92886544Y-103882558D01*
X92880459Y-103884465D01*
X92804713Y-103926452D01*
X92715729Y-103975777D01*
X92715726Y-103975779D01*
X92710150Y-103978870D01*
X92705309Y-103983019D01*
X92705305Y-103983022D01*
X92632627Y-104045315D01*
X92562302Y-104105591D01*
X92442954Y-104259453D01*
X92440138Y-104265176D01*
X92440136Y-104265179D01*
X92388476Y-104370166D01*
X92356982Y-104434171D01*
X92355373Y-104440349D01*
X92355372Y-104440351D01*
X92333477Y-104524409D01*
X92307898Y-104622607D01*
X92297707Y-104817064D01*
X91217360Y-104817064D01*
X91222293Y-104722936D01*
X91193175Y-104530401D01*
X91190972Y-104524415D01*
X91190971Y-104524409D01*
X91128140Y-104353640D01*
X91128138Y-104353635D01*
X91125937Y-104347654D01*
X91023326Y-104182160D01*
X90889534Y-104040678D01*
X90884202Y-104036944D01*
X90735259Y-103932654D01*
X90730025Y-103928989D01*
X90682013Y-103908212D01*
X90557175Y-103854190D01*
X90557171Y-103854189D01*
X90551316Y-103851655D01*
X90545069Y-103850350D01*
X90545066Y-103850349D01*
X90365443Y-103812824D01*
X90365438Y-103812823D01*
X90360707Y-103811835D01*
X90354315Y-103811500D01*
X90211337Y-103811500D01*
X90142049Y-103818538D01*
X90072622Y-103825590D01*
X90072621Y-103825590D01*
X90066273Y-103826235D01*
X90009939Y-103843889D01*
X89886549Y-103882556D01*
X89886544Y-103882558D01*
X89880459Y-103884465D01*
X89804713Y-103926452D01*
X89715729Y-103975777D01*
X89715726Y-103975779D01*
X89710150Y-103978870D01*
X89705309Y-103983019D01*
X89705305Y-103983022D01*
X89632627Y-104045315D01*
X89562302Y-104105591D01*
X89442954Y-104259453D01*
X89440138Y-104265176D01*
X89440136Y-104265179D01*
X89388476Y-104370166D01*
X89356982Y-104434171D01*
X89355373Y-104440349D01*
X89355372Y-104440351D01*
X89333477Y-104524409D01*
X89307898Y-104622607D01*
X89297707Y-104817064D01*
X63438000Y-104817064D01*
X63438000Y-101125768D01*
X65187425Y-101125768D01*
X65219138Y-101233521D01*
X65223731Y-101244889D01*
X65309607Y-101409154D01*
X65316321Y-101419415D01*
X65432468Y-101563873D01*
X65441046Y-101572632D01*
X65583039Y-101691778D01*
X65593159Y-101698708D01*
X65755585Y-101788002D01*
X65766858Y-101792834D01*
X65943538Y-101848880D01*
X65955532Y-101851430D01*
X66099761Y-101867607D01*
X66106785Y-101868000D01*
X66187885Y-101868000D01*
X66203124Y-101863525D01*
X66204329Y-101862135D01*
X66206000Y-101854452D01*
X66206000Y-101849885D01*
X66714000Y-101849885D01*
X66718475Y-101865124D01*
X66719865Y-101866329D01*
X66727548Y-101868000D01*
X66806657Y-101868000D01*
X66812805Y-101867699D01*
X66950603Y-101854188D01*
X66962638Y-101851805D01*
X67140076Y-101798233D01*
X67151416Y-101793559D01*
X67315077Y-101706540D01*
X67325294Y-101699751D01*
X67468933Y-101582603D01*
X67477637Y-101573959D01*
X67595784Y-101431144D01*
X67602644Y-101420973D01*
X67690804Y-101257924D01*
X67695556Y-101246619D01*
X67731250Y-101131308D01*
X67731331Y-101125768D01*
X69117425Y-101125768D01*
X69149138Y-101233521D01*
X69153731Y-101244889D01*
X69239607Y-101409154D01*
X69246321Y-101419415D01*
X69362468Y-101563873D01*
X69371046Y-101572632D01*
X69513039Y-101691778D01*
X69523159Y-101698708D01*
X69685585Y-101788002D01*
X69696858Y-101792834D01*
X69873538Y-101848880D01*
X69885532Y-101851430D01*
X70029761Y-101867607D01*
X70036785Y-101868000D01*
X70367885Y-101868000D01*
X70383124Y-101863525D01*
X70384329Y-101862135D01*
X70386000Y-101854452D01*
X70386000Y-101849885D01*
X70894000Y-101849885D01*
X70898475Y-101865124D01*
X70899865Y-101866329D01*
X70907548Y-101868000D01*
X71236657Y-101868000D01*
X71242805Y-101867699D01*
X71380603Y-101854188D01*
X71392638Y-101851805D01*
X71570076Y-101798233D01*
X71581416Y-101793559D01*
X71745077Y-101706540D01*
X71755294Y-101699751D01*
X71898933Y-101582603D01*
X71907637Y-101573959D01*
X72025784Y-101431144D01*
X72032644Y-101420973D01*
X72120804Y-101257924D01*
X72125556Y-101246619D01*
X72161250Y-101131308D01*
X72161456Y-101117205D01*
X72154701Y-101114000D01*
X70912115Y-101114000D01*
X70896876Y-101118475D01*
X70895671Y-101119865D01*
X70894000Y-101127548D01*
X70894000Y-101849885D01*
X70386000Y-101849885D01*
X70386000Y-101132115D01*
X70381525Y-101116876D01*
X70380135Y-101115671D01*
X70372452Y-101114000D01*
X69132076Y-101114000D01*
X69118545Y-101117973D01*
X69117425Y-101125768D01*
X67731331Y-101125768D01*
X67731456Y-101117205D01*
X67724701Y-101114000D01*
X66732115Y-101114000D01*
X66716876Y-101118475D01*
X66715671Y-101119865D01*
X66714000Y-101127548D01*
X66714000Y-101849885D01*
X66206000Y-101849885D01*
X66206000Y-101132115D01*
X66201525Y-101116876D01*
X66200135Y-101115671D01*
X66192452Y-101114000D01*
X65202076Y-101114000D01*
X65188545Y-101117973D01*
X65187425Y-101125768D01*
X63438000Y-101125768D01*
X63438000Y-100602795D01*
X65188544Y-100602795D01*
X65195299Y-100606000D01*
X66187885Y-100606000D01*
X66203124Y-100601525D01*
X66204329Y-100600135D01*
X66206000Y-100592452D01*
X66206000Y-100587885D01*
X66714000Y-100587885D01*
X66718475Y-100603124D01*
X66719865Y-100604329D01*
X66727548Y-100606000D01*
X67717924Y-100606000D01*
X67728839Y-100602795D01*
X69118544Y-100602795D01*
X69125299Y-100606000D01*
X72147924Y-100606000D01*
X72161455Y-100602027D01*
X72162575Y-100594232D01*
X72130862Y-100486479D01*
X72126269Y-100475111D01*
X72040393Y-100310846D01*
X72033679Y-100300585D01*
X71917532Y-100156127D01*
X71908954Y-100147368D01*
X71766961Y-100028222D01*
X71756841Y-100021292D01*
X71594415Y-99931998D01*
X71583142Y-99927166D01*
X71406462Y-99871120D01*
X71394468Y-99868570D01*
X71250239Y-99852393D01*
X71243215Y-99852000D01*
X71025023Y-99852000D01*
X70956902Y-99831998D01*
X70910409Y-99778342D01*
X70900305Y-99708068D01*
X70908034Y-99679208D01*
X70914995Y-99661803D01*
X70917530Y-99655466D01*
X70918644Y-99648738D01*
X70918645Y-99648734D01*
X70945993Y-99483539D01*
X70945993Y-99483536D01*
X70947108Y-99476802D01*
X70946565Y-99466425D01*
X70937987Y-99302766D01*
X70937630Y-99295953D01*
X70935240Y-99287274D01*
X70933236Y-99280000D01*
X72186496Y-99280000D01*
X72187186Y-99286565D01*
X72202935Y-99436405D01*
X72206458Y-99469928D01*
X72265473Y-99651556D01*
X72268776Y-99657278D01*
X72268777Y-99657279D01*
X72295294Y-99703207D01*
X72360960Y-99816944D01*
X72365378Y-99821851D01*
X72365379Y-99821852D01*
X72436350Y-99900673D01*
X72488747Y-99958866D01*
X72499019Y-99966329D01*
X72623408Y-100056703D01*
X72643248Y-100071118D01*
X72649276Y-100073802D01*
X72649278Y-100073803D01*
X72811681Y-100146109D01*
X72817712Y-100148794D01*
X72899238Y-100166123D01*
X72998056Y-100187128D01*
X72998061Y-100187128D01*
X73004513Y-100188500D01*
X73195487Y-100188500D01*
X73201939Y-100187128D01*
X73201944Y-100187128D01*
X73300762Y-100166123D01*
X73382288Y-100148794D01*
X73388319Y-100146109D01*
X73550722Y-100073803D01*
X73550724Y-100073802D01*
X73556752Y-100071118D01*
X73576593Y-100056703D01*
X73700981Y-99966329D01*
X73711253Y-99958866D01*
X73763650Y-99900673D01*
X73834621Y-99821852D01*
X73834622Y-99821851D01*
X73839040Y-99816944D01*
X73904706Y-99703207D01*
X73931223Y-99657279D01*
X73931224Y-99657278D01*
X73934527Y-99651556D01*
X73964652Y-99558840D01*
X73986014Y-99519168D01*
X73994080Y-99509064D01*
X73994080Y-99509063D01*
X73998476Y-99503557D01*
X74013073Y-99473362D01*
X74020602Y-99459945D01*
X74034948Y-99437684D01*
X74038765Y-99431762D01*
X74041173Y-99425145D01*
X74041176Y-99425140D01*
X74053592Y-99391027D01*
X74058553Y-99379284D01*
X74074353Y-99346600D01*
X74074356Y-99346591D01*
X74077421Y-99340251D01*
X74084966Y-99307572D01*
X74089334Y-99292825D01*
X74091301Y-99287421D01*
X74100803Y-99261315D01*
X74101685Y-99254330D01*
X74101687Y-99254323D01*
X74106237Y-99218308D01*
X74108472Y-99205757D01*
X74116640Y-99170378D01*
X74118225Y-99163515D01*
X74118350Y-99127941D01*
X74118367Y-99122928D01*
X74118396Y-99122058D01*
X74118500Y-99121231D01*
X74118500Y-99084590D01*
X74118688Y-99030745D01*
X74118845Y-98985657D01*
X74118845Y-98985652D01*
X74118857Y-98982130D01*
X74118589Y-98980930D01*
X74118500Y-98979292D01*
X74118500Y-94489943D01*
X74381780Y-94489943D01*
X74382526Y-94497835D01*
X74385941Y-94533961D01*
X74386500Y-94545819D01*
X74386500Y-98451233D01*
X74385973Y-98462416D01*
X74384298Y-98469909D01*
X74384547Y-98477835D01*
X74384547Y-98477836D01*
X74386438Y-98537986D01*
X74386500Y-98541945D01*
X74386500Y-98569856D01*
X74386997Y-98573790D01*
X74386997Y-98573791D01*
X74387005Y-98573856D01*
X74387938Y-98585693D01*
X74389327Y-98629889D01*
X74392031Y-98639195D01*
X74394978Y-98649339D01*
X74398987Y-98668700D01*
X74401526Y-98688797D01*
X74404445Y-98696168D01*
X74404445Y-98696170D01*
X74417804Y-98729912D01*
X74421649Y-98741142D01*
X74433982Y-98783593D01*
X74438015Y-98790412D01*
X74438017Y-98790417D01*
X74444293Y-98801028D01*
X74452988Y-98818776D01*
X74460448Y-98837617D01*
X74465110Y-98844033D01*
X74465110Y-98844034D01*
X74486436Y-98873387D01*
X74492952Y-98883307D01*
X74504434Y-98902721D01*
X74515458Y-98921362D01*
X74529779Y-98935683D01*
X74542619Y-98950716D01*
X74554528Y-98967107D01*
X74560634Y-98972158D01*
X74588605Y-98995298D01*
X74597384Y-99003288D01*
X75216343Y-99622247D01*
X75223887Y-99630537D01*
X75228000Y-99637018D01*
X75233777Y-99642443D01*
X75277667Y-99683658D01*
X75280509Y-99686413D01*
X75300230Y-99706134D01*
X75303425Y-99708612D01*
X75312447Y-99716318D01*
X75344679Y-99746586D01*
X75351628Y-99750406D01*
X75362432Y-99756346D01*
X75378956Y-99767199D01*
X75394959Y-99779613D01*
X75435543Y-99797176D01*
X75446173Y-99802383D01*
X75484940Y-99823695D01*
X75492617Y-99825666D01*
X75492622Y-99825668D01*
X75504558Y-99828732D01*
X75523266Y-99835137D01*
X75541855Y-99843181D01*
X75549680Y-99844420D01*
X75549682Y-99844421D01*
X75585519Y-99850097D01*
X75597140Y-99852504D01*
X75632289Y-99861528D01*
X75639970Y-99863500D01*
X75660231Y-99863500D01*
X75679940Y-99865051D01*
X75699943Y-99868219D01*
X75707835Y-99867473D01*
X75713062Y-99866979D01*
X75743954Y-99864059D01*
X75755811Y-99863500D01*
X76725406Y-99863500D01*
X76793527Y-99883502D01*
X76814501Y-99900405D01*
X78032878Y-101118782D01*
X78066904Y-101181094D01*
X78069093Y-101194707D01*
X78084006Y-101336594D01*
X78086458Y-101359928D01*
X78145473Y-101541556D01*
X78148776Y-101547278D01*
X78148777Y-101547279D01*
X78172576Y-101588500D01*
X78240960Y-101706944D01*
X78245378Y-101711851D01*
X78245379Y-101711852D01*
X78318948Y-101793559D01*
X78368747Y-101848866D01*
X78523248Y-101961118D01*
X78529276Y-101963802D01*
X78529278Y-101963803D01*
X78688948Y-102034892D01*
X78697712Y-102038794D01*
X78791112Y-102058647D01*
X78878056Y-102077128D01*
X78878061Y-102077128D01*
X78884513Y-102078500D01*
X79075487Y-102078500D01*
X79081939Y-102077128D01*
X79081944Y-102077128D01*
X79168887Y-102058647D01*
X79262288Y-102038794D01*
X79271052Y-102034892D01*
X79430722Y-101963803D01*
X79430724Y-101963802D01*
X79436752Y-101961118D01*
X79591253Y-101848866D01*
X79641052Y-101793559D01*
X79714621Y-101711852D01*
X79714622Y-101711851D01*
X79719040Y-101706944D01*
X79760396Y-101635313D01*
X79771007Y-101616935D01*
X79822390Y-101567942D01*
X79892103Y-101554506D01*
X79923210Y-101561531D01*
X79948685Y-101570803D01*
X79955670Y-101571685D01*
X79955677Y-101571687D01*
X79991692Y-101576237D01*
X80004243Y-101578472D01*
X80046485Y-101588225D01*
X80053529Y-101588250D01*
X80053533Y-101588250D01*
X80087072Y-101588367D01*
X80087942Y-101588396D01*
X80088769Y-101588500D01*
X80125258Y-101588500D01*
X80125697Y-101588501D01*
X80224343Y-101588845D01*
X80224348Y-101588845D01*
X80227870Y-101588857D01*
X80229070Y-101588589D01*
X80230708Y-101588500D01*
X80327793Y-101588500D01*
X80395914Y-101608502D01*
X80416886Y-101625402D01*
X80421292Y-101629808D01*
X80425687Y-101635313D01*
X80567443Y-101748476D01*
X80730748Y-101827421D01*
X80737609Y-101829005D01*
X80902286Y-101867024D01*
X80902289Y-101867024D01*
X80907485Y-101868224D01*
X80912272Y-101868500D01*
X83659728Y-101868500D01*
X83664515Y-101868224D01*
X83669711Y-101867024D01*
X83669714Y-101867024D01*
X83834391Y-101829005D01*
X83841252Y-101827421D01*
X84004557Y-101748476D01*
X84146313Y-101635313D01*
X84259476Y-101493557D01*
X84338421Y-101330252D01*
X84351688Y-101272785D01*
X84378024Y-101158714D01*
X84378024Y-101158711D01*
X84379224Y-101153515D01*
X84379500Y-101148728D01*
X84379500Y-100616846D01*
X84399502Y-100548725D01*
X84453158Y-100502232D01*
X84521290Y-100491839D01*
X84522792Y-100492029D01*
X84530470Y-100494000D01*
X84550724Y-100494000D01*
X84570434Y-100495551D01*
X84590443Y-100498720D01*
X84598335Y-100497974D01*
X84634461Y-100494559D01*
X84646319Y-100494000D01*
X84831800Y-100494000D01*
X84899921Y-100514002D01*
X84919147Y-100530343D01*
X84919420Y-100530040D01*
X84924332Y-100534463D01*
X84928747Y-100539366D01*
X84934086Y-100543245D01*
X85058870Y-100633906D01*
X85083248Y-100651618D01*
X85089276Y-100654302D01*
X85089278Y-100654303D01*
X85251681Y-100726609D01*
X85257712Y-100729294D01*
X85426250Y-100765118D01*
X85488723Y-100798847D01*
X85523045Y-100860996D01*
X85518317Y-100931835D01*
X85489148Y-100977460D01*
X85344842Y-101121766D01*
X85343905Y-101122694D01*
X85307123Y-101158714D01*
X85279493Y-101185771D01*
X85256002Y-101222221D01*
X85248583Y-101232546D01*
X85221524Y-101266443D01*
X85218459Y-101272784D01*
X85218458Y-101272785D01*
X85206928Y-101296637D01*
X85199399Y-101310054D01*
X85181235Y-101338238D01*
X85178827Y-101344855D01*
X85178824Y-101344860D01*
X85166408Y-101378973D01*
X85161447Y-101390716D01*
X85145646Y-101423403D01*
X85145644Y-101423408D01*
X85142579Y-101429749D01*
X85140996Y-101436607D01*
X85140995Y-101436609D01*
X85135035Y-101462426D01*
X85130668Y-101477169D01*
X85119197Y-101508685D01*
X85118314Y-101515675D01*
X85118312Y-101515683D01*
X85113762Y-101551701D01*
X85111526Y-101564253D01*
X85105849Y-101588845D01*
X85101776Y-101606485D01*
X85101751Y-101613531D01*
X85101751Y-101613534D01*
X85101634Y-101647056D01*
X85101605Y-101647938D01*
X85101500Y-101648769D01*
X85101500Y-101685419D01*
X85101499Y-101685859D01*
X85101451Y-101699751D01*
X85101143Y-101787870D01*
X85101411Y-101789070D01*
X85101500Y-101790707D01*
X85101500Y-102019603D01*
X85084620Y-102082602D01*
X85075473Y-102098444D01*
X85016458Y-102280072D01*
X84996496Y-102470000D01*
X85016458Y-102659928D01*
X85075473Y-102841556D01*
X85170960Y-103006944D01*
X85298747Y-103148866D01*
X85453248Y-103261118D01*
X85459276Y-103263802D01*
X85459278Y-103263803D01*
X85621681Y-103336109D01*
X85627712Y-103338794D01*
X85721113Y-103358647D01*
X85808056Y-103377128D01*
X85808061Y-103377128D01*
X85814513Y-103378500D01*
X86005487Y-103378500D01*
X86011939Y-103377128D01*
X86011944Y-103377128D01*
X86098887Y-103358647D01*
X86192288Y-103338794D01*
X86198319Y-103336109D01*
X86360722Y-103263803D01*
X86360724Y-103263802D01*
X86366752Y-103261118D01*
X86521253Y-103148866D01*
X86649040Y-103006944D01*
X86744527Y-102841556D01*
X86803542Y-102659928D01*
X86823504Y-102470000D01*
X86803542Y-102280072D01*
X86768894Y-102173436D01*
X86766867Y-102102468D01*
X86803529Y-102041671D01*
X86867241Y-102010345D01*
X86888727Y-102008500D01*
X94212918Y-102008500D01*
X94281039Y-102028502D01*
X94302013Y-102045405D01*
X96013908Y-103757300D01*
X96044646Y-103807458D01*
X96050538Y-103825590D01*
X96065473Y-103871556D01*
X96160960Y-104036944D01*
X96288747Y-104178866D01*
X96443248Y-104291118D01*
X96449276Y-104293802D01*
X96449278Y-104293803D01*
X96583675Y-104353640D01*
X96617712Y-104368794D01*
X96711113Y-104388647D01*
X96798056Y-104407128D01*
X96798061Y-104407128D01*
X96804513Y-104408500D01*
X96995487Y-104408500D01*
X97001939Y-104407128D01*
X97001944Y-104407128D01*
X97088887Y-104388647D01*
X97182288Y-104368794D01*
X97216325Y-104353640D01*
X97350722Y-104293803D01*
X97350724Y-104293802D01*
X97356752Y-104291118D01*
X97511253Y-104178866D01*
X97639040Y-104036944D01*
X97734527Y-103871556D01*
X97793542Y-103689928D01*
X97813504Y-103500000D01*
X97793542Y-103310072D01*
X97734527Y-103128444D01*
X97639040Y-102963056D01*
X97511253Y-102821134D01*
X97356752Y-102708882D01*
X97350724Y-102706198D01*
X97350722Y-102706197D01*
X97189756Y-102634531D01*
X97151910Y-102608519D01*
X96173202Y-101629810D01*
X95178235Y-100634843D01*
X95177307Y-100633906D01*
X95119157Y-100574525D01*
X95119156Y-100574524D01*
X95114229Y-100569493D01*
X95077779Y-100546002D01*
X95067454Y-100538583D01*
X95033557Y-100511524D01*
X95003362Y-100496927D01*
X94989945Y-100489398D01*
X94985416Y-100486479D01*
X94961762Y-100471235D01*
X94955145Y-100468827D01*
X94955140Y-100468824D01*
X94921027Y-100456408D01*
X94909284Y-100451447D01*
X94876597Y-100435646D01*
X94876592Y-100435644D01*
X94870251Y-100432579D01*
X94863393Y-100430996D01*
X94863391Y-100430995D01*
X94837574Y-100425035D01*
X94822831Y-100420668D01*
X94791315Y-100409197D01*
X94784325Y-100408314D01*
X94784317Y-100408312D01*
X94748299Y-100403762D01*
X94735747Y-100401526D01*
X94700386Y-100393362D01*
X94700383Y-100393362D01*
X94693515Y-100391776D01*
X94686469Y-100391751D01*
X94686466Y-100391751D01*
X94652944Y-100391634D01*
X94652062Y-100391605D01*
X94651231Y-100391500D01*
X94614581Y-100391500D01*
X94614141Y-100391499D01*
X94515657Y-100391155D01*
X94515652Y-100391155D01*
X94512130Y-100391143D01*
X94510930Y-100391411D01*
X94509293Y-100391500D01*
X86496144Y-100391500D01*
X86428023Y-100371498D01*
X86381530Y-100317842D01*
X86371426Y-100247568D01*
X86376309Y-100226572D01*
X86433542Y-100050428D01*
X86434491Y-100041405D01*
X86442381Y-99966329D01*
X86469394Y-99900673D01*
X86527616Y-99860043D01*
X86567691Y-99853500D01*
X90441233Y-99853500D01*
X90452416Y-99854027D01*
X90459909Y-99855702D01*
X90467835Y-99855453D01*
X90467836Y-99855453D01*
X90527986Y-99853562D01*
X90531945Y-99853500D01*
X90559856Y-99853500D01*
X90563791Y-99853003D01*
X90563856Y-99852995D01*
X90575693Y-99852062D01*
X90608661Y-99851026D01*
X90611970Y-99850922D01*
X90619889Y-99850673D01*
X90639343Y-99845021D01*
X90658700Y-99841013D01*
X90670930Y-99839468D01*
X90670931Y-99839468D01*
X90678797Y-99838474D01*
X90686168Y-99835555D01*
X90686170Y-99835555D01*
X90719912Y-99822196D01*
X90731142Y-99818351D01*
X90765983Y-99808229D01*
X90765984Y-99808229D01*
X90773593Y-99806018D01*
X90780412Y-99801985D01*
X90780417Y-99801983D01*
X90791028Y-99795707D01*
X90808776Y-99787012D01*
X90827617Y-99779552D01*
X90834223Y-99774753D01*
X90863387Y-99753564D01*
X90873307Y-99747048D01*
X90904535Y-99728580D01*
X90904538Y-99728578D01*
X90911362Y-99724542D01*
X90925683Y-99710221D01*
X90940717Y-99697380D01*
X90950694Y-99690131D01*
X90957107Y-99685472D01*
X90985298Y-99651395D01*
X90993288Y-99642616D01*
X92690500Y-97945405D01*
X92752812Y-97911379D01*
X92779595Y-97908500D01*
X92835487Y-97908500D01*
X92841939Y-97907128D01*
X92841944Y-97907128D01*
X92928888Y-97888647D01*
X93022288Y-97868794D01*
X93028319Y-97866109D01*
X93190722Y-97793803D01*
X93190724Y-97793802D01*
X93196752Y-97791118D01*
X93211919Y-97780099D01*
X93266881Y-97740166D01*
X93351253Y-97678866D01*
X93408759Y-97614999D01*
X93474621Y-97541852D01*
X93474622Y-97541851D01*
X93479040Y-97536944D01*
X93574527Y-97371556D01*
X93633542Y-97189928D01*
X93635939Y-97167127D01*
X93652814Y-97006565D01*
X93653504Y-97000000D01*
X93633542Y-96810072D01*
X93574527Y-96628444D01*
X93479040Y-96463056D01*
X93351253Y-96321134D01*
X93196752Y-96208882D01*
X93190724Y-96206198D01*
X93190722Y-96206197D01*
X93028319Y-96133891D01*
X93028318Y-96133891D01*
X93022288Y-96131206D01*
X92928887Y-96111353D01*
X92841944Y-96092872D01*
X92841939Y-96092872D01*
X92835487Y-96091500D01*
X92644513Y-96091500D01*
X92638061Y-96092872D01*
X92638056Y-96092872D01*
X92551113Y-96111353D01*
X92457712Y-96131206D01*
X92451682Y-96133891D01*
X92451681Y-96133891D01*
X92289278Y-96206197D01*
X92289276Y-96206198D01*
X92283248Y-96208882D01*
X92128747Y-96321134D01*
X92000960Y-96463056D01*
X91905473Y-96628444D01*
X91846458Y-96810072D01*
X91833795Y-96930559D01*
X91829093Y-96975293D01*
X91802080Y-97040950D01*
X91792878Y-97051218D01*
X90294500Y-98549595D01*
X90232188Y-98583621D01*
X90205405Y-98586500D01*
X84505500Y-98586500D01*
X84437379Y-98566498D01*
X84390886Y-98512842D01*
X84379500Y-98460500D01*
X84379500Y-97831272D01*
X84379224Y-97826485D01*
X84369071Y-97782505D01*
X84351918Y-97708210D01*
X84356084Y-97637336D01*
X84397906Y-97579964D01*
X84464106Y-97554311D01*
X84533666Y-97568521D01*
X84548750Y-97577930D01*
X84647599Y-97649748D01*
X84663248Y-97661118D01*
X84669276Y-97663802D01*
X84669278Y-97663803D01*
X84823328Y-97732390D01*
X84837712Y-97738794D01*
X84931112Y-97758647D01*
X85018056Y-97777128D01*
X85018061Y-97777128D01*
X85024513Y-97778500D01*
X85215487Y-97778500D01*
X85221939Y-97777128D01*
X85221944Y-97777128D01*
X85308888Y-97758647D01*
X85402288Y-97738794D01*
X85416672Y-97732390D01*
X85570722Y-97663803D01*
X85570724Y-97663802D01*
X85576752Y-97661118D01*
X85592402Y-97649748D01*
X85714516Y-97561026D01*
X85731253Y-97548866D01*
X85735675Y-97543955D01*
X85854621Y-97411852D01*
X85854622Y-97411851D01*
X85859040Y-97406944D01*
X85954527Y-97241556D01*
X86013542Y-97059928D01*
X86014458Y-97051218D01*
X86032814Y-96876565D01*
X86033504Y-96870000D01*
X86026546Y-96803794D01*
X86014232Y-96686635D01*
X86014232Y-96686633D01*
X86013542Y-96680072D01*
X85954527Y-96498444D01*
X85859040Y-96333056D01*
X85793974Y-96260793D01*
X85763257Y-96196785D01*
X85772022Y-96126332D01*
X85798516Y-96087388D01*
X87130988Y-94754916D01*
X87193300Y-94720890D01*
X87220083Y-94718011D01*
X91776722Y-94718011D01*
X91787905Y-94718538D01*
X91795398Y-94720213D01*
X91803324Y-94719964D01*
X91803325Y-94719964D01*
X91863475Y-94718073D01*
X91867434Y-94718011D01*
X91895345Y-94718011D01*
X91899280Y-94717514D01*
X91899345Y-94717506D01*
X91911182Y-94716573D01*
X91943440Y-94715559D01*
X91947459Y-94715433D01*
X91955378Y-94715184D01*
X91974832Y-94709532D01*
X91994189Y-94705524D01*
X92006419Y-94703979D01*
X92006420Y-94703979D01*
X92014286Y-94702985D01*
X92021657Y-94700066D01*
X92021659Y-94700066D01*
X92055401Y-94686707D01*
X92066631Y-94682862D01*
X92101472Y-94672740D01*
X92101473Y-94672740D01*
X92109082Y-94670529D01*
X92115901Y-94666496D01*
X92115906Y-94666494D01*
X92126517Y-94660218D01*
X92144265Y-94651523D01*
X92163106Y-94644063D01*
X92169518Y-94639404D01*
X92176471Y-94635582D01*
X92177827Y-94638049D01*
X92232032Y-94618706D01*
X92239231Y-94618500D01*
X92325487Y-94618500D01*
X92331939Y-94617128D01*
X92331944Y-94617128D01*
X92418888Y-94598647D01*
X92512288Y-94578794D01*
X92528051Y-94571776D01*
X92680722Y-94503803D01*
X92680724Y-94503802D01*
X92686752Y-94501118D01*
X92712978Y-94482064D01*
X92796259Y-94421556D01*
X92841253Y-94388866D01*
X92860806Y-94367150D01*
X92964621Y-94251852D01*
X92964622Y-94251851D01*
X92969040Y-94246944D01*
X93046491Y-94112795D01*
X93061223Y-94087279D01*
X93061224Y-94087278D01*
X93064527Y-94081556D01*
X93123542Y-93899928D01*
X93135722Y-93784047D01*
X93142814Y-93716565D01*
X93143504Y-93710000D01*
X93129837Y-93579969D01*
X93124232Y-93526635D01*
X93124232Y-93526633D01*
X93123542Y-93520072D01*
X93064527Y-93338444D01*
X92969040Y-93173056D01*
X92942576Y-93143664D01*
X92845675Y-93036045D01*
X92845674Y-93036044D01*
X92841253Y-93031134D01*
X92705677Y-92932632D01*
X92692094Y-92922763D01*
X92692093Y-92922762D01*
X92686752Y-92918882D01*
X92680724Y-92916198D01*
X92680722Y-92916197D01*
X92518319Y-92843891D01*
X92518318Y-92843891D01*
X92512288Y-92841206D01*
X92418888Y-92821353D01*
X92331944Y-92802872D01*
X92331939Y-92802872D01*
X92325487Y-92801500D01*
X92134513Y-92801500D01*
X92128061Y-92802872D01*
X92128056Y-92802872D01*
X92041112Y-92821353D01*
X91947712Y-92841206D01*
X91941682Y-92843891D01*
X91941681Y-92843891D01*
X91779278Y-92916197D01*
X91779276Y-92916198D01*
X91773248Y-92918882D01*
X91767907Y-92922762D01*
X91767906Y-92922763D01*
X91754323Y-92932632D01*
X91618747Y-93031134D01*
X91614326Y-93036044D01*
X91614325Y-93036045D01*
X91517425Y-93143664D01*
X91490960Y-93173056D01*
X91395473Y-93338444D01*
X91393432Y-93344726D01*
X91387186Y-93363948D01*
X91347112Y-93422554D01*
X91281715Y-93450190D01*
X91267353Y-93451011D01*
X86984256Y-93451011D01*
X86973073Y-93450484D01*
X86965580Y-93448809D01*
X86957654Y-93449058D01*
X86957653Y-93449058D01*
X86897503Y-93450949D01*
X86893544Y-93451011D01*
X86865633Y-93451011D01*
X86861699Y-93451508D01*
X86861698Y-93451508D01*
X86861633Y-93451516D01*
X86849796Y-93452449D01*
X86817979Y-93453449D01*
X86813518Y-93453589D01*
X86805599Y-93453838D01*
X86787943Y-93458967D01*
X86786147Y-93459489D01*
X86766795Y-93463497D01*
X86759724Y-93464391D01*
X86746692Y-93466037D01*
X86739323Y-93468954D01*
X86739321Y-93468955D01*
X86705586Y-93482311D01*
X86694358Y-93486156D01*
X86651896Y-93498493D01*
X86645074Y-93502527D01*
X86645068Y-93502530D01*
X86634457Y-93508805D01*
X86616707Y-93517501D01*
X86605245Y-93522039D01*
X86605240Y-93522042D01*
X86597872Y-93524959D01*
X86591457Y-93529620D01*
X86562114Y-93550938D01*
X86552196Y-93557454D01*
X86533508Y-93568506D01*
X86514126Y-93579969D01*
X86499802Y-93594293D01*
X86484770Y-93607132D01*
X86468382Y-93619039D01*
X86440201Y-93653104D01*
X86432211Y-93661884D01*
X85084500Y-95009595D01*
X85022188Y-95043621D01*
X84995405Y-95046500D01*
X84419776Y-95046500D01*
X84400065Y-95044949D01*
X84391681Y-95043621D01*
X84380057Y-95041780D01*
X84378489Y-95041928D01*
X84313714Y-95020677D01*
X84271691Y-94971710D01*
X84262544Y-94952789D01*
X84262543Y-94952788D01*
X84259476Y-94946443D01*
X84255082Y-94940939D01*
X84255079Y-94940934D01*
X84150706Y-94810190D01*
X84146313Y-94804687D01*
X84004557Y-94691524D01*
X83841252Y-94612579D01*
X83834391Y-94610995D01*
X83669714Y-94572976D01*
X83669711Y-94572976D01*
X83664515Y-94571776D01*
X83659728Y-94571500D01*
X80912272Y-94571500D01*
X80907485Y-94571776D01*
X80902289Y-94572976D01*
X80902286Y-94572976D01*
X80737609Y-94610995D01*
X80730748Y-94612579D01*
X80567443Y-94691524D01*
X80425687Y-94804687D01*
X80421294Y-94810190D01*
X80316921Y-94940934D01*
X80316918Y-94940939D01*
X80312524Y-94946443D01*
X80309456Y-94952789D01*
X80309455Y-94952791D01*
X80298553Y-94975341D01*
X80250896Y-95027965D01*
X80185114Y-95046500D01*
X79428767Y-95046500D01*
X79417584Y-95045973D01*
X79410091Y-95044298D01*
X79402165Y-95044547D01*
X79402164Y-95044547D01*
X79342014Y-95046438D01*
X79338055Y-95046500D01*
X79310144Y-95046500D01*
X79306210Y-95046997D01*
X79306209Y-95046997D01*
X79306144Y-95047005D01*
X79294307Y-95047938D01*
X79262490Y-95048938D01*
X79258029Y-95049078D01*
X79250110Y-95049327D01*
X79232454Y-95054456D01*
X79230658Y-95054978D01*
X79211306Y-95058986D01*
X79204235Y-95059880D01*
X79191203Y-95061526D01*
X79183834Y-95064443D01*
X79183832Y-95064444D01*
X79150097Y-95077800D01*
X79138869Y-95081645D01*
X79096407Y-95093982D01*
X79089584Y-95098017D01*
X79089582Y-95098018D01*
X79078972Y-95104293D01*
X79061224Y-95112988D01*
X79042383Y-95120448D01*
X79035967Y-95125110D01*
X79035966Y-95125110D01*
X79006613Y-95146436D01*
X78996693Y-95152952D01*
X78965465Y-95171420D01*
X78965462Y-95171422D01*
X78958638Y-95175458D01*
X78944317Y-95189779D01*
X78929284Y-95202619D01*
X78912893Y-95214528D01*
X78886516Y-95246413D01*
X78884712Y-95248593D01*
X78876722Y-95257374D01*
X78524499Y-95609596D01*
X78462187Y-95643621D01*
X78435404Y-95646500D01*
X77968200Y-95646500D01*
X77900079Y-95626498D01*
X77880853Y-95610157D01*
X77880580Y-95610460D01*
X77875668Y-95606037D01*
X77871253Y-95601134D01*
X77716752Y-95488882D01*
X77710724Y-95486198D01*
X77710722Y-95486197D01*
X77548319Y-95413891D01*
X77548318Y-95413891D01*
X77542288Y-95411206D01*
X77441741Y-95389834D01*
X77361944Y-95372872D01*
X77361939Y-95372872D01*
X77355487Y-95371500D01*
X77164513Y-95371500D01*
X77158061Y-95372872D01*
X77158056Y-95372872D01*
X77078259Y-95389834D01*
X76977712Y-95411206D01*
X76971682Y-95413891D01*
X76971681Y-95413891D01*
X76809278Y-95486197D01*
X76809276Y-95486198D01*
X76803248Y-95488882D01*
X76712822Y-95554580D01*
X76645958Y-95578437D01*
X76576806Y-95562357D01*
X76564703Y-95554579D01*
X76452094Y-95472763D01*
X76452093Y-95472762D01*
X76446752Y-95468882D01*
X76440724Y-95466198D01*
X76440722Y-95466197D01*
X76278319Y-95393891D01*
X76278318Y-95393891D01*
X76272288Y-95391206D01*
X76174301Y-95370378D01*
X76091944Y-95352872D01*
X76091939Y-95352872D01*
X76085487Y-95351500D01*
X75894513Y-95351500D01*
X75888058Y-95352872D01*
X75888049Y-95352873D01*
X75805698Y-95370378D01*
X75734907Y-95364977D01*
X75678274Y-95322161D01*
X75653780Y-95255523D01*
X75653500Y-95247132D01*
X75653500Y-94824594D01*
X75673502Y-94756473D01*
X75690405Y-94735499D01*
X76615499Y-93810405D01*
X76677811Y-93776379D01*
X76704594Y-93773500D01*
X80185114Y-93773500D01*
X80253235Y-93793502D01*
X80298553Y-93844659D01*
X80309455Y-93867209D01*
X80312524Y-93873557D01*
X80316918Y-93879061D01*
X80316921Y-93879066D01*
X80380446Y-93958641D01*
X80425687Y-94015313D01*
X80567443Y-94128476D01*
X80730748Y-94207421D01*
X80737609Y-94209005D01*
X80902286Y-94247024D01*
X80902289Y-94247024D01*
X80907485Y-94248224D01*
X80912272Y-94248500D01*
X83659728Y-94248500D01*
X83664515Y-94248224D01*
X83669711Y-94247024D01*
X83669714Y-94247024D01*
X83834391Y-94209005D01*
X83841252Y-94207421D01*
X84004557Y-94128476D01*
X84146313Y-94015313D01*
X84259476Y-93873557D01*
X84338421Y-93710252D01*
X84344313Y-93684729D01*
X84378024Y-93538714D01*
X84378024Y-93538711D01*
X84379224Y-93533515D01*
X84379500Y-93528728D01*
X84379500Y-92751272D01*
X84379224Y-92746485D01*
X84372506Y-92717384D01*
X84340005Y-92576609D01*
X84338421Y-92569748D01*
X84259476Y-92406443D01*
X84146313Y-92264687D01*
X84004557Y-92151524D01*
X83841252Y-92072579D01*
X83834391Y-92070995D01*
X83669714Y-92032976D01*
X83669711Y-92032976D01*
X83664515Y-92031776D01*
X83659728Y-92031500D01*
X80912272Y-92031500D01*
X80907485Y-92031776D01*
X80902289Y-92032976D01*
X80902286Y-92032976D01*
X80737609Y-92070995D01*
X80730748Y-92072579D01*
X80567443Y-92151524D01*
X80425687Y-92264687D01*
X80421294Y-92270190D01*
X80316921Y-92400934D01*
X80316918Y-92400939D01*
X80312524Y-92406443D01*
X80309457Y-92412788D01*
X80309455Y-92412791D01*
X80298553Y-92435341D01*
X80250896Y-92487965D01*
X80185114Y-92506500D01*
X76468768Y-92506500D01*
X76457585Y-92505973D01*
X76450092Y-92504298D01*
X76442166Y-92504547D01*
X76442165Y-92504547D01*
X76382002Y-92506438D01*
X76378044Y-92506500D01*
X76350144Y-92506500D01*
X76346154Y-92507004D01*
X76334320Y-92507936D01*
X76290111Y-92509326D01*
X76282495Y-92511539D01*
X76282493Y-92511539D01*
X76270652Y-92514979D01*
X76251293Y-92518988D01*
X76249983Y-92519154D01*
X76231203Y-92521526D01*
X76223837Y-92524442D01*
X76223831Y-92524444D01*
X76190098Y-92537800D01*
X76178868Y-92541645D01*
X76144017Y-92551770D01*
X76136407Y-92553981D01*
X76129584Y-92558016D01*
X76118966Y-92564295D01*
X76101213Y-92572992D01*
X76093568Y-92576019D01*
X76082383Y-92580448D01*
X76075968Y-92585109D01*
X76046612Y-92606437D01*
X76036695Y-92612951D01*
X75998638Y-92635458D01*
X75984317Y-92649779D01*
X75969284Y-92662619D01*
X75952893Y-92674528D01*
X75947842Y-92680634D01*
X75924702Y-92708605D01*
X75916712Y-92717384D01*
X74627747Y-94006348D01*
X74619461Y-94013888D01*
X74612982Y-94018000D01*
X74607557Y-94023777D01*
X74566357Y-94067651D01*
X74563602Y-94070493D01*
X74543865Y-94090230D01*
X74541385Y-94093427D01*
X74533682Y-94102447D01*
X74503414Y-94134679D01*
X74499595Y-94141625D01*
X74499593Y-94141628D01*
X74493652Y-94152434D01*
X74482801Y-94168953D01*
X74470386Y-94184959D01*
X74467241Y-94192228D01*
X74467238Y-94192232D01*
X74452826Y-94225537D01*
X74447609Y-94236187D01*
X74426305Y-94274940D01*
X74424334Y-94282615D01*
X74424334Y-94282616D01*
X74421267Y-94294562D01*
X74414863Y-94313266D01*
X74406819Y-94331855D01*
X74405580Y-94339678D01*
X74405577Y-94339688D01*
X74399901Y-94375524D01*
X74397495Y-94387144D01*
X74391346Y-94411094D01*
X74386500Y-94429970D01*
X74386500Y-94450224D01*
X74384949Y-94469934D01*
X74381780Y-94489943D01*
X74118500Y-94489943D01*
X74118500Y-94398508D01*
X74124667Y-94359572D01*
X74159638Y-94251943D01*
X74163542Y-94239928D01*
X74169320Y-94184959D01*
X74182814Y-94056565D01*
X74183504Y-94050000D01*
X74165826Y-93881803D01*
X74164232Y-93866635D01*
X74164232Y-93866633D01*
X74163542Y-93860072D01*
X74104527Y-93678444D01*
X74073757Y-93625148D01*
X74030911Y-93550938D01*
X74009040Y-93513056D01*
X73999563Y-93502530D01*
X73885675Y-93376045D01*
X73885674Y-93376044D01*
X73881253Y-93371134D01*
X73726752Y-93258882D01*
X73720724Y-93256198D01*
X73720722Y-93256197D01*
X73558319Y-93183891D01*
X73558318Y-93183891D01*
X73552288Y-93181206D01*
X73458888Y-93161353D01*
X73371944Y-93142872D01*
X73371939Y-93142872D01*
X73365487Y-93141500D01*
X73174513Y-93141500D01*
X73168061Y-93142872D01*
X73168056Y-93142872D01*
X73081112Y-93161353D01*
X72987712Y-93181206D01*
X72981682Y-93183891D01*
X72981681Y-93183891D01*
X72819278Y-93256197D01*
X72819276Y-93256198D01*
X72813248Y-93258882D01*
X72658747Y-93371134D01*
X72654326Y-93376044D01*
X72654325Y-93376045D01*
X72540438Y-93502530D01*
X72530960Y-93513056D01*
X72509089Y-93550938D01*
X72466244Y-93625148D01*
X72435473Y-93678444D01*
X72376458Y-93860072D01*
X72375768Y-93866633D01*
X72375768Y-93866635D01*
X72374174Y-93881803D01*
X72356496Y-94050000D01*
X72357186Y-94056565D01*
X72370681Y-94184959D01*
X72376458Y-94239928D01*
X72435473Y-94421556D01*
X72482959Y-94503803D01*
X72484619Y-94506679D01*
X72501500Y-94569679D01*
X72501500Y-98538604D01*
X72481498Y-98606725D01*
X72469136Y-98622914D01*
X72365379Y-98738148D01*
X72360960Y-98743056D01*
X72347213Y-98766867D01*
X72278081Y-98886607D01*
X72265473Y-98908444D01*
X72206458Y-99090072D01*
X72205768Y-99096633D01*
X72205768Y-99096635D01*
X72195094Y-99198197D01*
X72186496Y-99280000D01*
X70933236Y-99280000D01*
X70891352Y-99127941D01*
X70889539Y-99121359D01*
X70805078Y-98961164D01*
X70800673Y-98955951D01*
X70800670Y-98955947D01*
X70692594Y-98828057D01*
X70692590Y-98828053D01*
X70688187Y-98822843D01*
X70682762Y-98818695D01*
X70549743Y-98716994D01*
X70549739Y-98716991D01*
X70544322Y-98712850D01*
X70428542Y-98658861D01*
X70386369Y-98639195D01*
X70386366Y-98639194D01*
X70380192Y-98636315D01*
X70373544Y-98634829D01*
X70373541Y-98634828D01*
X70208494Y-98597936D01*
X70208495Y-98597936D01*
X70203457Y-98596810D01*
X70197912Y-98596500D01*
X70064756Y-98596500D01*
X69929963Y-98611143D01*
X69816467Y-98649339D01*
X69764796Y-98666728D01*
X69764794Y-98666729D01*
X69758325Y-98668906D01*
X69603095Y-98762177D01*
X69598138Y-98766865D01*
X69598135Y-98766867D01*
X69476473Y-98881918D01*
X69471515Y-98886607D01*
X69467683Y-98892245D01*
X69467680Y-98892249D01*
X69416740Y-98967205D01*
X69369723Y-99036388D01*
X69302470Y-99204534D01*
X69301356Y-99211262D01*
X69301355Y-99211266D01*
X69274007Y-99376461D01*
X69272892Y-99383198D01*
X69273249Y-99390015D01*
X69273249Y-99390019D01*
X69278151Y-99483539D01*
X69282370Y-99564047D01*
X69284181Y-99570620D01*
X69284181Y-99570623D01*
X69327690Y-99728580D01*
X69330461Y-99738641D01*
X69414922Y-99898836D01*
X69419327Y-99904049D01*
X69419330Y-99904053D01*
X69437694Y-99925783D01*
X69466386Y-99990724D01*
X69455413Y-100060868D01*
X69421092Y-100104754D01*
X69381067Y-100137397D01*
X69372363Y-100146041D01*
X69254216Y-100288856D01*
X69247356Y-100299027D01*
X69159196Y-100462076D01*
X69154444Y-100473381D01*
X69118750Y-100588692D01*
X69118544Y-100602795D01*
X67728839Y-100602795D01*
X67731455Y-100602027D01*
X67732575Y-100594232D01*
X67700862Y-100486479D01*
X67696269Y-100475111D01*
X67610393Y-100310846D01*
X67603679Y-100300585D01*
X67487532Y-100156127D01*
X67478954Y-100147368D01*
X67336961Y-100028222D01*
X67326841Y-100021292D01*
X67164415Y-99931998D01*
X67153142Y-99927166D01*
X66976462Y-99871120D01*
X66964468Y-99868570D01*
X66820239Y-99852393D01*
X66813215Y-99852000D01*
X66732115Y-99852000D01*
X66716876Y-99856475D01*
X66715671Y-99857865D01*
X66714000Y-99865548D01*
X66714000Y-100587885D01*
X66206000Y-100587885D01*
X66206000Y-99870115D01*
X66201525Y-99854876D01*
X66200135Y-99853671D01*
X66192452Y-99852000D01*
X66113343Y-99852000D01*
X66107195Y-99852301D01*
X65969397Y-99865812D01*
X65957362Y-99868195D01*
X65779924Y-99921767D01*
X65768584Y-99926441D01*
X65604923Y-100013460D01*
X65594706Y-100020249D01*
X65451067Y-100137397D01*
X65442363Y-100146041D01*
X65324216Y-100288856D01*
X65317356Y-100299027D01*
X65229196Y-100462076D01*
X65224444Y-100473381D01*
X65188750Y-100588692D01*
X65188544Y-100602795D01*
X63438000Y-100602795D01*
X63438000Y-92485768D01*
X65187425Y-92485768D01*
X65219138Y-92593521D01*
X65223731Y-92604889D01*
X65309607Y-92769154D01*
X65316321Y-92779415D01*
X65432468Y-92923873D01*
X65441046Y-92932632D01*
X65583039Y-93051778D01*
X65593159Y-93058708D01*
X65755585Y-93148002D01*
X65766858Y-93152834D01*
X65943538Y-93208880D01*
X65955532Y-93211430D01*
X66099761Y-93227607D01*
X66106785Y-93228000D01*
X66187885Y-93228000D01*
X66203124Y-93223525D01*
X66204329Y-93222135D01*
X66206000Y-93214452D01*
X66206000Y-93209885D01*
X66714000Y-93209885D01*
X66718475Y-93225124D01*
X66719865Y-93226329D01*
X66727548Y-93228000D01*
X66806657Y-93228000D01*
X66812805Y-93227699D01*
X66950603Y-93214188D01*
X66962638Y-93211805D01*
X67140076Y-93158233D01*
X67151416Y-93153559D01*
X67315077Y-93066540D01*
X67325294Y-93059751D01*
X67468933Y-92942603D01*
X67477637Y-92933959D01*
X67595784Y-92791144D01*
X67602644Y-92780973D01*
X67690804Y-92617924D01*
X67695556Y-92606619D01*
X67731250Y-92491308D01*
X67731331Y-92485768D01*
X69117425Y-92485768D01*
X69149138Y-92593521D01*
X69153731Y-92604889D01*
X69239607Y-92769154D01*
X69246321Y-92779415D01*
X69362468Y-92923873D01*
X69371045Y-92932632D01*
X69423110Y-92976319D01*
X69462436Y-93035428D01*
X69463563Y-93106416D01*
X69446331Y-93143663D01*
X69369723Y-93256388D01*
X69302470Y-93424534D01*
X69301356Y-93431262D01*
X69301355Y-93431266D01*
X69274366Y-93594293D01*
X69272892Y-93603198D01*
X69273249Y-93610015D01*
X69273249Y-93610019D01*
X69278833Y-93716565D01*
X69282370Y-93784047D01*
X69284181Y-93790620D01*
X69284181Y-93790623D01*
X69307025Y-93873557D01*
X69330461Y-93958641D01*
X69414922Y-94118836D01*
X69419327Y-94124049D01*
X69419330Y-94124053D01*
X69527406Y-94251943D01*
X69527410Y-94251947D01*
X69531813Y-94257157D01*
X69537237Y-94261304D01*
X69537238Y-94261305D01*
X69670257Y-94363006D01*
X69670261Y-94363009D01*
X69675678Y-94367150D01*
X69742926Y-94398508D01*
X69833631Y-94440805D01*
X69833634Y-94440806D01*
X69839808Y-94443685D01*
X69846456Y-94445171D01*
X69846459Y-94445172D01*
X69973816Y-94473639D01*
X70016543Y-94483190D01*
X70022088Y-94483500D01*
X70155244Y-94483500D01*
X70290037Y-94468857D01*
X70430588Y-94421556D01*
X70455204Y-94413272D01*
X70455206Y-94413271D01*
X70461675Y-94411094D01*
X70616905Y-94317823D01*
X70621862Y-94313135D01*
X70621865Y-94313133D01*
X70743527Y-94198082D01*
X70743529Y-94198080D01*
X70748485Y-94193393D01*
X70752317Y-94187755D01*
X70752320Y-94187751D01*
X70846442Y-94049255D01*
X70850277Y-94043612D01*
X70917530Y-93875466D01*
X70918644Y-93868738D01*
X70918645Y-93868734D01*
X70945993Y-93703539D01*
X70945993Y-93703536D01*
X70947108Y-93696802D01*
X70946476Y-93684729D01*
X70938302Y-93528782D01*
X70937630Y-93515953D01*
X70928967Y-93484500D01*
X70911904Y-93422554D01*
X70902237Y-93387459D01*
X70903431Y-93316474D01*
X70942814Y-93257401D01*
X71007881Y-93228999D01*
X71023713Y-93228000D01*
X71236657Y-93228000D01*
X71242805Y-93227699D01*
X71380603Y-93214188D01*
X71392638Y-93211805D01*
X71570076Y-93158233D01*
X71581416Y-93153559D01*
X71745077Y-93066540D01*
X71755294Y-93059751D01*
X71898933Y-92942603D01*
X71907637Y-92933959D01*
X72025784Y-92791144D01*
X72032644Y-92780973D01*
X72120804Y-92617924D01*
X72125556Y-92606619D01*
X72161250Y-92491308D01*
X72161456Y-92477205D01*
X72154701Y-92474000D01*
X69132076Y-92474000D01*
X69118545Y-92477973D01*
X69117425Y-92485768D01*
X67731331Y-92485768D01*
X67731456Y-92477205D01*
X67724701Y-92474000D01*
X66732115Y-92474000D01*
X66716876Y-92478475D01*
X66715671Y-92479865D01*
X66714000Y-92487548D01*
X66714000Y-93209885D01*
X66206000Y-93209885D01*
X66206000Y-92492115D01*
X66201525Y-92476876D01*
X66200135Y-92475671D01*
X66192452Y-92474000D01*
X65202076Y-92474000D01*
X65188545Y-92477973D01*
X65187425Y-92485768D01*
X63438000Y-92485768D01*
X63438000Y-91962795D01*
X65188544Y-91962795D01*
X65195299Y-91966000D01*
X66187885Y-91966000D01*
X66203124Y-91961525D01*
X66204329Y-91960135D01*
X66206000Y-91952452D01*
X66206000Y-91947885D01*
X66714000Y-91947885D01*
X66718475Y-91963124D01*
X66719865Y-91964329D01*
X66727548Y-91966000D01*
X67717924Y-91966000D01*
X67728839Y-91962795D01*
X69118544Y-91962795D01*
X69125299Y-91966000D01*
X70367885Y-91966000D01*
X70383124Y-91961525D01*
X70384329Y-91960135D01*
X70386000Y-91952452D01*
X70386000Y-91947885D01*
X70894000Y-91947885D01*
X70898475Y-91963124D01*
X70899865Y-91964329D01*
X70907548Y-91966000D01*
X72147924Y-91966000D01*
X72161455Y-91962027D01*
X72162575Y-91954232D01*
X72130862Y-91846479D01*
X72126269Y-91835111D01*
X72040393Y-91670846D01*
X72033679Y-91660585D01*
X71917532Y-91516127D01*
X71908954Y-91507368D01*
X71766961Y-91388222D01*
X71756841Y-91381292D01*
X71594415Y-91291998D01*
X71583142Y-91287166D01*
X71449174Y-91244669D01*
X80193001Y-91244669D01*
X80193371Y-91251490D01*
X80198895Y-91302352D01*
X80202521Y-91317604D01*
X80247676Y-91438054D01*
X80256214Y-91453649D01*
X80332715Y-91555724D01*
X80345276Y-91568285D01*
X80447351Y-91644786D01*
X80462946Y-91653324D01*
X80583394Y-91698478D01*
X80598649Y-91702105D01*
X80649514Y-91707631D01*
X80656328Y-91708000D01*
X82013885Y-91708000D01*
X82029124Y-91703525D01*
X82030329Y-91702135D01*
X82032000Y-91694452D01*
X82032000Y-91689884D01*
X82540000Y-91689884D01*
X82544475Y-91705123D01*
X82545865Y-91706328D01*
X82553548Y-91707999D01*
X83915669Y-91707999D01*
X83922490Y-91707629D01*
X83973352Y-91702105D01*
X83988604Y-91698479D01*
X84109054Y-91653324D01*
X84124649Y-91644786D01*
X84226724Y-91568285D01*
X84239285Y-91555724D01*
X84315786Y-91453649D01*
X84324324Y-91438054D01*
X84369478Y-91317606D01*
X84373105Y-91302351D01*
X84378631Y-91251486D01*
X84379000Y-91244672D01*
X84379000Y-90872115D01*
X84374525Y-90856876D01*
X84373135Y-90855671D01*
X84365452Y-90854000D01*
X82558115Y-90854000D01*
X82542876Y-90858475D01*
X82541671Y-90859865D01*
X82540000Y-90867548D01*
X82540000Y-91689884D01*
X82032000Y-91689884D01*
X82032000Y-90872115D01*
X82027525Y-90856876D01*
X82026135Y-90855671D01*
X82018452Y-90854000D01*
X80211116Y-90854000D01*
X80195877Y-90858475D01*
X80194672Y-90859865D01*
X80193001Y-90867548D01*
X80193001Y-91244669D01*
X71449174Y-91244669D01*
X71406462Y-91231120D01*
X71394468Y-91228570D01*
X71250239Y-91212393D01*
X71243215Y-91212000D01*
X70912115Y-91212000D01*
X70896876Y-91216475D01*
X70895671Y-91217865D01*
X70894000Y-91225548D01*
X70894000Y-91947885D01*
X70386000Y-91947885D01*
X70386000Y-91230115D01*
X70381525Y-91214876D01*
X70380135Y-91213671D01*
X70372452Y-91212000D01*
X70043343Y-91212000D01*
X70037195Y-91212301D01*
X69899397Y-91225812D01*
X69887362Y-91228195D01*
X69709924Y-91281767D01*
X69698584Y-91286441D01*
X69534923Y-91373460D01*
X69524706Y-91380249D01*
X69381067Y-91497397D01*
X69372363Y-91506041D01*
X69254216Y-91648856D01*
X69247356Y-91659027D01*
X69159196Y-91822076D01*
X69154444Y-91833381D01*
X69118750Y-91948692D01*
X69118544Y-91962795D01*
X67728839Y-91962795D01*
X67731455Y-91962027D01*
X67732575Y-91954232D01*
X67700862Y-91846479D01*
X67696269Y-91835111D01*
X67610393Y-91670846D01*
X67603679Y-91660585D01*
X67487532Y-91516127D01*
X67478954Y-91507368D01*
X67336961Y-91388222D01*
X67326841Y-91381292D01*
X67164415Y-91291998D01*
X67153142Y-91287166D01*
X66976462Y-91231120D01*
X66964468Y-91228570D01*
X66820239Y-91212393D01*
X66813215Y-91212000D01*
X66732115Y-91212000D01*
X66716876Y-91216475D01*
X66715671Y-91217865D01*
X66714000Y-91225548D01*
X66714000Y-91947885D01*
X66206000Y-91947885D01*
X66206000Y-91230115D01*
X66201525Y-91214876D01*
X66200135Y-91213671D01*
X66192452Y-91212000D01*
X66113343Y-91212000D01*
X66107195Y-91212301D01*
X65969397Y-91225812D01*
X65957362Y-91228195D01*
X65779924Y-91281767D01*
X65768584Y-91286441D01*
X65604923Y-91373460D01*
X65594706Y-91380249D01*
X65451067Y-91497397D01*
X65442363Y-91506041D01*
X65324216Y-91648856D01*
X65317356Y-91659027D01*
X65229196Y-91822076D01*
X65224444Y-91833381D01*
X65188750Y-91948692D01*
X65188544Y-91962795D01*
X63438000Y-91962795D01*
X63438000Y-90327885D01*
X80193000Y-90327885D01*
X80197475Y-90343124D01*
X80198865Y-90344329D01*
X80206548Y-90346000D01*
X82013885Y-90346000D01*
X82029124Y-90341525D01*
X82030329Y-90340135D01*
X82032000Y-90332452D01*
X82032000Y-90327885D01*
X82540000Y-90327885D01*
X82544475Y-90343124D01*
X82545865Y-90344329D01*
X82553548Y-90346000D01*
X84360884Y-90346000D01*
X84376123Y-90341525D01*
X84377328Y-90340135D01*
X84378999Y-90332452D01*
X84378999Y-89955331D01*
X84378629Y-89948510D01*
X84373105Y-89897648D01*
X84369479Y-89882396D01*
X84324324Y-89761946D01*
X84315786Y-89746351D01*
X84239285Y-89644276D01*
X84226724Y-89631715D01*
X84124649Y-89555214D01*
X84109054Y-89546676D01*
X83988606Y-89501522D01*
X83973351Y-89497895D01*
X83922486Y-89492369D01*
X83915672Y-89492000D01*
X82558115Y-89492000D01*
X82542876Y-89496475D01*
X82541671Y-89497865D01*
X82540000Y-89505548D01*
X82540000Y-90327885D01*
X82032000Y-90327885D01*
X82032000Y-89510116D01*
X82027525Y-89494877D01*
X82026135Y-89493672D01*
X82018452Y-89492001D01*
X80656331Y-89492001D01*
X80649510Y-89492371D01*
X80598648Y-89497895D01*
X80583396Y-89501521D01*
X80462946Y-89546676D01*
X80447351Y-89555214D01*
X80345276Y-89631715D01*
X80332715Y-89644276D01*
X80256214Y-89746351D01*
X80247676Y-89761946D01*
X80202522Y-89882394D01*
X80198895Y-89897649D01*
X80193369Y-89948514D01*
X80193000Y-89955328D01*
X80193000Y-90327885D01*
X63438000Y-90327885D01*
X63438000Y-89084000D01*
X63458002Y-89015879D01*
X63511658Y-88969386D01*
X63564000Y-88958000D01*
X99536000Y-88958000D01*
X99604121Y-88978002D01*
G37*
%TD.AperFunction*%
%TA.AperFunction,Conductor*%
G36*
X75805698Y-97149622D02*
G01*
X75888049Y-97167127D01*
X75888058Y-97167128D01*
X75894513Y-97168500D01*
X75950406Y-97168500D01*
X76018527Y-97188502D01*
X76039501Y-97205405D01*
X76386343Y-97552247D01*
X76393887Y-97560537D01*
X76398000Y-97567018D01*
X76403777Y-97572443D01*
X76447667Y-97613658D01*
X76450509Y-97616413D01*
X76470230Y-97636134D01*
X76473425Y-97638612D01*
X76482447Y-97646318D01*
X76514679Y-97676586D01*
X76521628Y-97680406D01*
X76532432Y-97686346D01*
X76548956Y-97697199D01*
X76564959Y-97709613D01*
X76605543Y-97727176D01*
X76616173Y-97732383D01*
X76654940Y-97753695D01*
X76662617Y-97755666D01*
X76662622Y-97755668D01*
X76674558Y-97758732D01*
X76693266Y-97765137D01*
X76711855Y-97773181D01*
X76719683Y-97774421D01*
X76719690Y-97774423D01*
X76755524Y-97780099D01*
X76767144Y-97782505D01*
X76800692Y-97791118D01*
X76809970Y-97793500D01*
X76830224Y-97793500D01*
X76849934Y-97795051D01*
X76869943Y-97798220D01*
X76877835Y-97797474D01*
X76913961Y-97794059D01*
X76925819Y-97793500D01*
X79546772Y-97793500D01*
X79614893Y-97813502D01*
X79661386Y-97867158D01*
X79671490Y-97937432D01*
X79641996Y-98002012D01*
X79585709Y-98039333D01*
X79584168Y-98039834D01*
X79577712Y-98041206D01*
X79571682Y-98043891D01*
X79571681Y-98043891D01*
X79409278Y-98116197D01*
X79409276Y-98116198D01*
X79403248Y-98118882D01*
X79248747Y-98231134D01*
X79120960Y-98373056D01*
X79025473Y-98538444D01*
X78966458Y-98720072D01*
X78965768Y-98726633D01*
X78965768Y-98726635D01*
X78948955Y-98886607D01*
X78946496Y-98910000D01*
X78966458Y-99099928D01*
X79025473Y-99281556D01*
X79034620Y-99297398D01*
X79051500Y-99360397D01*
X79051500Y-100041405D01*
X79031498Y-100109526D01*
X78977842Y-100156019D01*
X78907568Y-100166123D01*
X78842988Y-100136629D01*
X78836405Y-100130500D01*
X77543652Y-98837747D01*
X77536112Y-98829461D01*
X77532000Y-98822982D01*
X77482348Y-98776356D01*
X77479507Y-98773602D01*
X77459770Y-98753865D01*
X77456573Y-98751385D01*
X77447551Y-98743680D01*
X77438767Y-98735431D01*
X77415321Y-98713414D01*
X77408375Y-98709595D01*
X77408372Y-98709593D01*
X77397566Y-98703652D01*
X77381047Y-98692801D01*
X77375885Y-98688797D01*
X77365041Y-98680386D01*
X77357772Y-98677241D01*
X77357768Y-98677238D01*
X77324463Y-98662826D01*
X77313813Y-98657609D01*
X77275060Y-98636305D01*
X77255437Y-98631267D01*
X77236734Y-98624863D01*
X77225420Y-98619967D01*
X77225419Y-98619967D01*
X77218145Y-98616819D01*
X77210322Y-98615580D01*
X77210312Y-98615577D01*
X77174476Y-98609901D01*
X77162856Y-98607495D01*
X77127711Y-98598472D01*
X77127710Y-98598472D01*
X77120030Y-98596500D01*
X77099776Y-98596500D01*
X77080065Y-98594949D01*
X77067886Y-98593020D01*
X77060057Y-98591780D01*
X77052165Y-98592526D01*
X77016039Y-98595941D01*
X77004181Y-98596500D01*
X76034595Y-98596500D01*
X75966474Y-98576498D01*
X75945500Y-98559595D01*
X75690405Y-98304500D01*
X75656379Y-98242188D01*
X75653500Y-98215405D01*
X75653500Y-97272868D01*
X75673502Y-97204747D01*
X75727158Y-97158254D01*
X75797432Y-97148150D01*
X75805698Y-97149622D01*
G37*
%TD.AperFunction*%
%TD*%
M02*
