%TF.GenerationSoftware,KiCad,Pcbnew,(6.0.2)*%
%TF.CreationDate,2022-03-29T22:09:09+08:00*%
%TF.ProjectId,CH340-USB-C,43483334-302d-4555-9342-2d432e6b6963,rev?*%
%TF.SameCoordinates,Original*%
%TF.FileFunction,Legend,Top*%
%TF.FilePolarity,Positive*%
%FSLAX46Y46*%
G04 Gerber Fmt 4.6, Leading zero omitted, Abs format (unit mm)*
G04 Created by KiCad (PCBNEW (6.0.2)) date 2022-03-29 22:09:09*
%MOMM*%
%LPD*%
G01*
G04 APERTURE LIST*
%ADD10C,0.150000*%
%ADD11C,0.100000*%
%ADD12C,0.300000*%
%ADD13C,0.120000*%
G04 APERTURE END LIST*
D10*
X92780000Y-98510000D02*
X92010000Y-98580000D01*
X92070000Y-89120000D02*
X92070000Y-92850000D01*
X96040000Y-92850000D02*
X96040000Y-99550000D01*
X92900000Y-95040000D02*
X92030000Y-95200000D01*
X92070000Y-92850000D02*
X96040000Y-92850000D01*
D11*
X64314047Y-89663690D02*
X64314047Y-90068452D01*
X64337857Y-90116071D01*
X64361666Y-90139880D01*
X64409285Y-90163690D01*
X64504523Y-90163690D01*
X64552142Y-90139880D01*
X64575952Y-90116071D01*
X64599761Y-90068452D01*
X64599761Y-89663690D01*
X64814047Y-90139880D02*
X64885476Y-90163690D01*
X65004523Y-90163690D01*
X65052142Y-90139880D01*
X65075952Y-90116071D01*
X65099761Y-90068452D01*
X65099761Y-90020833D01*
X65075952Y-89973214D01*
X65052142Y-89949404D01*
X65004523Y-89925595D01*
X64909285Y-89901785D01*
X64861666Y-89877976D01*
X64837857Y-89854166D01*
X64814047Y-89806547D01*
X64814047Y-89758928D01*
X64837857Y-89711309D01*
X64861666Y-89687500D01*
X64909285Y-89663690D01*
X65028333Y-89663690D01*
X65099761Y-89687500D01*
X65480714Y-89901785D02*
X65552142Y-89925595D01*
X65575952Y-89949404D01*
X65599761Y-89997023D01*
X65599761Y-90068452D01*
X65575952Y-90116071D01*
X65552142Y-90139880D01*
X65504523Y-90163690D01*
X65314047Y-90163690D01*
X65314047Y-89663690D01*
X65480714Y-89663690D01*
X65528333Y-89687500D01*
X65552142Y-89711309D01*
X65575952Y-89758928D01*
X65575952Y-89806547D01*
X65552142Y-89854166D01*
X65528333Y-89877976D01*
X65480714Y-89901785D01*
X65314047Y-89901785D01*
X66123571Y-89663690D02*
X66409285Y-89663690D01*
X66266428Y-90163690D02*
X66266428Y-89663690D01*
X66671190Y-89925595D02*
X66671190Y-90163690D01*
X66504523Y-89663690D02*
X66671190Y-89925595D01*
X66837857Y-89663690D01*
X67004523Y-90163690D02*
X67004523Y-89663690D01*
X67195000Y-89663690D01*
X67242619Y-89687500D01*
X67266428Y-89711309D01*
X67290238Y-89758928D01*
X67290238Y-89830357D01*
X67266428Y-89877976D01*
X67242619Y-89901785D01*
X67195000Y-89925595D01*
X67004523Y-89925595D01*
X67504523Y-89901785D02*
X67671190Y-89901785D01*
X67742619Y-90163690D02*
X67504523Y-90163690D01*
X67504523Y-89663690D01*
X67742619Y-89663690D01*
X67956904Y-89973214D02*
X68337857Y-89973214D01*
X68861666Y-90116071D02*
X68837857Y-90139880D01*
X68766428Y-90163690D01*
X68718809Y-90163690D01*
X68647380Y-90139880D01*
X68599761Y-90092261D01*
X68575952Y-90044642D01*
X68552142Y-89949404D01*
X68552142Y-89877976D01*
X68575952Y-89782738D01*
X68599761Y-89735119D01*
X68647380Y-89687500D01*
X68718809Y-89663690D01*
X68766428Y-89663690D01*
X68837857Y-89687500D01*
X68861666Y-89711309D01*
X64314047Y-90468690D02*
X64314047Y-90873452D01*
X64337857Y-90921071D01*
X64361666Y-90944880D01*
X64409285Y-90968690D01*
X64504523Y-90968690D01*
X64552142Y-90944880D01*
X64575952Y-90921071D01*
X64599761Y-90873452D01*
X64599761Y-90468690D01*
X64814047Y-90825833D02*
X65052142Y-90825833D01*
X64766428Y-90968690D02*
X64933095Y-90468690D01*
X65099761Y-90968690D01*
X65552142Y-90968690D02*
X65385476Y-90730595D01*
X65266428Y-90968690D02*
X65266428Y-90468690D01*
X65456904Y-90468690D01*
X65504523Y-90492500D01*
X65528333Y-90516309D01*
X65552142Y-90563928D01*
X65552142Y-90635357D01*
X65528333Y-90682976D01*
X65504523Y-90706785D01*
X65456904Y-90730595D01*
X65266428Y-90730595D01*
X65695000Y-90468690D02*
X65980714Y-90468690D01*
X65837857Y-90968690D02*
X65837857Y-90468690D01*
X66456904Y-90468690D02*
X66623571Y-90968690D01*
X66790238Y-90468690D01*
X67218809Y-90968690D02*
X66933095Y-90968690D01*
X67075952Y-90968690D02*
X67075952Y-90468690D01*
X67028333Y-90540119D01*
X66980714Y-90587738D01*
X66933095Y-90611547D01*
X67433095Y-90921071D02*
X67456904Y-90944880D01*
X67433095Y-90968690D01*
X67409285Y-90944880D01*
X67433095Y-90921071D01*
X67433095Y-90968690D01*
X67766428Y-90468690D02*
X67814047Y-90468690D01*
X67861666Y-90492500D01*
X67885476Y-90516309D01*
X67909285Y-90563928D01*
X67933095Y-90659166D01*
X67933095Y-90778214D01*
X67909285Y-90873452D01*
X67885476Y-90921071D01*
X67861666Y-90944880D01*
X67814047Y-90968690D01*
X67766428Y-90968690D01*
X67718809Y-90944880D01*
X67695000Y-90921071D01*
X67671190Y-90873452D01*
X67647380Y-90778214D01*
X67647380Y-90659166D01*
X67671190Y-90563928D01*
X67695000Y-90516309D01*
X67718809Y-90492500D01*
X67766428Y-90468690D01*
D12*
X80657142Y-97968571D02*
X81514285Y-97968571D01*
X81085714Y-99468571D02*
X81085714Y-97968571D01*
X81871428Y-97968571D02*
X82871428Y-99468571D01*
X82871428Y-97968571D02*
X81871428Y-99468571D01*
X83442857Y-99468571D02*
X83442857Y-97968571D01*
X83800000Y-97968571D01*
X84014285Y-98040000D01*
X84157142Y-98182857D01*
X84228571Y-98325714D01*
X84300000Y-98611428D01*
X84300000Y-98825714D01*
X84228571Y-99111428D01*
X84157142Y-99254285D01*
X84014285Y-99397142D01*
X83800000Y-99468571D01*
X83442857Y-99468571D01*
X88280953Y-100216071D02*
X87566668Y-100216071D01*
X87495239Y-100930357D01*
X87566668Y-100858928D01*
X87709525Y-100787500D01*
X88066668Y-100787500D01*
X88209525Y-100858928D01*
X88280953Y-100930357D01*
X88352382Y-101073214D01*
X88352382Y-101430357D01*
X88280953Y-101573214D01*
X88209525Y-101644642D01*
X88066668Y-101716071D01*
X87709525Y-101716071D01*
X87566668Y-101644642D01*
X87495239Y-101573214D01*
X88780953Y-100216071D02*
X89280953Y-101716071D01*
X89780953Y-100216071D01*
X92892382Y-100226071D02*
X93820953Y-100226071D01*
X93320953Y-100797500D01*
X93535239Y-100797500D01*
X93678096Y-100868928D01*
X93749525Y-100940357D01*
X93820953Y-101083214D01*
X93820953Y-101440357D01*
X93749525Y-101583214D01*
X93678096Y-101654642D01*
X93535239Y-101726071D01*
X93106668Y-101726071D01*
X92963810Y-101654642D01*
X92892382Y-101583214D01*
X94463810Y-101583214D02*
X94535239Y-101654642D01*
X94463810Y-101726071D01*
X94392382Y-101654642D01*
X94463810Y-101583214D01*
X94463810Y-101726071D01*
X95035239Y-100226071D02*
X95963810Y-100226071D01*
X95463810Y-100797500D01*
X95678096Y-100797500D01*
X95820953Y-100868928D01*
X95892382Y-100940357D01*
X95963810Y-101083214D01*
X95963810Y-101440357D01*
X95892382Y-101583214D01*
X95820953Y-101654642D01*
X95678096Y-101726071D01*
X95249525Y-101726071D01*
X95106668Y-101654642D01*
X95035239Y-101583214D01*
X96392382Y-100226071D02*
X96892382Y-101726071D01*
X97392382Y-100226071D01*
X80228572Y-92358571D02*
X80228572Y-90858571D01*
X80800000Y-90858571D01*
X80942857Y-90930000D01*
X81014286Y-91001428D01*
X81085714Y-91144285D01*
X81085714Y-91358571D01*
X81014286Y-91501428D01*
X80942857Y-91572857D01*
X80800000Y-91644285D01*
X80228572Y-91644285D01*
X81585714Y-90858571D02*
X81942857Y-92358571D01*
X82228572Y-91287142D01*
X82514286Y-92358571D01*
X82871429Y-90858571D01*
X84300000Y-92358571D02*
X83800000Y-91644285D01*
X83442857Y-92358571D02*
X83442857Y-90858571D01*
X84014286Y-90858571D01*
X84157143Y-90930000D01*
X84228572Y-91001428D01*
X84300000Y-91144285D01*
X84300000Y-91358571D01*
X84228572Y-91501428D01*
X84157143Y-91572857D01*
X84014286Y-91644285D01*
X83442857Y-91644285D01*
X81371429Y-95913571D02*
X80871429Y-95199285D01*
X80514286Y-95913571D02*
X80514286Y-94413571D01*
X81085714Y-94413571D01*
X81228571Y-94485000D01*
X81300000Y-94556428D01*
X81371429Y-94699285D01*
X81371429Y-94913571D01*
X81300000Y-95056428D01*
X81228571Y-95127857D01*
X81085714Y-95199285D01*
X80514286Y-95199285D01*
X81871429Y-94413571D02*
X82871429Y-95913571D01*
X82871429Y-94413571D02*
X81871429Y-95913571D01*
X83442857Y-95913571D02*
X83442857Y-94413571D01*
X83800000Y-94413571D01*
X84014286Y-94485000D01*
X84157143Y-94627857D01*
X84228571Y-94770714D01*
X84300000Y-95056428D01*
X84300000Y-95270714D01*
X84228571Y-95556428D01*
X84157143Y-95699285D01*
X84014286Y-95842142D01*
X83800000Y-95913571D01*
X83442857Y-95913571D01*
D10*
%TO.C,F1*%
X75406666Y-106158571D02*
X75073333Y-106158571D01*
X75073333Y-106682380D02*
X75073333Y-105682380D01*
X75549523Y-105682380D01*
X76454285Y-106682380D02*
X75882857Y-106682380D01*
X76168571Y-106682380D02*
X76168571Y-105682380D01*
X76073333Y-105825238D01*
X75978095Y-105920476D01*
X75882857Y-105968095D01*
%TO.C,SW1*%
X96486666Y-106494761D02*
X96629523Y-106542380D01*
X96867619Y-106542380D01*
X96962857Y-106494761D01*
X97010476Y-106447142D01*
X97058095Y-106351904D01*
X97058095Y-106256666D01*
X97010476Y-106161428D01*
X96962857Y-106113809D01*
X96867619Y-106066190D01*
X96677142Y-106018571D01*
X96581904Y-105970952D01*
X96534285Y-105923333D01*
X96486666Y-105828095D01*
X96486666Y-105732857D01*
X96534285Y-105637619D01*
X96581904Y-105590000D01*
X96677142Y-105542380D01*
X96915238Y-105542380D01*
X97058095Y-105590000D01*
X97391428Y-105542380D02*
X97629523Y-106542380D01*
X97820000Y-105828095D01*
X98010476Y-106542380D01*
X98248571Y-105542380D01*
X99153333Y-106542380D02*
X98581904Y-106542380D01*
X98867619Y-106542380D02*
X98867619Y-105542380D01*
X98772380Y-105685238D01*
X98677142Y-105780476D01*
X98581904Y-105828095D01*
%TO.C,R3*%
X90130833Y-93914880D02*
X89797500Y-93438690D01*
X89559404Y-93914880D02*
X89559404Y-92914880D01*
X89940357Y-92914880D01*
X90035595Y-92962500D01*
X90083214Y-93010119D01*
X90130833Y-93105357D01*
X90130833Y-93248214D01*
X90083214Y-93343452D01*
X90035595Y-93391071D01*
X89940357Y-93438690D01*
X89559404Y-93438690D01*
X90464166Y-92914880D02*
X91083214Y-92914880D01*
X90749880Y-93295833D01*
X90892738Y-93295833D01*
X90987976Y-93343452D01*
X91035595Y-93391071D01*
X91083214Y-93486309D01*
X91083214Y-93724404D01*
X91035595Y-93819642D01*
X90987976Y-93867261D01*
X90892738Y-93914880D01*
X90607023Y-93914880D01*
X90511785Y-93867261D01*
X90464166Y-93819642D01*
%TO.C,D2*%
X85739404Y-97382380D02*
X85739404Y-96382380D01*
X85977500Y-96382380D01*
X86120357Y-96430000D01*
X86215595Y-96525238D01*
X86263214Y-96620476D01*
X86310833Y-96810952D01*
X86310833Y-96953809D01*
X86263214Y-97144285D01*
X86215595Y-97239523D01*
X86120357Y-97334761D01*
X85977500Y-97382380D01*
X85739404Y-97382380D01*
X86691785Y-96477619D02*
X86739404Y-96430000D01*
X86834642Y-96382380D01*
X87072738Y-96382380D01*
X87167976Y-96430000D01*
X87215595Y-96477619D01*
X87263214Y-96572857D01*
X87263214Y-96668095D01*
X87215595Y-96810952D01*
X86644166Y-97382380D01*
X87263214Y-97382380D01*
%TO.C,J1*%
X72536666Y-90062380D02*
X72536666Y-90776666D01*
X72489047Y-90919523D01*
X72393809Y-91014761D01*
X72250952Y-91062380D01*
X72155714Y-91062380D01*
X73536666Y-91062380D02*
X72965238Y-91062380D01*
X73250952Y-91062380D02*
X73250952Y-90062380D01*
X73155714Y-90205238D01*
X73060476Y-90300476D01*
X72965238Y-90348095D01*
%TO.C,C1*%
X77623333Y-106657142D02*
X77575714Y-106704761D01*
X77432857Y-106752380D01*
X77337619Y-106752380D01*
X77194761Y-106704761D01*
X77099523Y-106609523D01*
X77051904Y-106514285D01*
X77004285Y-106323809D01*
X77004285Y-106180952D01*
X77051904Y-105990476D01*
X77099523Y-105895238D01*
X77194761Y-105800000D01*
X77337619Y-105752380D01*
X77432857Y-105752380D01*
X77575714Y-105800000D01*
X77623333Y-105847619D01*
X78575714Y-106752380D02*
X78004285Y-106752380D01*
X78290000Y-106752380D02*
X78290000Y-105752380D01*
X78194761Y-105895238D01*
X78099523Y-105990476D01*
X78004285Y-106038095D01*
%TO.C,C4*%
X75383333Y-91017142D02*
X75335714Y-91064761D01*
X75192857Y-91112380D01*
X75097619Y-91112380D01*
X74954761Y-91064761D01*
X74859523Y-90969523D01*
X74811904Y-90874285D01*
X74764285Y-90683809D01*
X74764285Y-90540952D01*
X74811904Y-90350476D01*
X74859523Y-90255238D01*
X74954761Y-90160000D01*
X75097619Y-90112380D01*
X75192857Y-90112380D01*
X75335714Y-90160000D01*
X75383333Y-90207619D01*
X76240476Y-90445714D02*
X76240476Y-91112380D01*
X76002380Y-90064761D02*
X75764285Y-90779047D01*
X76383333Y-90779047D01*
%TO.C,R4*%
X68195833Y-103162380D02*
X67862500Y-102686190D01*
X67624404Y-103162380D02*
X67624404Y-102162380D01*
X68005357Y-102162380D01*
X68100595Y-102210000D01*
X68148214Y-102257619D01*
X68195833Y-102352857D01*
X68195833Y-102495714D01*
X68148214Y-102590952D01*
X68100595Y-102638571D01*
X68005357Y-102686190D01*
X67624404Y-102686190D01*
X69052976Y-102495714D02*
X69052976Y-103162380D01*
X68814880Y-102114761D02*
X68576785Y-102829047D01*
X69195833Y-102829047D01*
%TO.C,U2*%
X72792380Y-98031904D02*
X73601904Y-98031904D01*
X73697142Y-97984285D01*
X73744761Y-97936666D01*
X73792380Y-97841428D01*
X73792380Y-97650952D01*
X73744761Y-97555714D01*
X73697142Y-97508095D01*
X73601904Y-97460476D01*
X72792380Y-97460476D01*
X72887619Y-97031904D02*
X72840000Y-96984285D01*
X72792380Y-96889047D01*
X72792380Y-96650952D01*
X72840000Y-96555714D01*
X72887619Y-96508095D01*
X72982857Y-96460476D01*
X73078095Y-96460476D01*
X73220952Y-96508095D01*
X73792380Y-97079523D01*
X73792380Y-96460476D01*
%TO.C,R5*%
X68145833Y-105642380D02*
X67812500Y-105166190D01*
X67574404Y-105642380D02*
X67574404Y-104642380D01*
X67955357Y-104642380D01*
X68050595Y-104690000D01*
X68098214Y-104737619D01*
X68145833Y-104832857D01*
X68145833Y-104975714D01*
X68098214Y-105070952D01*
X68050595Y-105118571D01*
X67955357Y-105166190D01*
X67574404Y-105166190D01*
X69050595Y-104642380D02*
X68574404Y-104642380D01*
X68526785Y-105118571D01*
X68574404Y-105070952D01*
X68669642Y-105023333D01*
X68907738Y-105023333D01*
X69002976Y-105070952D01*
X69050595Y-105118571D01*
X69098214Y-105213809D01*
X69098214Y-105451904D01*
X69050595Y-105547142D01*
X69002976Y-105594761D01*
X68907738Y-105642380D01*
X68669642Y-105642380D01*
X68574404Y-105594761D01*
X68526785Y-105547142D01*
%TO.C,U1*%
X79828095Y-105902380D02*
X79828095Y-106711904D01*
X79875714Y-106807142D01*
X79923333Y-106854761D01*
X80018571Y-106902380D01*
X80209047Y-106902380D01*
X80304285Y-106854761D01*
X80351904Y-106807142D01*
X80399523Y-106711904D01*
X80399523Y-105902380D01*
X81399523Y-106902380D02*
X80828095Y-106902380D01*
X81113809Y-106902380D02*
X81113809Y-105902380D01*
X81018571Y-106045238D01*
X80923333Y-106140476D01*
X80828095Y-106188095D01*
%TO.C,C2*%
X83243333Y-106717142D02*
X83195714Y-106764761D01*
X83052857Y-106812380D01*
X82957619Y-106812380D01*
X82814761Y-106764761D01*
X82719523Y-106669523D01*
X82671904Y-106574285D01*
X82624285Y-106383809D01*
X82624285Y-106240952D01*
X82671904Y-106050476D01*
X82719523Y-105955238D01*
X82814761Y-105860000D01*
X82957619Y-105812380D01*
X83052857Y-105812380D01*
X83195714Y-105860000D01*
X83243333Y-105907619D01*
X83624285Y-105907619D02*
X83671904Y-105860000D01*
X83767142Y-105812380D01*
X84005238Y-105812380D01*
X84100476Y-105860000D01*
X84148095Y-105907619D01*
X84195714Y-106002857D01*
X84195714Y-106098095D01*
X84148095Y-106240952D01*
X83576666Y-106812380D01*
X84195714Y-106812380D01*
%TO.C,R1*%
X90130833Y-90447380D02*
X89797500Y-89971190D01*
X89559404Y-90447380D02*
X89559404Y-89447380D01*
X89940357Y-89447380D01*
X90035595Y-89495000D01*
X90083214Y-89542619D01*
X90130833Y-89637857D01*
X90130833Y-89780714D01*
X90083214Y-89875952D01*
X90035595Y-89923571D01*
X89940357Y-89971190D01*
X89559404Y-89971190D01*
X91083214Y-90447380D02*
X90511785Y-90447380D01*
X90797500Y-90447380D02*
X90797500Y-89447380D01*
X90702261Y-89590238D01*
X90607023Y-89685476D01*
X90511785Y-89733095D01*
%TO.C,D3*%
X85739404Y-93937380D02*
X85739404Y-92937380D01*
X85977500Y-92937380D01*
X86120357Y-92985000D01*
X86215595Y-93080238D01*
X86263214Y-93175476D01*
X86310833Y-93365952D01*
X86310833Y-93508809D01*
X86263214Y-93699285D01*
X86215595Y-93794523D01*
X86120357Y-93889761D01*
X85977500Y-93937380D01*
X85739404Y-93937380D01*
X86644166Y-92937380D02*
X87263214Y-92937380D01*
X86929880Y-93318333D01*
X87072738Y-93318333D01*
X87167976Y-93365952D01*
X87215595Y-93413571D01*
X87263214Y-93508809D01*
X87263214Y-93746904D01*
X87215595Y-93842142D01*
X87167976Y-93889761D01*
X87072738Y-93937380D01*
X86787023Y-93937380D01*
X86691785Y-93889761D01*
X86644166Y-93842142D01*
%TO.C,R2*%
X90130833Y-97382380D02*
X89797500Y-96906190D01*
X89559404Y-97382380D02*
X89559404Y-96382380D01*
X89940357Y-96382380D01*
X90035595Y-96430000D01*
X90083214Y-96477619D01*
X90130833Y-96572857D01*
X90130833Y-96715714D01*
X90083214Y-96810952D01*
X90035595Y-96858571D01*
X89940357Y-96906190D01*
X89559404Y-96906190D01*
X90511785Y-96477619D02*
X90559404Y-96430000D01*
X90654642Y-96382380D01*
X90892738Y-96382380D01*
X90987976Y-96430000D01*
X91035595Y-96477619D01*
X91083214Y-96572857D01*
X91083214Y-96668095D01*
X91035595Y-96810952D01*
X90464166Y-97382380D01*
X91083214Y-97382380D01*
%TO.C,C3*%
X78733333Y-91027142D02*
X78685714Y-91074761D01*
X78542857Y-91122380D01*
X78447619Y-91122380D01*
X78304761Y-91074761D01*
X78209523Y-90979523D01*
X78161904Y-90884285D01*
X78114285Y-90693809D01*
X78114285Y-90550952D01*
X78161904Y-90360476D01*
X78209523Y-90265238D01*
X78304761Y-90170000D01*
X78447619Y-90122380D01*
X78542857Y-90122380D01*
X78685714Y-90170000D01*
X78733333Y-90217619D01*
X79066666Y-90122380D02*
X79685714Y-90122380D01*
X79352380Y-90503333D01*
X79495238Y-90503333D01*
X79590476Y-90550952D01*
X79638095Y-90598571D01*
X79685714Y-90693809D01*
X79685714Y-90931904D01*
X79638095Y-91027142D01*
X79590476Y-91074761D01*
X79495238Y-91122380D01*
X79209523Y-91122380D01*
X79114285Y-91074761D01*
X79066666Y-91027142D01*
%TO.C,D1*%
X85739404Y-90492380D02*
X85739404Y-89492380D01*
X85977500Y-89492380D01*
X86120357Y-89540000D01*
X86215595Y-89635238D01*
X86263214Y-89730476D01*
X86310833Y-89920952D01*
X86310833Y-90063809D01*
X86263214Y-90254285D01*
X86215595Y-90349523D01*
X86120357Y-90444761D01*
X85977500Y-90492380D01*
X85739404Y-90492380D01*
X87263214Y-90492380D02*
X86691785Y-90492380D01*
X86977500Y-90492380D02*
X86977500Y-89492380D01*
X86882261Y-89635238D01*
X86787023Y-89730476D01*
X86691785Y-89778095D01*
D13*
%TO.C,F1*%
X76450000Y-104086078D02*
X76450000Y-103568922D01*
X75030000Y-104086078D02*
X75030000Y-103568922D01*
%TO.C,SW1*%
X91660000Y-107460000D02*
X91460000Y-107670000D01*
X90360000Y-106170000D02*
X90360000Y-107460000D01*
X90560000Y-107670000D02*
X91460000Y-107670000D01*
X88910000Y-106170000D02*
X94610000Y-106170000D01*
X88310000Y-104370000D02*
X88310000Y-105160000D01*
X95210000Y-105160000D02*
X95210000Y-104370000D01*
X90360000Y-107460000D02*
X90560000Y-107670000D01*
X90160000Y-103320000D02*
X91860000Y-103320000D01*
X91660000Y-107460000D02*
X91660000Y-106170000D01*
X93160000Y-103320000D02*
X93360000Y-103320000D01*
%TO.C,TP2*%
X99070000Y-98440000D02*
G75*
G03*
X99070000Y-98440000I-1200000J0D01*
G01*
%TO.C,TP6*%
X95400000Y-94690000D02*
G75*
G03*
X95400000Y-94690000I-1200000J0D01*
G01*
%TO.C,R3*%
X90070436Y-94377500D02*
X90524564Y-94377500D01*
X90070436Y-95847500D02*
X90524564Y-95847500D01*
%TO.C,D2*%
X84792500Y-97620000D02*
X84792500Y-99540000D01*
X84792500Y-99540000D02*
X87477500Y-99540000D01*
X87477500Y-97620000D02*
X84792500Y-97620000D01*
%TO.C,J1*%
X63610000Y-91840000D02*
X63610000Y-101240000D01*
X69410000Y-91840000D02*
X67410000Y-91840000D01*
X65510000Y-101240000D02*
X63610000Y-101240000D01*
X69410000Y-101240000D02*
X67410000Y-101240000D01*
X65510000Y-91840000D02*
X63610000Y-91840000D01*
%TO.C,C1*%
X78541666Y-103566248D02*
X78541666Y-104088752D01*
X77071666Y-103566248D02*
X77071666Y-104088752D01*
%TO.C,C4*%
X74358748Y-91485000D02*
X74881252Y-91485000D01*
X74358748Y-92955000D02*
X74881252Y-92955000D01*
%TO.C,R4*%
X71297064Y-102205000D02*
X70842936Y-102205000D01*
X71297064Y-103675000D02*
X70842936Y-103675000D01*
%TO.C,TP5*%
X95320000Y-98440000D02*
G75*
G03*
X95320000Y-98440000I-1200000J0D01*
G01*
%TO.C,U2*%
X74060000Y-97130000D02*
X74060000Y-95180000D01*
X79180000Y-97130000D02*
X79180000Y-99080000D01*
X74060000Y-97130000D02*
X74060000Y-100580000D01*
X79180000Y-97130000D02*
X79180000Y-95180000D01*
%TO.C,R5*%
X71297064Y-104175000D02*
X70842936Y-104175000D01*
X71297064Y-105645000D02*
X70842936Y-105645000D01*
%TO.C,U1*%
X82183332Y-103827500D02*
X82183332Y-103177500D01*
X79063332Y-103827500D02*
X79063332Y-105502500D01*
X79063332Y-103827500D02*
X79063332Y-103177500D01*
X82183332Y-103827500D02*
X82183332Y-104477500D01*
%TO.C,C2*%
X82705000Y-104088752D02*
X82705000Y-103566248D01*
X84175000Y-104088752D02*
X84175000Y-103566248D01*
%TO.C,TP1*%
X99070000Y-94625000D02*
G75*
G03*
X99070000Y-94625000I-1200000J0D01*
G01*
%TO.C,R1*%
X90070436Y-92380000D02*
X90524564Y-92380000D01*
X90070436Y-90910000D02*
X90524564Y-90910000D01*
%TO.C,TP4*%
X99070000Y-90810000D02*
G75*
G03*
X99070000Y-90810000I-1200000J0D01*
G01*
%TO.C,TP3*%
X95400000Y-90840000D02*
G75*
G03*
X95400000Y-90840000I-1200000J0D01*
G01*
%TO.C,D3*%
X84792500Y-94175000D02*
X84792500Y-96095000D01*
X84792500Y-96095000D02*
X87477500Y-96095000D01*
X87477500Y-94175000D02*
X84792500Y-94175000D01*
%TO.C,R2*%
X90070436Y-97845000D02*
X90524564Y-97845000D01*
X90070436Y-99315000D02*
X90524564Y-99315000D01*
%TO.C,C3*%
X78391252Y-92955000D02*
X77868748Y-92955000D01*
X78391252Y-91485000D02*
X77868748Y-91485000D01*
%TO.C,D1*%
X84792500Y-90730000D02*
X84792500Y-92650000D01*
X84792500Y-92650000D02*
X87477500Y-92650000D01*
X87477500Y-90730000D02*
X84792500Y-90730000D01*
%TD*%
M02*
