%TF.GenerationSoftware,KiCad,Pcbnew,(6.0.2)*%
%TF.CreationDate,2022-03-29T22:09:09+08:00*%
%TF.ProjectId,CH340-USB-C,43483334-302d-4555-9342-2d432e6b6963,rev?*%
%TF.SameCoordinates,Original*%
%TF.FileFunction,Copper,L1,Top*%
%TF.FilePolarity,Positive*%
%FSLAX46Y46*%
G04 Gerber Fmt 4.6, Leading zero omitted, Abs format (unit mm)*
G04 Created by KiCad (PCBNEW (6.0.2)) date 2022-03-29 22:09:09*
%MOMM*%
%LPD*%
G01*
G04 APERTURE LIST*
G04 Aperture macros list*
%AMRoundRect*
0 Rectangle with rounded corners*
0 $1 Rounding radius*
0 $2 $3 $4 $5 $6 $7 $8 $9 X,Y pos of 4 corners*
0 Add a 4 corners polygon primitive as box body*
4,1,4,$2,$3,$4,$5,$6,$7,$8,$9,$2,$3,0*
0 Add four circle primitives for the rounded corners*
1,1,$1+$1,$2,$3*
1,1,$1+$1,$4,$5*
1,1,$1+$1,$6,$7*
1,1,$1+$1,$8,$9*
0 Add four rect primitives between the rounded corners*
20,1,$1+$1,$2,$3,$4,$5,0*
20,1,$1+$1,$4,$5,$6,$7,0*
20,1,$1+$1,$6,$7,$8,$9,0*
20,1,$1+$1,$8,$9,$2,$3,0*%
G04 Aperture macros list end*
%TA.AperFunction,SMDPad,CuDef*%
%ADD10RoundRect,0.243750X0.456250X-0.243750X0.456250X0.243750X-0.456250X0.243750X-0.456250X-0.243750X0*%
%TD*%
%TA.AperFunction,SMDPad,CuDef*%
%ADD11R,1.000000X0.800000*%
%TD*%
%TA.AperFunction,SMDPad,CuDef*%
%ADD12R,0.700000X1.500000*%
%TD*%
%TA.AperFunction,SMDPad,CuDef*%
%ADD13C,2.000000*%
%TD*%
%TA.AperFunction,SMDPad,CuDef*%
%ADD14RoundRect,0.250000X-0.262500X-0.450000X0.262500X-0.450000X0.262500X0.450000X-0.262500X0.450000X0*%
%TD*%
%TA.AperFunction,SMDPad,CuDef*%
%ADD15RoundRect,0.243750X-0.243750X-0.456250X0.243750X-0.456250X0.243750X0.456250X-0.243750X0.456250X0*%
%TD*%
%TA.AperFunction,SMDPad,CuDef*%
%ADD16R,1.450000X0.600000*%
%TD*%
%TA.AperFunction,SMDPad,CuDef*%
%ADD17R,1.450000X0.300000*%
%TD*%
%TA.AperFunction,ComponentPad*%
%ADD18O,2.100000X1.000000*%
%TD*%
%TA.AperFunction,ComponentPad*%
%ADD19O,1.600000X1.000000*%
%TD*%
%TA.AperFunction,SMDPad,CuDef*%
%ADD20RoundRect,0.250000X-0.475000X0.250000X-0.475000X-0.250000X0.475000X-0.250000X0.475000X0.250000X0*%
%TD*%
%TA.AperFunction,SMDPad,CuDef*%
%ADD21RoundRect,0.250000X-0.250000X-0.475000X0.250000X-0.475000X0.250000X0.475000X-0.250000X0.475000X0*%
%TD*%
%TA.AperFunction,SMDPad,CuDef*%
%ADD22RoundRect,0.250000X0.262500X0.450000X-0.262500X0.450000X-0.262500X-0.450000X0.262500X-0.450000X0*%
%TD*%
%TA.AperFunction,SMDPad,CuDef*%
%ADD23RoundRect,0.150000X0.150000X-0.825000X0.150000X0.825000X-0.150000X0.825000X-0.150000X-0.825000X0*%
%TD*%
%TA.AperFunction,SMDPad,CuDef*%
%ADD24RoundRect,0.150000X0.150000X-0.587500X0.150000X0.587500X-0.150000X0.587500X-0.150000X-0.587500X0*%
%TD*%
%TA.AperFunction,SMDPad,CuDef*%
%ADD25RoundRect,0.250000X0.475000X-0.250000X0.475000X0.250000X-0.475000X0.250000X-0.475000X-0.250000X0*%
%TD*%
%TA.AperFunction,SMDPad,CuDef*%
%ADD26RoundRect,0.250000X0.250000X0.475000X-0.250000X0.475000X-0.250000X-0.475000X0.250000X-0.475000X0*%
%TD*%
%TA.AperFunction,ViaPad*%
%ADD27C,0.800000*%
%TD*%
%TA.AperFunction,Conductor*%
%ADD28C,0.600000*%
%TD*%
%TA.AperFunction,Conductor*%
%ADD29C,0.250000*%
%TD*%
%TA.AperFunction,Conductor*%
%ADD30C,0.200000*%
%TD*%
G04 APERTURE END LIST*
D10*
%TO.P,F1,1*%
%TO.N,Net-(F1-Pad1)*%
X75740000Y-104765000D03*
%TO.P,F1,2*%
%TO.N,+5V*%
X75740000Y-102890000D03*
%TD*%
D11*
%TO.P,SW1,*%
%TO.N,*%
X88110000Y-103660000D03*
X88110000Y-105870000D03*
X95410000Y-103660000D03*
X95410000Y-105870000D03*
D12*
%TO.P,SW1,1,A*%
%TO.N,+5V*%
X89510000Y-103010000D03*
%TO.P,SW1,2,B*%
%TO.N,VCC*%
X92510000Y-103010000D03*
%TO.P,SW1,3,C*%
%TO.N,+3V3*%
X94010000Y-103010000D03*
%TD*%
D13*
%TO.P,TP2,1,1*%
%TO.N,+5V*%
X97870000Y-98440000D03*
%TD*%
%TO.P,TP6,1,1*%
%TO.N,/TXD*%
X94200000Y-94690000D03*
%TD*%
D14*
%TO.P,R3,1*%
%TO.N,Net-(D3-Pad2)*%
X89385000Y-95112500D03*
%TO.P,R3,2*%
%TO.N,VCC*%
X91210000Y-95112500D03*
%TD*%
D15*
%TO.P,D2,1,K*%
%TO.N,/RXD*%
X85540000Y-98580000D03*
%TO.P,D2,2,A*%
%TO.N,Net-(D2-Pad2)*%
X87415000Y-98580000D03*
%TD*%
D16*
%TO.P,J1,A1,GND*%
%TO.N,GND*%
X71555000Y-93290000D03*
%TO.P,J1,A4,VBUS*%
%TO.N,Net-(F1-Pad1)*%
X71555000Y-94090000D03*
D17*
%TO.P,J1,A5,CC1*%
%TO.N,/CC1*%
X71555000Y-95290000D03*
%TO.P,J1,A6,D+*%
%TO.N,/USBD+*%
X71555000Y-96290000D03*
%TO.P,J1,A7,D-*%
%TO.N,/USBD-*%
X71555000Y-96790000D03*
%TO.P,J1,A8,SBU1*%
%TO.N,unconnected-(J1-PadA8)*%
X71555000Y-97790000D03*
D16*
%TO.P,J1,A9,VBUS*%
%TO.N,Net-(F1-Pad1)*%
X71555000Y-98990000D03*
%TO.P,J1,A12,GND*%
%TO.N,GND*%
X71555000Y-99790000D03*
%TO.P,J1,B1,GND*%
X71555000Y-99790000D03*
%TO.P,J1,B4,VBUS*%
%TO.N,Net-(F1-Pad1)*%
X71555000Y-98990000D03*
D17*
%TO.P,J1,B5,CC2*%
%TO.N,/CC2*%
X71555000Y-98290000D03*
%TO.P,J1,B6,D+*%
%TO.N,/USBD+*%
X71555000Y-97290000D03*
%TO.P,J1,B7,D-*%
%TO.N,/USBD-*%
X71555000Y-95790000D03*
%TO.P,J1,B8,SBU2*%
%TO.N,unconnected-(J1-PadB8)*%
X71555000Y-94790000D03*
D16*
%TO.P,J1,B9,VBUS*%
%TO.N,Net-(F1-Pad1)*%
X71555000Y-94090000D03*
%TO.P,J1,B12,GND*%
%TO.N,GND*%
X71555000Y-93290000D03*
D18*
%TO.P,J1,S1,SHIELD*%
X70640000Y-92220000D03*
X70640000Y-100860000D03*
D19*
X66460000Y-92220000D03*
X66460000Y-100860000D03*
%TD*%
D20*
%TO.P,C1,1*%
%TO.N,+5V*%
X77806666Y-102877500D03*
%TO.P,C1,2*%
%TO.N,GND*%
X77806666Y-104777500D03*
%TD*%
D21*
%TO.P,C4,1*%
%TO.N,/3V3*%
X73670000Y-92220000D03*
%TO.P,C4,2*%
%TO.N,GND*%
X75570000Y-92220000D03*
%TD*%
D22*
%TO.P,R4,1*%
%TO.N,GND*%
X71982500Y-102940000D03*
%TO.P,R4,2*%
%TO.N,/CC2*%
X70157500Y-102940000D03*
%TD*%
D13*
%TO.P,TP5,1,1*%
%TO.N,/RXD*%
X94120000Y-98440000D03*
%TD*%
D23*
%TO.P,U2,1,UD+*%
%TO.N,/USBD+*%
X74715000Y-99605000D03*
%TO.P,U2,2,UD-*%
%TO.N,/USBD-*%
X75985000Y-99605000D03*
%TO.P,U2,3,GND*%
%TO.N,GND*%
X77255000Y-99605000D03*
%TO.P,U2,4,~{RTS}*%
%TO.N,/~{RTS}*%
X78525000Y-99605000D03*
%TO.P,U2,5,VCC*%
%TO.N,VCC*%
X78525000Y-94655000D03*
%TO.P,U2,6,TXD*%
%TO.N,/TXD*%
X77255000Y-94655000D03*
%TO.P,U2,7,RXD*%
%TO.N,/RXD*%
X75985000Y-94655000D03*
%TO.P,U2,8,V3*%
%TO.N,/3V3*%
X74715000Y-94655000D03*
%TD*%
D22*
%TO.P,R5,1*%
%TO.N,GND*%
X71982500Y-104910000D03*
%TO.P,R5,2*%
%TO.N,/CC1*%
X70157500Y-104910000D03*
%TD*%
D24*
%TO.P,U1,1,GND*%
%TO.N,GND*%
X79673332Y-104765000D03*
%TO.P,U1,2,VO*%
%TO.N,+3V3*%
X81573332Y-104765000D03*
%TO.P,U1,3,VI*%
%TO.N,+5V*%
X80623332Y-102890000D03*
%TD*%
D25*
%TO.P,C2,1*%
%TO.N,+3V3*%
X83440000Y-104777500D03*
%TO.P,C2,2*%
%TO.N,GND*%
X83440000Y-102877500D03*
%TD*%
D13*
%TO.P,TP1,1,1*%
%TO.N,+3V3*%
X97870000Y-94625000D03*
%TD*%
D14*
%TO.P,R1,1*%
%TO.N,Net-(D1-Pad2)*%
X89385000Y-91645000D03*
%TO.P,R1,2*%
%TO.N,VCC*%
X91210000Y-91645000D03*
%TD*%
D13*
%TO.P,TP4,1,1*%
%TO.N,GND*%
X97870000Y-90810000D03*
%TD*%
%TO.P,TP3,1,1*%
%TO.N,VCC*%
X94200000Y-90840000D03*
%TD*%
D15*
%TO.P,D3,1,K*%
%TO.N,/TXD*%
X85540000Y-95135000D03*
%TO.P,D3,2,A*%
%TO.N,Net-(D3-Pad2)*%
X87415000Y-95135000D03*
%TD*%
D14*
%TO.P,R2,1*%
%TO.N,Net-(D2-Pad2)*%
X89385000Y-98580000D03*
%TO.P,R2,2*%
%TO.N,VCC*%
X91210000Y-98580000D03*
%TD*%
D26*
%TO.P,C3,1*%
%TO.N,VCC*%
X79080000Y-92220000D03*
%TO.P,C3,2*%
%TO.N,GND*%
X77180000Y-92220000D03*
%TD*%
D15*
%TO.P,D1,1,K*%
%TO.N,GND*%
X85540000Y-91690000D03*
%TO.P,D1,2,A*%
%TO.N,Net-(D1-Pad2)*%
X87415000Y-91690000D03*
%TD*%
D27*
%TO.N,GND*%
X66420000Y-94340000D03*
X66440000Y-98870000D03*
X74130000Y-90530000D03*
X88380000Y-93360000D03*
X77370000Y-90500000D03*
X81850000Y-102870000D03*
X88380000Y-96840000D03*
X77990000Y-97940000D03*
X74410000Y-101650000D03*
%TO.N,+3V3*%
X85910000Y-102470000D03*
X96900000Y-103500000D03*
%TO.N,VCC*%
X79860000Y-98910000D03*
%TO.N,/RXD*%
X85540000Y-99860500D03*
X92740000Y-97000000D03*
X75990000Y-96260000D03*
%TO.N,/TXD*%
X85120000Y-96870000D03*
X77260000Y-96280000D03*
X92230000Y-93710000D03*
%TO.N,Net-(F1-Pad1)*%
X73100000Y-99280000D03*
X73270000Y-94050000D03*
%TO.N,/~{RTS}*%
X78980000Y-101170000D03*
%TD*%
D28*
%TO.N,+5V*%
X77806666Y-102877500D02*
X77829166Y-102900000D01*
D29*
X97870000Y-98440000D02*
X97870000Y-104400000D01*
X94810000Y-104880000D02*
X93770000Y-105920000D01*
D28*
X81600000Y-100790000D02*
X84800000Y-100790000D01*
X89510000Y-101720000D02*
X89510000Y-103010000D01*
X80613332Y-102900000D02*
X80623332Y-102890000D01*
D29*
X88950000Y-104200000D02*
X89510000Y-103640000D01*
X97870000Y-104400000D02*
X97390000Y-104880000D01*
D28*
X84800000Y-100790000D02*
X85180000Y-101170000D01*
X77794166Y-102890000D02*
X77806666Y-102877500D01*
D29*
X93770000Y-105920000D02*
X89570000Y-105920000D01*
D28*
X80623332Y-102890000D02*
X80623332Y-101766668D01*
X77829166Y-102900000D02*
X80613332Y-102900000D01*
X80623332Y-101766668D02*
X81600000Y-100790000D01*
D29*
X89570000Y-105920000D02*
X88950000Y-105300000D01*
X88950000Y-105300000D02*
X88950000Y-104200000D01*
D28*
X75740000Y-102890000D02*
X77794166Y-102890000D01*
X85180000Y-101170000D02*
X88960000Y-101170000D01*
D29*
X97390000Y-104880000D02*
X94810000Y-104880000D01*
D28*
X88960000Y-101170000D02*
X89510000Y-101720000D01*
D29*
X89510000Y-103640000D02*
X89510000Y-103010000D01*
%TO.N,GND*%
X71555000Y-99790000D02*
X71555000Y-99945000D01*
X71555000Y-99945000D02*
X70640000Y-100860000D01*
D28*
%TO.N,+3V3*%
X84832500Y-104777500D02*
X85580000Y-104030000D01*
X96900000Y-103500000D02*
X96900000Y-103490000D01*
X94010000Y-102060000D02*
X94010000Y-103010000D01*
X83440000Y-104777500D02*
X84832500Y-104777500D01*
D29*
X96000000Y-101080000D02*
X95245000Y-101835000D01*
D28*
X83427500Y-104765000D02*
X83440000Y-104777500D01*
X85580000Y-104030000D02*
X85910000Y-103700000D01*
D29*
X96000000Y-96495000D02*
X96000000Y-101080000D01*
D28*
X95245000Y-101835000D02*
X94235000Y-101835000D01*
D29*
X97870000Y-94625000D02*
X96000000Y-96495000D01*
D28*
X81573332Y-104765000D02*
X83427500Y-104765000D01*
X96900000Y-103490000D02*
X95245000Y-101835000D01*
X85910000Y-103700000D02*
X85910000Y-102470000D01*
X94235000Y-101835000D02*
X94010000Y-102060000D01*
%TO.N,VCC*%
X91450000Y-90840000D02*
X91240000Y-90630000D01*
X91210000Y-95112500D02*
X91210000Y-98580000D01*
X91240000Y-90630000D02*
X91240000Y-91637500D01*
X94200000Y-90840000D02*
X91450000Y-90840000D01*
X92510000Y-103010000D02*
X92510000Y-101810000D01*
X78540000Y-92760000D02*
X78540000Y-94640000D01*
X92510000Y-101810000D02*
X91210000Y-100510000D01*
X79080000Y-92220000D02*
X79080000Y-91360000D01*
X91210000Y-91645000D02*
X91210000Y-95112500D01*
X79860000Y-98910000D02*
X79860000Y-97150000D01*
X78525000Y-94655000D02*
X78525000Y-95815000D01*
X79080000Y-91360000D02*
X80580000Y-89860000D01*
X91240000Y-91637500D02*
X91232500Y-91645000D01*
X79860000Y-97150000D02*
X78525000Y-95815000D01*
X91210000Y-100510000D02*
X91210000Y-98580000D01*
X90470000Y-89860000D02*
X91240000Y-90630000D01*
X80580000Y-89860000D02*
X90470000Y-89860000D01*
X79080000Y-92220000D02*
X78540000Y-92760000D01*
X78540000Y-94640000D02*
X78525000Y-94655000D01*
D29*
%TO.N,/3V3*%
X74715000Y-93495000D02*
X74715000Y-94655000D01*
X73670000Y-92450000D02*
X74715000Y-93495000D01*
X73670000Y-92220000D02*
X73670000Y-92450000D01*
%TO.N,Net-(D1-Pad2)*%
X89362500Y-91690000D02*
X89407500Y-91645000D01*
X87437500Y-91690000D02*
X89362500Y-91690000D01*
%TO.N,/RXD*%
X75985000Y-96255000D02*
X75985000Y-94655000D01*
X94120000Y-98440000D02*
X94120000Y-98380000D01*
X94120000Y-98380000D02*
X92740000Y-97000000D01*
X85540000Y-99860500D02*
X85540000Y-98580000D01*
X75990000Y-96260000D02*
X75985000Y-96255000D01*
%TO.N,Net-(D2-Pad2)*%
X87415000Y-98580000D02*
X89385000Y-98580000D01*
%TO.N,/TXD*%
X85540000Y-96450000D02*
X85540000Y-95135000D01*
X93220000Y-93710000D02*
X94200000Y-94690000D01*
X92230000Y-93710000D02*
X93220000Y-93710000D01*
X77255000Y-94655000D02*
X77255000Y-96275000D01*
X85120000Y-96870000D02*
X85540000Y-96450000D01*
X77255000Y-96275000D02*
X77260000Y-96280000D01*
%TO.N,Net-(D3-Pad2)*%
X89362500Y-95135000D02*
X89385000Y-95112500D01*
X87415000Y-95135000D02*
X89362500Y-95135000D01*
D28*
%TO.N,Net-(F1-Pad1)*%
X71555000Y-98990000D02*
X72810000Y-98990000D01*
X73100000Y-99280000D02*
X73100000Y-103640000D01*
X74215000Y-104765000D02*
X75740000Y-104765000D01*
X74215000Y-104765000D02*
X74215000Y-104755000D01*
X74215000Y-104755000D02*
X73100000Y-103640000D01*
X72810000Y-98990000D02*
X73100000Y-99280000D01*
X73270000Y-94050000D02*
X73230000Y-94090000D01*
X73230000Y-94090000D02*
X71555000Y-94090000D01*
D29*
%TO.N,/CC1*%
X71555000Y-95290000D02*
X69840000Y-95290000D01*
X69440000Y-104910000D02*
X70157500Y-104910000D01*
X69840000Y-95290000D02*
X68280000Y-96850000D01*
X68280000Y-103750000D02*
X69440000Y-104910000D01*
X68280000Y-96850000D02*
X68280000Y-103750000D01*
D30*
%TO.N,/USBD+*%
X75124999Y-97723199D02*
X74666800Y-97265000D01*
X71555000Y-97290000D02*
X71928844Y-97290000D01*
X74666800Y-97265000D02*
X71953844Y-97265000D01*
X71928844Y-97290000D02*
X71953844Y-97265000D01*
X70530000Y-96290000D02*
X70400000Y-96420000D01*
X74715000Y-99605000D02*
X75124999Y-99195001D01*
X75124999Y-99195001D02*
X75124999Y-97723199D01*
X70400000Y-97140000D02*
X70550000Y-97290000D01*
X70550000Y-97290000D02*
X71555000Y-97290000D01*
X70400000Y-96420000D02*
X70400000Y-97140000D01*
X71555000Y-96290000D02*
X70530000Y-96290000D01*
%TO.N,/USBD-*%
X71555000Y-96790000D02*
X71928844Y-96790000D01*
X72620000Y-96600000D02*
X72405000Y-96815000D01*
X72410000Y-95790000D02*
X72620000Y-96000000D01*
X74853200Y-96815000D02*
X72405000Y-96815000D01*
X75985000Y-99605000D02*
X75575001Y-99195001D01*
X75575001Y-97536801D02*
X74853200Y-96815000D01*
X71928844Y-96790000D02*
X71953844Y-96815000D01*
X75575001Y-99195001D02*
X75575001Y-97536801D01*
X72405000Y-96815000D02*
X71953844Y-96815000D01*
X71555000Y-95790000D02*
X72410000Y-95790000D01*
X72620000Y-96000000D02*
X72620000Y-96600000D01*
D29*
%TO.N,/CC2*%
X68740000Y-99140000D02*
X69590000Y-98290000D01*
X69520000Y-102940000D02*
X68740000Y-102160000D01*
X69590000Y-98290000D02*
X71555000Y-98290000D01*
X70195000Y-102940000D02*
X69520000Y-102940000D01*
X68740000Y-102160000D02*
X68740000Y-99140000D01*
%TO.N,/~{RTS}*%
X78525000Y-99605000D02*
X78525000Y-100715000D01*
X78525000Y-100715000D02*
X78980000Y-101170000D01*
%TD*%
%TA.AperFunction,Conductor*%
%TO.N,GND*%
G36*
X80123759Y-88978002D02*
G01*
X80170252Y-89031658D01*
X80180356Y-89101932D01*
X80150862Y-89166512D01*
X80132864Y-89183559D01*
X80121844Y-89192107D01*
X80111395Y-89199397D01*
X80074624Y-89222374D01*
X80069625Y-89227339D01*
X80069623Y-89227340D01*
X80045815Y-89250983D01*
X80045192Y-89251566D01*
X80044530Y-89252079D01*
X80018681Y-89277928D01*
X79951062Y-89345077D01*
X79945918Y-89350185D01*
X79945259Y-89351223D01*
X79944153Y-89352456D01*
X78514843Y-90781765D01*
X78513906Y-90782693D01*
X78483538Y-90812432D01*
X78449493Y-90845771D01*
X78426002Y-90882221D01*
X78418583Y-90892546D01*
X78391524Y-90926443D01*
X78388459Y-90932784D01*
X78388458Y-90932785D01*
X78376928Y-90956637D01*
X78369399Y-90970054D01*
X78351235Y-90998238D01*
X78348827Y-91004855D01*
X78348824Y-91004860D01*
X78336408Y-91038973D01*
X78331447Y-91050716D01*
X78315646Y-91083403D01*
X78315644Y-91083408D01*
X78312579Y-91089749D01*
X78310996Y-91096607D01*
X78310995Y-91096609D01*
X78305035Y-91122426D01*
X78300668Y-91137169D01*
X78289197Y-91168685D01*
X78288313Y-91175679D01*
X78288313Y-91175681D01*
X78288172Y-91176794D01*
X78287883Y-91177456D01*
X78286657Y-91182524D01*
X78285767Y-91182309D01*
X78259787Y-91241870D01*
X78252340Y-91250014D01*
X78230695Y-91271697D01*
X78227898Y-91276235D01*
X78170647Y-91316824D01*
X78099724Y-91320054D01*
X78038313Y-91284428D01*
X78030938Y-91275932D01*
X78022902Y-91265793D01*
X77908171Y-91151261D01*
X77896760Y-91142249D01*
X77758757Y-91057184D01*
X77745576Y-91051037D01*
X77591290Y-90999862D01*
X77577914Y-90996995D01*
X77483562Y-90987328D01*
X77477145Y-90987000D01*
X77452115Y-90987000D01*
X77436876Y-90991475D01*
X77435671Y-90992865D01*
X77434000Y-91000548D01*
X77434000Y-92348000D01*
X77413998Y-92416121D01*
X77360342Y-92462614D01*
X77308000Y-92474000D01*
X75442000Y-92474000D01*
X75373879Y-92453998D01*
X75327386Y-92400342D01*
X75316000Y-92348000D01*
X75316000Y-91947885D01*
X75824000Y-91947885D01*
X75828475Y-91963124D01*
X75829865Y-91964329D01*
X75837548Y-91966000D01*
X76907885Y-91966000D01*
X76923124Y-91961525D01*
X76924329Y-91960135D01*
X76926000Y-91952452D01*
X76926000Y-91005116D01*
X76921525Y-90989877D01*
X76920135Y-90988672D01*
X76912452Y-90987001D01*
X76882905Y-90987001D01*
X76876386Y-90987338D01*
X76780794Y-90997257D01*
X76767400Y-91000149D01*
X76613216Y-91051588D01*
X76600038Y-91057761D01*
X76462191Y-91143064D01*
X76453274Y-91150132D01*
X76387465Y-91176771D01*
X76317700Y-91163601D01*
X76296915Y-91150269D01*
X76286761Y-91142250D01*
X76148757Y-91057184D01*
X76135576Y-91051037D01*
X75981290Y-90999862D01*
X75967914Y-90996995D01*
X75873562Y-90987328D01*
X75867145Y-90987000D01*
X75842115Y-90987000D01*
X75826876Y-90991475D01*
X75825671Y-90992865D01*
X75824000Y-91000548D01*
X75824000Y-91947885D01*
X75316000Y-91947885D01*
X75316000Y-91005116D01*
X75311525Y-90989877D01*
X75310135Y-90988672D01*
X75302452Y-90987001D01*
X75272905Y-90987001D01*
X75266386Y-90987338D01*
X75170794Y-90997257D01*
X75157400Y-91000149D01*
X75003216Y-91051588D01*
X74990038Y-91057761D01*
X74852193Y-91143063D01*
X74840792Y-91152099D01*
X74726262Y-91266828D01*
X74719206Y-91275762D01*
X74661288Y-91316823D01*
X74590365Y-91320053D01*
X74528954Y-91284426D01*
X74522154Y-91276593D01*
X74518478Y-91270652D01*
X74393303Y-91145695D01*
X74313671Y-91096609D01*
X74248968Y-91056725D01*
X74248966Y-91056724D01*
X74242738Y-91052885D01*
X74147705Y-91021364D01*
X74081389Y-90999368D01*
X74081387Y-90999368D01*
X74074861Y-90997203D01*
X74068025Y-90996503D01*
X74068022Y-90996502D01*
X74024969Y-90992091D01*
X73970400Y-90986500D01*
X73369600Y-90986500D01*
X73366354Y-90986837D01*
X73366350Y-90986837D01*
X73270692Y-90996762D01*
X73270688Y-90996763D01*
X73263834Y-90997474D01*
X73257298Y-90999655D01*
X73257296Y-90999655D01*
X73240928Y-91005116D01*
X73096054Y-91053450D01*
X72945652Y-91146522D01*
X72820695Y-91271697D01*
X72816855Y-91277927D01*
X72816854Y-91277928D01*
X72748868Y-91388222D01*
X72727885Y-91422262D01*
X72716694Y-91456002D01*
X72693271Y-91526622D01*
X72672203Y-91590139D01*
X72661500Y-91694600D01*
X72661500Y-92408653D01*
X72641498Y-92476774D01*
X72587842Y-92523267D01*
X72517568Y-92533371D01*
X72491270Y-92526635D01*
X72397606Y-92491522D01*
X72382351Y-92487895D01*
X72331486Y-92482369D01*
X72324672Y-92482000D01*
X72199934Y-92482000D01*
X72165892Y-92474335D01*
X72161648Y-92474000D01*
X71827115Y-92474000D01*
X71811876Y-92478475D01*
X71810671Y-92479865D01*
X71809000Y-92487548D01*
X71809000Y-93155500D01*
X71788998Y-93223621D01*
X71735342Y-93270114D01*
X71683000Y-93281500D01*
X71323137Y-93281500D01*
X71255016Y-93261498D01*
X71208523Y-93207842D01*
X71198419Y-93137568D01*
X71227913Y-93072988D01*
X71287639Y-93034604D01*
X71298124Y-93031525D01*
X71299329Y-93030135D01*
X71301000Y-93022452D01*
X71301000Y-92492115D01*
X71296525Y-92476876D01*
X71295135Y-92475671D01*
X71287452Y-92474000D01*
X70912115Y-92474000D01*
X70896876Y-92478475D01*
X70895671Y-92479865D01*
X70894000Y-92487548D01*
X70894000Y-92945874D01*
X70873998Y-93013995D01*
X70820342Y-93060488D01*
X70750068Y-93070592D01*
X70689461Y-93041176D01*
X70688187Y-93042843D01*
X70549743Y-92936994D01*
X70549739Y-92936991D01*
X70544322Y-92932850D01*
X70538142Y-92929968D01*
X70538140Y-92929967D01*
X70458750Y-92892947D01*
X70405465Y-92846030D01*
X70386000Y-92778752D01*
X70386000Y-92492115D01*
X70381525Y-92476876D01*
X70380135Y-92475671D01*
X70372452Y-92474000D01*
X69132076Y-92474000D01*
X69118545Y-92477973D01*
X69117425Y-92485768D01*
X69149138Y-92593521D01*
X69153731Y-92604889D01*
X69239607Y-92769154D01*
X69246321Y-92779415D01*
X69362468Y-92923873D01*
X69371045Y-92932632D01*
X69423110Y-92976319D01*
X69462436Y-93035428D01*
X69463563Y-93106416D01*
X69446331Y-93143663D01*
X69369723Y-93256388D01*
X69302470Y-93424534D01*
X69301356Y-93431262D01*
X69301355Y-93431266D01*
X69274007Y-93596461D01*
X69272892Y-93603198D01*
X69282370Y-93784047D01*
X69284181Y-93790620D01*
X69284181Y-93790623D01*
X69318433Y-93914974D01*
X69330461Y-93958641D01*
X69414922Y-94118836D01*
X69419327Y-94124049D01*
X69419330Y-94124053D01*
X69527406Y-94251943D01*
X69527410Y-94251947D01*
X69531813Y-94257157D01*
X69537237Y-94261304D01*
X69537238Y-94261305D01*
X69670257Y-94363006D01*
X69670261Y-94363009D01*
X69675678Y-94367150D01*
X69787823Y-94419444D01*
X69841108Y-94466361D01*
X69860569Y-94534639D01*
X69840027Y-94602598D01*
X69786004Y-94648664D01*
X69754286Y-94658087D01*
X69748030Y-94659078D01*
X69740110Y-94659327D01*
X69722454Y-94664456D01*
X69720658Y-94664978D01*
X69701306Y-94668986D01*
X69694235Y-94669880D01*
X69681203Y-94671526D01*
X69673834Y-94674443D01*
X69673832Y-94674444D01*
X69640097Y-94687800D01*
X69628869Y-94691645D01*
X69586407Y-94703982D01*
X69579585Y-94708016D01*
X69579579Y-94708019D01*
X69568968Y-94714294D01*
X69551218Y-94722990D01*
X69539756Y-94727528D01*
X69539751Y-94727531D01*
X69532383Y-94730448D01*
X69514970Y-94743099D01*
X69496625Y-94756427D01*
X69486707Y-94762943D01*
X69468019Y-94773995D01*
X69448637Y-94785458D01*
X69434313Y-94799782D01*
X69419281Y-94812621D01*
X69402893Y-94824528D01*
X69380050Y-94852141D01*
X69374712Y-94858593D01*
X69366722Y-94867373D01*
X67887747Y-96346348D01*
X67879461Y-96353888D01*
X67872982Y-96358000D01*
X67867557Y-96363777D01*
X67826357Y-96407651D01*
X67823602Y-96410493D01*
X67803865Y-96430230D01*
X67801385Y-96433427D01*
X67793682Y-96442447D01*
X67763414Y-96474679D01*
X67759595Y-96481625D01*
X67759593Y-96481628D01*
X67753652Y-96492434D01*
X67742801Y-96508953D01*
X67730386Y-96524959D01*
X67727241Y-96532228D01*
X67727238Y-96532232D01*
X67712826Y-96565537D01*
X67707609Y-96576187D01*
X67686305Y-96614940D01*
X67684334Y-96622615D01*
X67684334Y-96622616D01*
X67681267Y-96634562D01*
X67674863Y-96653266D01*
X67666819Y-96671855D01*
X67665580Y-96679678D01*
X67665577Y-96679688D01*
X67659901Y-96715524D01*
X67657495Y-96727144D01*
X67649961Y-96756488D01*
X67646500Y-96769970D01*
X67646500Y-96790224D01*
X67644949Y-96809934D01*
X67641780Y-96829943D01*
X67642526Y-96837835D01*
X67645941Y-96873961D01*
X67646500Y-96885819D01*
X67646500Y-100017747D01*
X67626498Y-100085868D01*
X67572842Y-100132361D01*
X67502568Y-100142465D01*
X67439509Y-100114269D01*
X67336961Y-100028222D01*
X67326841Y-100021292D01*
X67164415Y-99931998D01*
X67153142Y-99927166D01*
X66976462Y-99871120D01*
X66964468Y-99868570D01*
X66820239Y-99852393D01*
X66813215Y-99852000D01*
X66732115Y-99852000D01*
X66716876Y-99856475D01*
X66715671Y-99857865D01*
X66714000Y-99865548D01*
X66714000Y-101849885D01*
X66718475Y-101865124D01*
X66719865Y-101866329D01*
X66727548Y-101868000D01*
X66806657Y-101868000D01*
X66812805Y-101867699D01*
X66950603Y-101854188D01*
X66962638Y-101851805D01*
X67140076Y-101798233D01*
X67151416Y-101793559D01*
X67315077Y-101706540D01*
X67325294Y-101699751D01*
X67440864Y-101605495D01*
X67506296Y-101577941D01*
X67576237Y-101590136D01*
X67628482Y-101638209D01*
X67646500Y-101703138D01*
X67646500Y-103671233D01*
X67645973Y-103682416D01*
X67644298Y-103689909D01*
X67644547Y-103697835D01*
X67644547Y-103697836D01*
X67646438Y-103757986D01*
X67646500Y-103761945D01*
X67646500Y-103789856D01*
X67646997Y-103793790D01*
X67646997Y-103793791D01*
X67647005Y-103793856D01*
X67647938Y-103805693D01*
X67649327Y-103849889D01*
X67654978Y-103869339D01*
X67658987Y-103888700D01*
X67661526Y-103908797D01*
X67664445Y-103916168D01*
X67664445Y-103916170D01*
X67677804Y-103949912D01*
X67681649Y-103961142D01*
X67693982Y-104003593D01*
X67698015Y-104010412D01*
X67698017Y-104010417D01*
X67704293Y-104021028D01*
X67712988Y-104038776D01*
X67720448Y-104057617D01*
X67725110Y-104064033D01*
X67725110Y-104064034D01*
X67746436Y-104093387D01*
X67752952Y-104103307D01*
X67767091Y-104127214D01*
X67775458Y-104141362D01*
X67789779Y-104155683D01*
X67802619Y-104170716D01*
X67814528Y-104187107D01*
X67842944Y-104210615D01*
X67848605Y-104215298D01*
X67857384Y-104223288D01*
X68936348Y-105302253D01*
X68943888Y-105310539D01*
X68948000Y-105317018D01*
X68953777Y-105322443D01*
X68964479Y-105332493D01*
X68990982Y-105357380D01*
X68997651Y-105363643D01*
X69000493Y-105366398D01*
X69020230Y-105386135D01*
X69023427Y-105388615D01*
X69032447Y-105396318D01*
X69064679Y-105426586D01*
X69071625Y-105430405D01*
X69071628Y-105430407D01*
X69082434Y-105436348D01*
X69098953Y-105447199D01*
X69103414Y-105450659D01*
X69104020Y-105451129D01*
X69145587Y-105508685D01*
X69147339Y-105514865D01*
X69147474Y-105516166D01*
X69149031Y-105520832D01*
X69149031Y-105520833D01*
X69151289Y-105527602D01*
X69203450Y-105683946D01*
X69296522Y-105834348D01*
X69421697Y-105959305D01*
X69427927Y-105963145D01*
X69427928Y-105963146D01*
X69565288Y-106047816D01*
X69572262Y-106052115D01*
X69652005Y-106078564D01*
X69733611Y-106105632D01*
X69733613Y-106105632D01*
X69740139Y-106107797D01*
X69746975Y-106108497D01*
X69746978Y-106108498D01*
X69790031Y-106112909D01*
X69844600Y-106118500D01*
X70470400Y-106118500D01*
X70473646Y-106118163D01*
X70473650Y-106118163D01*
X70569308Y-106108238D01*
X70569312Y-106108237D01*
X70576166Y-106107526D01*
X70582702Y-106105345D01*
X70582704Y-106105345D01*
X70714806Y-106061272D01*
X70743946Y-106051550D01*
X70894348Y-105958478D01*
X70971700Y-105880991D01*
X70981138Y-105871537D01*
X71043421Y-105837458D01*
X71114241Y-105842461D01*
X71159329Y-105871382D01*
X71241829Y-105953739D01*
X71253240Y-105962751D01*
X71391243Y-106047816D01*
X71404424Y-106053963D01*
X71558710Y-106105138D01*
X71572086Y-106108005D01*
X71666438Y-106117672D01*
X71672854Y-106118000D01*
X71710385Y-106118000D01*
X71725624Y-106113525D01*
X71726829Y-106112135D01*
X71728500Y-106104452D01*
X71728500Y-106099884D01*
X72236500Y-106099884D01*
X72240975Y-106115123D01*
X72242365Y-106116328D01*
X72250048Y-106117999D01*
X72292095Y-106117999D01*
X72298614Y-106117662D01*
X72394206Y-106107743D01*
X72407600Y-106104851D01*
X72561784Y-106053412D01*
X72574962Y-106047239D01*
X72712807Y-105961937D01*
X72724208Y-105952901D01*
X72838739Y-105838171D01*
X72847751Y-105826760D01*
X72932816Y-105688757D01*
X72938963Y-105675576D01*
X72990138Y-105521290D01*
X72993005Y-105507914D01*
X73002672Y-105413562D01*
X73003000Y-105407146D01*
X73003000Y-105182115D01*
X72998525Y-105166876D01*
X72997135Y-105165671D01*
X72989452Y-105164000D01*
X72254615Y-105164000D01*
X72239376Y-105168475D01*
X72238171Y-105169865D01*
X72236500Y-105177548D01*
X72236500Y-106099884D01*
X71728500Y-106099884D01*
X71728500Y-101781434D01*
X71748502Y-101713313D01*
X71774864Y-101683791D01*
X71898933Y-101582603D01*
X71907637Y-101573959D01*
X72025784Y-101431144D01*
X72032644Y-101420973D01*
X72054664Y-101380248D01*
X72104659Y-101329840D01*
X72173970Y-101314462D01*
X72240592Y-101338998D01*
X72283373Y-101395658D01*
X72291500Y-101440177D01*
X72291500Y-101629325D01*
X72271498Y-101697446D01*
X72260724Y-101711838D01*
X72238171Y-101737865D01*
X72236500Y-101745548D01*
X72236500Y-104637885D01*
X72240975Y-104653124D01*
X72242365Y-104654329D01*
X72250048Y-104656000D01*
X72920418Y-104656000D01*
X72988539Y-104676002D01*
X73009513Y-104692905D01*
X73549551Y-105232943D01*
X73567774Y-105256016D01*
X73573862Y-105265912D01*
X73575859Y-105267951D01*
X73577374Y-105270376D01*
X73581936Y-105274970D01*
X73639059Y-105332493D01*
X73639676Y-105333119D01*
X73700771Y-105395507D01*
X73703170Y-105397053D01*
X73705185Y-105399082D01*
X73710641Y-105402545D01*
X73710643Y-105402546D01*
X73741087Y-105421866D01*
X73778163Y-105445394D01*
X73779045Y-105445954D01*
X73779761Y-105446412D01*
X73853238Y-105493765D01*
X73855921Y-105494741D01*
X73858334Y-105496273D01*
X73906887Y-105513562D01*
X73940699Y-105525602D01*
X73941526Y-105525900D01*
X74017598Y-105553588D01*
X74017602Y-105553589D01*
X74023685Y-105555803D01*
X74026520Y-105556161D01*
X74029210Y-105557119D01*
X74075655Y-105562657D01*
X74116086Y-105567479D01*
X74116888Y-105567578D01*
X74163769Y-105573500D01*
X74165898Y-105573500D01*
X74168789Y-105573763D01*
X74172370Y-105574190D01*
X74209320Y-105578596D01*
X74216323Y-105577860D01*
X74216324Y-105577860D01*
X74251240Y-105574190D01*
X74264411Y-105573500D01*
X74734458Y-105573500D01*
X74802579Y-105593502D01*
X74810071Y-105598849D01*
X74814347Y-105603117D01*
X74820577Y-105606957D01*
X74820578Y-105606958D01*
X74843743Y-105621237D01*
X74963671Y-105695161D01*
X74970619Y-105697466D01*
X74970620Y-105697466D01*
X75123634Y-105748219D01*
X75123636Y-105748219D01*
X75130165Y-105750385D01*
X75233769Y-105761000D01*
X75736096Y-105761000D01*
X76246230Y-105760999D01*
X76351129Y-105750116D01*
X76357660Y-105747937D01*
X76357665Y-105747936D01*
X76510578Y-105696920D01*
X76517526Y-105694602D01*
X76606570Y-105639500D01*
X76660462Y-105606151D01*
X76660466Y-105606148D01*
X76666689Y-105602297D01*
X76671781Y-105597196D01*
X76737547Y-105570577D01*
X76807311Y-105583748D01*
X76839019Y-105606787D01*
X76853494Y-105621237D01*
X76864909Y-105630253D01*
X77002909Y-105715316D01*
X77016090Y-105721463D01*
X77170376Y-105772638D01*
X77183752Y-105775505D01*
X77278104Y-105785172D01*
X77284520Y-105785500D01*
X77534551Y-105785500D01*
X77549790Y-105781025D01*
X77550995Y-105779635D01*
X77552666Y-105771952D01*
X77552666Y-105767384D01*
X78060666Y-105767384D01*
X78065141Y-105782623D01*
X78066531Y-105783828D01*
X78074214Y-105785499D01*
X78328761Y-105785499D01*
X78335280Y-105785162D01*
X78430872Y-105775243D01*
X78444266Y-105772351D01*
X78598450Y-105720912D01*
X78611628Y-105714739D01*
X78749474Y-105629437D01*
X78754192Y-105625697D01*
X78820003Y-105599060D01*
X78889767Y-105612231D01*
X78940910Y-105660304D01*
X78995243Y-105752177D01*
X79004883Y-105764604D01*
X79111228Y-105870949D01*
X79123654Y-105880589D01*
X79253111Y-105957148D01*
X79267542Y-105963393D01*
X79401937Y-106002439D01*
X79416038Y-106002399D01*
X79419332Y-105995130D01*
X79419332Y-105989378D01*
X79927332Y-105989378D01*
X79931305Y-106002909D01*
X79939203Y-106004044D01*
X80079122Y-105963393D01*
X80093553Y-105957148D01*
X80223010Y-105880589D01*
X80235436Y-105870949D01*
X80341781Y-105764604D01*
X80351421Y-105752178D01*
X80427980Y-105622721D01*
X80434225Y-105608290D01*
X80476601Y-105462435D01*
X80478902Y-105449833D01*
X80481139Y-105421416D01*
X80481332Y-105416486D01*
X80481332Y-105037115D01*
X80476857Y-105021876D01*
X80475467Y-105020671D01*
X80467784Y-105019000D01*
X79945447Y-105019000D01*
X79930208Y-105023475D01*
X79929003Y-105024865D01*
X79927332Y-105032548D01*
X79927332Y-105989378D01*
X79419332Y-105989378D01*
X79419332Y-105037115D01*
X79414857Y-105021876D01*
X79413467Y-105020671D01*
X79405784Y-105019000D01*
X79097781Y-105019000D01*
X79072593Y-105026396D01*
X79037095Y-105031500D01*
X78078781Y-105031500D01*
X78063542Y-105035975D01*
X78062337Y-105037365D01*
X78060666Y-105045048D01*
X78060666Y-105767384D01*
X77552666Y-105767384D01*
X77552666Y-104649500D01*
X77572668Y-104581379D01*
X77626324Y-104534886D01*
X77678666Y-104523500D01*
X78807217Y-104523500D01*
X78832405Y-104516104D01*
X78867903Y-104511000D01*
X80463216Y-104511000D01*
X80478455Y-104506525D01*
X80479660Y-104505135D01*
X80481331Y-104497452D01*
X80481331Y-104262000D01*
X80501333Y-104193879D01*
X80554989Y-104147386D01*
X80607331Y-104136000D01*
X80638832Y-104136000D01*
X80706953Y-104156002D01*
X80753446Y-104209658D01*
X80764832Y-104262000D01*
X80764832Y-104709095D01*
X80763946Y-104724014D01*
X80759736Y-104759320D01*
X80760472Y-104766323D01*
X80760472Y-104766324D01*
X80764142Y-104801240D01*
X80764832Y-104814411D01*
X80764832Y-105419002D01*
X80765025Y-105421450D01*
X80765025Y-105421458D01*
X80767259Y-105449833D01*
X80767770Y-105456331D01*
X80793717Y-105545642D01*
X80811918Y-105608290D01*
X80814187Y-105616101D01*
X80822788Y-105630645D01*
X80894841Y-105752480D01*
X80894843Y-105752483D01*
X80898879Y-105759307D01*
X81016525Y-105876953D01*
X81023349Y-105880989D01*
X81023352Y-105880991D01*
X81130921Y-105944607D01*
X81159731Y-105961645D01*
X81167342Y-105963856D01*
X81167344Y-105963857D01*
X81219563Y-105979028D01*
X81319501Y-106008062D01*
X81325906Y-106008566D01*
X81325911Y-106008567D01*
X81354374Y-106010807D01*
X81354382Y-106010807D01*
X81356830Y-106011000D01*
X81789834Y-106011000D01*
X81792282Y-106010807D01*
X81792290Y-106010807D01*
X81820753Y-106008567D01*
X81820758Y-106008566D01*
X81827163Y-106008062D01*
X81927101Y-105979028D01*
X81979320Y-105963857D01*
X81979322Y-105963856D01*
X81986933Y-105961645D01*
X82015743Y-105944607D01*
X82123312Y-105880991D01*
X82123315Y-105880989D01*
X82130139Y-105876953D01*
X82247785Y-105759307D01*
X82305893Y-105661052D01*
X82357786Y-105612600D01*
X82427637Y-105599895D01*
X82490348Y-105625459D01*
X82491697Y-105626805D01*
X82497927Y-105630645D01*
X82635288Y-105715316D01*
X82642262Y-105719615D01*
X82722005Y-105746064D01*
X82803611Y-105773132D01*
X82803613Y-105773132D01*
X82810139Y-105775297D01*
X82816975Y-105775997D01*
X82816978Y-105775998D01*
X82860031Y-105780409D01*
X82914600Y-105786000D01*
X83965400Y-105786000D01*
X83968646Y-105785663D01*
X83968650Y-105785663D01*
X84064308Y-105775738D01*
X84064312Y-105775737D01*
X84071166Y-105775026D01*
X84077702Y-105772845D01*
X84077704Y-105772845D01*
X84209806Y-105728772D01*
X84238946Y-105719050D01*
X84367497Y-105639500D01*
X84383122Y-105629831D01*
X84383123Y-105629830D01*
X84389348Y-105625978D01*
X84394521Y-105620796D01*
X84400255Y-105616251D01*
X84401581Y-105617924D01*
X84454625Y-105588902D01*
X84481511Y-105586000D01*
X84823286Y-105586000D01*
X84824606Y-105586007D01*
X84914721Y-105586951D01*
X84957097Y-105577789D01*
X84969663Y-105575731D01*
X85012755Y-105570897D01*
X85019406Y-105568581D01*
X85019410Y-105568580D01*
X85044430Y-105559867D01*
X85059242Y-105555704D01*
X85085119Y-105550109D01*
X85092010Y-105548619D01*
X85131313Y-105530292D01*
X85143089Y-105525510D01*
X85184052Y-105511245D01*
X85190027Y-105507511D01*
X85190030Y-105507510D01*
X85212495Y-105493473D01*
X85226012Y-105486134D01*
X85250014Y-105474941D01*
X85250015Y-105474940D01*
X85256402Y-105471962D01*
X85283260Y-105451129D01*
X85290653Y-105445394D01*
X85301112Y-105438098D01*
X85331904Y-105418858D01*
X85331907Y-105418856D01*
X85337876Y-105415126D01*
X85342872Y-105410165D01*
X85366679Y-105386524D01*
X85367304Y-105385939D01*
X85367970Y-105385422D01*
X85393956Y-105359436D01*
X85436671Y-105317018D01*
X85464084Y-105289796D01*
X85464087Y-105289793D01*
X85466582Y-105287315D01*
X85467240Y-105286278D01*
X85468338Y-105285054D01*
X86115466Y-104637925D01*
X86115470Y-104637922D01*
X86475251Y-104278141D01*
X86476095Y-104277306D01*
X86535475Y-104219157D01*
X86535476Y-104219156D01*
X86540507Y-104214229D01*
X86563998Y-104177779D01*
X86571417Y-104167454D01*
X86598476Y-104133557D01*
X86601540Y-104127218D01*
X86601543Y-104127214D01*
X86613074Y-104103362D01*
X86620601Y-104089949D01*
X86634947Y-104067687D01*
X86634948Y-104067684D01*
X86638765Y-104061762D01*
X86642751Y-104050811D01*
X86653592Y-104021027D01*
X86658553Y-104009283D01*
X86674352Y-103976601D01*
X86674353Y-103976599D01*
X86677421Y-103970252D01*
X86683348Y-103944582D01*
X86684966Y-103937573D01*
X86689334Y-103922825D01*
X86690776Y-103918864D01*
X86700803Y-103891315D01*
X86701685Y-103884329D01*
X86701687Y-103884323D01*
X86706238Y-103848299D01*
X86708474Y-103835747D01*
X86716638Y-103800386D01*
X86716638Y-103800383D01*
X86718224Y-103793515D01*
X86718272Y-103779974D01*
X86718366Y-103752944D01*
X86718395Y-103752062D01*
X86718500Y-103751231D01*
X86718500Y-103714428D01*
X86718857Y-103612130D01*
X86718589Y-103610930D01*
X86718500Y-103609293D01*
X86718500Y-102920397D01*
X86735380Y-102857398D01*
X86744527Y-102841556D01*
X86803542Y-102659928D01*
X86807161Y-102625500D01*
X86822814Y-102476565D01*
X86823504Y-102470000D01*
X86806763Y-102310716D01*
X86804232Y-102286635D01*
X86804232Y-102286633D01*
X86803542Y-102280072D01*
X86776221Y-102195988D01*
X86759146Y-102143436D01*
X86757118Y-102072469D01*
X86793781Y-102011671D01*
X86857493Y-101980345D01*
X86878979Y-101978500D01*
X88540631Y-101978500D01*
X88608752Y-101998502D01*
X88655245Y-102052158D01*
X88665349Y-102122432D01*
X88662266Y-102134460D01*
X88662856Y-102134600D01*
X88661029Y-102142284D01*
X88658255Y-102149684D01*
X88651500Y-102211866D01*
X88651500Y-102625500D01*
X88631498Y-102693621D01*
X88577842Y-102740114D01*
X88525500Y-102751500D01*
X87561866Y-102751500D01*
X87499684Y-102758255D01*
X87363295Y-102809385D01*
X87246739Y-102896739D01*
X87159385Y-103013295D01*
X87108255Y-103149684D01*
X87101500Y-103211866D01*
X87101500Y-104108134D01*
X87108255Y-104170316D01*
X87159385Y-104306705D01*
X87246739Y-104423261D01*
X87363295Y-104510615D01*
X87499684Y-104561745D01*
X87561866Y-104568500D01*
X88190500Y-104568500D01*
X88258621Y-104588502D01*
X88305114Y-104642158D01*
X88316500Y-104694500D01*
X88316500Y-104835500D01*
X88296498Y-104903621D01*
X88242842Y-104950114D01*
X88190500Y-104961500D01*
X87561866Y-104961500D01*
X87499684Y-104968255D01*
X87363295Y-105019385D01*
X87246739Y-105106739D01*
X87159385Y-105223295D01*
X87108255Y-105359684D01*
X87101500Y-105421866D01*
X87101500Y-106318134D01*
X87108255Y-106380316D01*
X87159385Y-106516705D01*
X87246739Y-106633261D01*
X87363295Y-106720615D01*
X87499684Y-106771745D01*
X87561866Y-106778500D01*
X88658134Y-106778500D01*
X88720316Y-106771745D01*
X88856705Y-106720615D01*
X88973261Y-106633261D01*
X89060615Y-106516705D01*
X89062896Y-106510621D01*
X89112273Y-106461355D01*
X89181664Y-106446342D01*
X89236673Y-106463558D01*
X89238693Y-106464753D01*
X89244959Y-106469613D01*
X89285543Y-106487176D01*
X89296173Y-106492383D01*
X89334940Y-106513695D01*
X89342617Y-106515666D01*
X89342622Y-106515668D01*
X89354558Y-106518732D01*
X89373266Y-106525137D01*
X89391855Y-106533181D01*
X89399680Y-106534420D01*
X89399682Y-106534421D01*
X89435519Y-106540097D01*
X89447140Y-106542504D01*
X89478959Y-106550673D01*
X89489970Y-106553500D01*
X89510231Y-106553500D01*
X89529940Y-106555051D01*
X89549943Y-106558219D01*
X89557835Y-106557473D01*
X89563062Y-106556979D01*
X89593954Y-106554059D01*
X89605811Y-106553500D01*
X93691233Y-106553500D01*
X93702416Y-106554027D01*
X93709909Y-106555702D01*
X93717835Y-106555453D01*
X93717836Y-106555453D01*
X93777986Y-106553562D01*
X93781945Y-106553500D01*
X93809856Y-106553500D01*
X93813791Y-106553003D01*
X93813856Y-106552995D01*
X93825693Y-106552062D01*
X93857951Y-106551048D01*
X93861970Y-106550922D01*
X93869889Y-106550673D01*
X93889343Y-106545021D01*
X93908700Y-106541013D01*
X93920930Y-106539468D01*
X93920931Y-106539468D01*
X93928797Y-106538474D01*
X93936168Y-106535555D01*
X93936170Y-106535555D01*
X93969912Y-106522196D01*
X93981142Y-106518351D01*
X94015983Y-106508229D01*
X94015984Y-106508229D01*
X94023593Y-106506018D01*
X94030412Y-106501985D01*
X94030417Y-106501983D01*
X94041028Y-106495707D01*
X94058776Y-106487012D01*
X94077617Y-106479552D01*
X94102664Y-106461355D01*
X94113387Y-106453564D01*
X94123307Y-106447048D01*
X94154535Y-106428580D01*
X94154538Y-106428578D01*
X94161362Y-106424542D01*
X94175683Y-106410221D01*
X94190717Y-106397380D01*
X94200694Y-106390131D01*
X94207107Y-106385472D01*
X94212159Y-106379366D01*
X94217941Y-106373936D01*
X94220042Y-106376174D01*
X94266980Y-106344458D01*
X94337958Y-106342824D01*
X94398552Y-106379822D01*
X94423235Y-106420276D01*
X94456207Y-106508229D01*
X94459385Y-106516705D01*
X94546739Y-106633261D01*
X94663295Y-106720615D01*
X94799684Y-106771745D01*
X94861866Y-106778500D01*
X95958134Y-106778500D01*
X96020316Y-106771745D01*
X96156705Y-106720615D01*
X96273261Y-106633261D01*
X96360615Y-106516705D01*
X96411745Y-106380316D01*
X96418500Y-106318134D01*
X96418500Y-105639500D01*
X96438502Y-105571379D01*
X96492158Y-105524886D01*
X96544500Y-105513500D01*
X97311233Y-105513500D01*
X97322416Y-105514027D01*
X97329909Y-105515702D01*
X97337835Y-105515453D01*
X97337836Y-105515453D01*
X97397986Y-105513562D01*
X97401945Y-105513500D01*
X97429856Y-105513500D01*
X97433791Y-105513003D01*
X97433856Y-105512995D01*
X97445693Y-105512062D01*
X97477951Y-105511048D01*
X97481970Y-105510922D01*
X97489889Y-105510673D01*
X97509343Y-105505021D01*
X97528700Y-105501013D01*
X97540930Y-105499468D01*
X97540931Y-105499468D01*
X97548797Y-105498474D01*
X97556168Y-105495555D01*
X97556170Y-105495555D01*
X97589912Y-105482196D01*
X97601142Y-105478351D01*
X97635983Y-105468229D01*
X97635984Y-105468229D01*
X97643593Y-105466018D01*
X97650412Y-105461985D01*
X97650417Y-105461983D01*
X97661028Y-105455707D01*
X97678776Y-105447012D01*
X97697617Y-105439552D01*
X97715464Y-105426586D01*
X97733387Y-105413564D01*
X97743307Y-105407048D01*
X97774535Y-105388580D01*
X97774538Y-105388578D01*
X97781362Y-105384542D01*
X97795683Y-105370221D01*
X97810717Y-105357380D01*
X97827107Y-105345472D01*
X97855298Y-105311395D01*
X97863288Y-105302616D01*
X98262247Y-104903657D01*
X98270537Y-104896113D01*
X98277018Y-104892000D01*
X98323659Y-104842332D01*
X98326413Y-104839491D01*
X98346135Y-104819769D01*
X98348612Y-104816576D01*
X98356317Y-104807555D01*
X98381159Y-104781100D01*
X98386586Y-104775321D01*
X98391532Y-104766324D01*
X98396346Y-104757568D01*
X98407202Y-104741041D01*
X98414757Y-104731302D01*
X98414758Y-104731300D01*
X98419614Y-104725040D01*
X98437174Y-104684460D01*
X98442391Y-104673812D01*
X98459875Y-104642009D01*
X98459876Y-104642007D01*
X98463695Y-104635060D01*
X98466893Y-104622607D01*
X98468733Y-104615438D01*
X98475137Y-104596734D01*
X98480033Y-104585420D01*
X98480033Y-104585419D01*
X98483181Y-104578145D01*
X98484420Y-104570322D01*
X98484423Y-104570312D01*
X98490099Y-104534476D01*
X98492505Y-104522856D01*
X98501528Y-104487711D01*
X98501528Y-104487710D01*
X98503500Y-104480030D01*
X98503500Y-104459776D01*
X98505051Y-104440065D01*
X98506980Y-104427886D01*
X98508220Y-104420057D01*
X98504059Y-104376038D01*
X98503500Y-104364181D01*
X98503500Y-99891566D01*
X98523502Y-99823445D01*
X98563665Y-99784133D01*
X98755202Y-99666759D01*
X98755208Y-99666755D01*
X98759416Y-99664176D01*
X98920684Y-99526440D01*
X98936213Y-99513177D01*
X98939969Y-99509969D01*
X99094176Y-99329416D01*
X99096755Y-99325208D01*
X99096759Y-99325202D01*
X99215654Y-99131183D01*
X99218240Y-99126963D01*
X99229439Y-99099928D01*
X99307211Y-98912167D01*
X99307212Y-98912165D01*
X99309105Y-98907594D01*
X99348607Y-98743056D01*
X99363380Y-98681524D01*
X99363381Y-98681518D01*
X99364535Y-98676711D01*
X99383165Y-98440000D01*
X99364535Y-98203289D01*
X99363341Y-98198312D01*
X99310260Y-97977218D01*
X99309105Y-97972406D01*
X99290606Y-97927744D01*
X99220135Y-97757611D01*
X99220133Y-97757607D01*
X99218240Y-97753037D01*
X99188178Y-97703981D01*
X99096759Y-97554798D01*
X99096755Y-97554792D01*
X99094176Y-97550584D01*
X98950596Y-97382474D01*
X98943177Y-97373787D01*
X98939969Y-97370031D01*
X98759416Y-97215824D01*
X98755208Y-97213245D01*
X98755202Y-97213241D01*
X98561183Y-97094346D01*
X98556963Y-97091760D01*
X98552393Y-97089867D01*
X98552389Y-97089865D01*
X98342167Y-97002789D01*
X98342165Y-97002788D01*
X98337594Y-97000895D01*
X98257391Y-96981640D01*
X98111524Y-96946620D01*
X98111518Y-96946619D01*
X98106711Y-96945465D01*
X97870000Y-96926835D01*
X97633289Y-96945465D01*
X97628482Y-96946619D01*
X97628476Y-96946620D01*
X97482609Y-96981640D01*
X97402406Y-97000895D01*
X97397835Y-97002788D01*
X97397833Y-97002789D01*
X97187611Y-97089865D01*
X97187607Y-97089867D01*
X97183037Y-97091760D01*
X97178817Y-97094346D01*
X96984798Y-97213241D01*
X96984792Y-97213245D01*
X96980584Y-97215824D01*
X96976822Y-97219037D01*
X96976818Y-97219040D01*
X96841330Y-97334757D01*
X96776541Y-97363788D01*
X96706341Y-97353183D01*
X96653018Y-97306308D01*
X96633500Y-97238946D01*
X96633500Y-96809594D01*
X96653502Y-96741473D01*
X96670405Y-96720499D01*
X97291540Y-96099364D01*
X97353852Y-96065338D01*
X97410049Y-96065940D01*
X97628476Y-96118380D01*
X97628482Y-96118381D01*
X97633289Y-96119535D01*
X97870000Y-96138165D01*
X98106711Y-96119535D01*
X98111518Y-96118381D01*
X98111524Y-96118380D01*
X98276043Y-96078882D01*
X98337594Y-96064105D01*
X98343427Y-96061689D01*
X98552389Y-95975135D01*
X98552393Y-95975133D01*
X98556963Y-95973240D01*
X98645879Y-95918752D01*
X98755202Y-95851759D01*
X98755208Y-95851755D01*
X98759416Y-95849176D01*
X98939969Y-95694969D01*
X99094176Y-95514416D01*
X99096755Y-95510208D01*
X99096759Y-95510202D01*
X99215654Y-95316183D01*
X99218240Y-95311963D01*
X99243368Y-95251300D01*
X99307211Y-95097167D01*
X99307212Y-95097165D01*
X99309105Y-95092594D01*
X99341298Y-94958500D01*
X99363380Y-94866524D01*
X99363381Y-94866518D01*
X99364535Y-94861711D01*
X99383165Y-94625000D01*
X99364535Y-94388289D01*
X99358466Y-94363006D01*
X99320330Y-94204163D01*
X99309105Y-94157406D01*
X99278858Y-94084383D01*
X99220135Y-93942611D01*
X99220133Y-93942607D01*
X99218240Y-93938037D01*
X99211170Y-93926500D01*
X99096759Y-93739798D01*
X99096755Y-93739792D01*
X99094176Y-93735584D01*
X98960968Y-93579618D01*
X98943177Y-93558787D01*
X98939969Y-93555031D01*
X98759416Y-93400824D01*
X98755208Y-93398245D01*
X98755202Y-93398241D01*
X98561183Y-93279346D01*
X98556963Y-93276760D01*
X98552393Y-93274867D01*
X98552389Y-93274865D01*
X98342167Y-93187789D01*
X98342165Y-93187788D01*
X98337594Y-93185895D01*
X98238364Y-93162072D01*
X98111524Y-93131620D01*
X98111518Y-93131619D01*
X98106711Y-93130465D01*
X97870000Y-93111835D01*
X97633289Y-93130465D01*
X97628482Y-93131619D01*
X97628476Y-93131620D01*
X97501636Y-93162072D01*
X97402406Y-93185895D01*
X97397835Y-93187788D01*
X97397833Y-93187789D01*
X97187611Y-93274865D01*
X97187607Y-93274867D01*
X97183037Y-93276760D01*
X97178817Y-93279346D01*
X96984798Y-93398241D01*
X96984792Y-93398245D01*
X96980584Y-93400824D01*
X96800031Y-93555031D01*
X96796823Y-93558787D01*
X96779032Y-93579618D01*
X96645824Y-93735584D01*
X96643245Y-93739792D01*
X96643241Y-93739798D01*
X96528830Y-93926500D01*
X96521760Y-93938037D01*
X96519867Y-93942607D01*
X96519865Y-93942611D01*
X96461142Y-94084383D01*
X96430895Y-94157406D01*
X96419670Y-94204163D01*
X96381535Y-94363006D01*
X96375465Y-94388289D01*
X96356835Y-94625000D01*
X96375465Y-94861711D01*
X96376619Y-94866518D01*
X96376620Y-94866524D01*
X96429060Y-95084950D01*
X96425513Y-95155858D01*
X96395636Y-95203459D01*
X95607747Y-95991348D01*
X95599461Y-95998888D01*
X95592982Y-96003000D01*
X95587557Y-96008777D01*
X95546357Y-96052651D01*
X95543602Y-96055493D01*
X95523865Y-96075230D01*
X95521385Y-96078427D01*
X95513682Y-96087447D01*
X95483414Y-96119679D01*
X95479595Y-96126625D01*
X95479593Y-96126628D01*
X95473652Y-96137434D01*
X95462801Y-96153953D01*
X95450386Y-96169959D01*
X95447241Y-96177228D01*
X95447238Y-96177232D01*
X95432826Y-96210537D01*
X95427609Y-96221187D01*
X95406305Y-96259940D01*
X95404334Y-96267615D01*
X95404334Y-96267616D01*
X95401267Y-96279562D01*
X95394863Y-96298266D01*
X95386819Y-96316855D01*
X95385580Y-96324678D01*
X95385577Y-96324688D01*
X95379901Y-96360524D01*
X95377495Y-96372144D01*
X95368472Y-96407289D01*
X95366500Y-96414970D01*
X95366500Y-96435224D01*
X95364949Y-96454934D01*
X95361780Y-96474943D01*
X95362526Y-96482835D01*
X95365941Y-96518961D01*
X95366500Y-96530819D01*
X95366500Y-97247487D01*
X95346498Y-97315608D01*
X95292842Y-97362101D01*
X95222568Y-97372205D01*
X95158670Y-97343298D01*
X95013182Y-97219039D01*
X95013170Y-97219031D01*
X95009416Y-97215824D01*
X95005208Y-97213245D01*
X95005202Y-97213241D01*
X94811183Y-97094346D01*
X94806963Y-97091760D01*
X94802393Y-97089867D01*
X94802389Y-97089865D01*
X94592167Y-97002789D01*
X94592165Y-97002788D01*
X94587594Y-97000895D01*
X94507391Y-96981640D01*
X94361524Y-96946620D01*
X94361518Y-96946619D01*
X94356711Y-96945465D01*
X94120000Y-96926835D01*
X93883289Y-96945465D01*
X93878475Y-96946621D01*
X93878467Y-96946622D01*
X93793276Y-96967075D01*
X93722368Y-96963529D01*
X93664634Y-96922210D01*
X93638551Y-96857728D01*
X93634232Y-96816635D01*
X93634232Y-96816633D01*
X93633542Y-96810072D01*
X93574527Y-96628444D01*
X93566731Y-96614940D01*
X93518163Y-96530819D01*
X93479040Y-96463056D01*
X93460486Y-96442449D01*
X93355675Y-96326045D01*
X93355674Y-96326044D01*
X93351253Y-96321134D01*
X93252157Y-96249136D01*
X93202094Y-96212763D01*
X93202093Y-96212762D01*
X93196752Y-96208882D01*
X93190724Y-96206198D01*
X93190722Y-96206197D01*
X93028319Y-96133891D01*
X93028318Y-96133891D01*
X93022288Y-96131206D01*
X92921624Y-96109809D01*
X92841944Y-96092872D01*
X92841939Y-96092872D01*
X92835487Y-96091500D01*
X92644513Y-96091500D01*
X92638061Y-96092872D01*
X92638056Y-96092872D01*
X92558376Y-96109809D01*
X92457712Y-96131206D01*
X92451682Y-96133891D01*
X92451681Y-96133891D01*
X92289278Y-96206197D01*
X92289276Y-96206198D01*
X92283248Y-96208882D01*
X92277907Y-96212762D01*
X92277906Y-96212763D01*
X92218561Y-96255880D01*
X92151693Y-96279738D01*
X92082542Y-96263658D01*
X92033062Y-96212744D01*
X92018500Y-96153944D01*
X92018500Y-96141328D01*
X92038502Y-96073207D01*
X92055326Y-96052311D01*
X92066633Y-96040984D01*
X92071805Y-96035803D01*
X92079852Y-96022748D01*
X92160775Y-95891468D01*
X92160776Y-95891466D01*
X92164615Y-95885238D01*
X92206165Y-95759969D01*
X92218132Y-95723889D01*
X92218132Y-95723887D01*
X92220297Y-95717361D01*
X92231000Y-95612900D01*
X92231000Y-94740617D01*
X92251002Y-94672496D01*
X92304658Y-94626003D01*
X92330803Y-94617370D01*
X92505834Y-94580166D01*
X92505835Y-94580166D01*
X92512288Y-94578794D01*
X92518315Y-94576111D01*
X92522287Y-94574820D01*
X92593255Y-94572793D01*
X92654052Y-94609455D01*
X92685378Y-94673167D01*
X92686824Y-94690001D01*
X92686835Y-94690000D01*
X92705465Y-94926711D01*
X92706619Y-94931518D01*
X92706620Y-94931524D01*
X92720211Y-94988134D01*
X92760895Y-95157594D01*
X92762788Y-95162165D01*
X92762789Y-95162167D01*
X92832940Y-95331526D01*
X92851760Y-95376963D01*
X92854346Y-95381183D01*
X92973241Y-95575202D01*
X92973245Y-95575208D01*
X92975824Y-95579416D01*
X93031397Y-95644483D01*
X93118211Y-95746129D01*
X93130031Y-95759969D01*
X93310584Y-95914176D01*
X93314792Y-95916755D01*
X93314798Y-95916759D01*
X93487756Y-96022748D01*
X93513037Y-96038240D01*
X93517607Y-96040133D01*
X93517611Y-96040135D01*
X93726426Y-96126628D01*
X93732406Y-96129105D01*
X93783319Y-96141328D01*
X93958476Y-96183380D01*
X93958482Y-96183381D01*
X93963289Y-96184535D01*
X94200000Y-96203165D01*
X94436711Y-96184535D01*
X94441518Y-96183381D01*
X94441524Y-96183380D01*
X94616681Y-96141328D01*
X94667594Y-96129105D01*
X94673574Y-96126628D01*
X94882389Y-96040135D01*
X94882393Y-96040133D01*
X94886963Y-96038240D01*
X94912244Y-96022748D01*
X95085202Y-95916759D01*
X95085208Y-95916755D01*
X95089416Y-95914176D01*
X95269969Y-95759969D01*
X95281790Y-95746129D01*
X95368603Y-95644483D01*
X95424176Y-95579416D01*
X95426755Y-95575208D01*
X95426759Y-95575202D01*
X95545654Y-95381183D01*
X95548240Y-95376963D01*
X95567061Y-95331526D01*
X95637211Y-95162167D01*
X95637212Y-95162165D01*
X95639105Y-95157594D01*
X95679789Y-94988134D01*
X95693380Y-94931524D01*
X95693381Y-94931518D01*
X95694535Y-94926711D01*
X95713165Y-94690000D01*
X95694535Y-94453289D01*
X95692230Y-94443685D01*
X95646196Y-94251943D01*
X95639105Y-94222406D01*
X95631549Y-94204163D01*
X95550135Y-94007611D01*
X95550133Y-94007607D01*
X95548240Y-94003037D01*
X95528231Y-93970385D01*
X95426759Y-93804798D01*
X95426755Y-93804792D01*
X95424176Y-93800584D01*
X95269969Y-93620031D01*
X95258247Y-93610019D01*
X95211874Y-93570413D01*
X95089416Y-93465824D01*
X95085208Y-93463245D01*
X95085202Y-93463241D01*
X94891183Y-93344346D01*
X94886963Y-93341760D01*
X94882393Y-93339867D01*
X94882389Y-93339865D01*
X94672167Y-93252789D01*
X94672165Y-93252788D01*
X94667594Y-93250895D01*
X94570976Y-93227699D01*
X94441524Y-93196620D01*
X94441518Y-93196619D01*
X94436711Y-93195465D01*
X94200000Y-93176835D01*
X93963289Y-93195465D01*
X93958482Y-93196619D01*
X93958476Y-93196620D01*
X93803341Y-93233865D01*
X93738088Y-93249531D01*
X93667180Y-93245984D01*
X93622422Y-93218863D01*
X93601101Y-93198841D01*
X93601097Y-93198838D01*
X93595321Y-93193414D01*
X93588375Y-93189595D01*
X93588372Y-93189593D01*
X93577566Y-93183652D01*
X93561047Y-93172801D01*
X93555248Y-93168303D01*
X93545041Y-93160386D01*
X93537772Y-93157241D01*
X93537768Y-93157238D01*
X93504463Y-93142826D01*
X93493813Y-93137609D01*
X93455060Y-93116305D01*
X93435437Y-93111267D01*
X93416734Y-93104863D01*
X93405420Y-93099967D01*
X93405419Y-93099967D01*
X93398145Y-93096819D01*
X93390322Y-93095580D01*
X93390312Y-93095577D01*
X93354476Y-93089901D01*
X93342856Y-93087495D01*
X93307711Y-93078472D01*
X93307710Y-93078472D01*
X93300030Y-93076500D01*
X93279776Y-93076500D01*
X93260065Y-93074949D01*
X93247886Y-93073020D01*
X93240057Y-93071780D01*
X93232165Y-93072526D01*
X93196039Y-93075941D01*
X93184181Y-93076500D01*
X92938200Y-93076500D01*
X92870079Y-93056498D01*
X92850853Y-93040157D01*
X92850580Y-93040460D01*
X92845668Y-93036037D01*
X92841253Y-93031134D01*
X92702009Y-92929967D01*
X92692094Y-92922763D01*
X92692093Y-92922762D01*
X92686752Y-92918882D01*
X92680724Y-92916198D01*
X92680722Y-92916197D01*
X92518319Y-92843891D01*
X92518318Y-92843891D01*
X92512288Y-92841206D01*
X92418888Y-92821353D01*
X92331944Y-92802872D01*
X92331939Y-92802872D01*
X92325487Y-92801500D01*
X92144500Y-92801500D01*
X92076379Y-92781498D01*
X92029886Y-92727842D01*
X92018500Y-92675500D01*
X92018500Y-92673828D01*
X92038502Y-92605707D01*
X92055326Y-92584811D01*
X92066633Y-92573484D01*
X92071805Y-92568303D01*
X92075646Y-92562072D01*
X92160775Y-92423968D01*
X92160776Y-92423966D01*
X92164615Y-92417738D01*
X92195872Y-92323500D01*
X92218132Y-92256389D01*
X92218132Y-92256387D01*
X92220297Y-92249861D01*
X92231000Y-92145400D01*
X92231000Y-91774500D01*
X92251002Y-91706379D01*
X92304658Y-91659886D01*
X92357000Y-91648500D01*
X92855676Y-91648500D01*
X92923797Y-91668502D01*
X92963107Y-91708664D01*
X92975824Y-91729416D01*
X93130031Y-91909969D01*
X93310584Y-92064176D01*
X93314792Y-92066755D01*
X93314798Y-92066759D01*
X93448347Y-92148598D01*
X93513037Y-92188240D01*
X93517607Y-92190133D01*
X93517611Y-92190135D01*
X93661804Y-92249861D01*
X93732406Y-92279105D01*
X93812609Y-92298360D01*
X93958476Y-92333380D01*
X93958482Y-92333381D01*
X93963289Y-92334535D01*
X94200000Y-92353165D01*
X94436711Y-92334535D01*
X94441518Y-92333381D01*
X94441524Y-92333380D01*
X94587391Y-92298360D01*
X94667594Y-92279105D01*
X94738196Y-92249861D01*
X94882389Y-92190135D01*
X94882393Y-92190133D01*
X94886963Y-92188240D01*
X94951653Y-92148598D01*
X95085202Y-92066759D01*
X95085208Y-92066755D01*
X95089416Y-92064176D01*
X95114596Y-92042670D01*
X97002160Y-92042670D01*
X97007887Y-92050320D01*
X97179042Y-92155205D01*
X97187837Y-92159687D01*
X97397988Y-92246734D01*
X97407373Y-92249783D01*
X97628554Y-92302885D01*
X97638301Y-92304428D01*
X97865070Y-92322275D01*
X97874930Y-92322275D01*
X98101699Y-92304428D01*
X98111446Y-92302885D01*
X98332627Y-92249783D01*
X98342012Y-92246734D01*
X98552163Y-92159687D01*
X98560958Y-92155205D01*
X98728445Y-92052568D01*
X98737907Y-92042110D01*
X98734124Y-92033334D01*
X97882812Y-91182022D01*
X97868868Y-91174408D01*
X97867035Y-91174539D01*
X97860420Y-91178790D01*
X97008920Y-92030290D01*
X97002160Y-92042670D01*
X95114596Y-92042670D01*
X95269969Y-91909969D01*
X95424176Y-91729416D01*
X95426755Y-91725208D01*
X95426759Y-91725202D01*
X95545654Y-91531183D01*
X95548240Y-91526963D01*
X95552138Y-91517554D01*
X95637211Y-91312167D01*
X95637212Y-91312165D01*
X95639105Y-91307594D01*
X95670513Y-91176771D01*
X95693380Y-91081524D01*
X95693381Y-91081518D01*
X95694535Y-91076711D01*
X95713165Y-90840000D01*
X95711192Y-90814930D01*
X96357725Y-90814930D01*
X96375572Y-91041699D01*
X96377115Y-91051446D01*
X96430217Y-91272627D01*
X96433266Y-91282012D01*
X96520313Y-91492163D01*
X96524795Y-91500958D01*
X96627432Y-91668445D01*
X96637890Y-91677907D01*
X96646666Y-91674124D01*
X97497978Y-90822812D01*
X97504356Y-90811132D01*
X98234408Y-90811132D01*
X98234539Y-90812965D01*
X98238790Y-90819580D01*
X99090290Y-91671080D01*
X99102670Y-91677840D01*
X99110320Y-91672113D01*
X99215205Y-91500958D01*
X99219687Y-91492163D01*
X99306734Y-91282012D01*
X99309783Y-91272627D01*
X99362885Y-91051446D01*
X99364428Y-91041699D01*
X99382275Y-90814930D01*
X99382275Y-90805070D01*
X99364428Y-90578301D01*
X99362885Y-90568554D01*
X99309783Y-90347373D01*
X99306734Y-90337988D01*
X99219687Y-90127837D01*
X99215205Y-90119042D01*
X99112568Y-89951555D01*
X99102110Y-89942093D01*
X99093334Y-89945876D01*
X98242022Y-90797188D01*
X98234408Y-90811132D01*
X97504356Y-90811132D01*
X97505592Y-90808868D01*
X97505461Y-90807035D01*
X97501210Y-90800420D01*
X96649710Y-89948920D01*
X96637330Y-89942160D01*
X96629680Y-89947887D01*
X96524795Y-90119042D01*
X96520313Y-90127837D01*
X96433266Y-90337988D01*
X96430217Y-90347373D01*
X96377115Y-90568554D01*
X96375572Y-90578301D01*
X96357725Y-90805070D01*
X96357725Y-90814930D01*
X95711192Y-90814930D01*
X95694535Y-90603289D01*
X95639105Y-90372406D01*
X95548240Y-90153037D01*
X95466081Y-90018966D01*
X95426759Y-89954798D01*
X95426755Y-89954792D01*
X95424176Y-89950584D01*
X95269969Y-89770031D01*
X95089416Y-89615824D01*
X95085208Y-89613245D01*
X95085202Y-89613241D01*
X95027514Y-89577890D01*
X97002093Y-89577890D01*
X97005876Y-89586666D01*
X97857188Y-90437978D01*
X97871132Y-90445592D01*
X97872965Y-90445461D01*
X97879580Y-90441210D01*
X98731080Y-89589710D01*
X98737840Y-89577330D01*
X98732113Y-89569680D01*
X98560958Y-89464795D01*
X98552163Y-89460313D01*
X98342012Y-89373266D01*
X98332627Y-89370217D01*
X98111446Y-89317115D01*
X98101699Y-89315572D01*
X97874930Y-89297725D01*
X97865070Y-89297725D01*
X97638301Y-89315572D01*
X97628554Y-89317115D01*
X97407373Y-89370217D01*
X97397988Y-89373266D01*
X97187837Y-89460313D01*
X97179042Y-89464795D01*
X97011555Y-89567432D01*
X97002093Y-89577890D01*
X95027514Y-89577890D01*
X94891183Y-89494346D01*
X94886963Y-89491760D01*
X94882393Y-89489867D01*
X94882389Y-89489865D01*
X94672167Y-89402789D01*
X94672165Y-89402788D01*
X94667594Y-89400895D01*
X94539811Y-89370217D01*
X94441524Y-89346620D01*
X94441518Y-89346619D01*
X94436711Y-89345465D01*
X94200000Y-89326835D01*
X93963289Y-89345465D01*
X93958482Y-89346619D01*
X93958476Y-89346620D01*
X93860189Y-89370217D01*
X93732406Y-89400895D01*
X93727835Y-89402788D01*
X93727833Y-89402789D01*
X93517611Y-89489865D01*
X93517607Y-89489867D01*
X93513037Y-89491760D01*
X93508817Y-89494346D01*
X93314798Y-89613241D01*
X93314792Y-89613245D01*
X93310584Y-89615824D01*
X93130031Y-89770031D01*
X92975824Y-89950584D01*
X92963107Y-89971336D01*
X92910462Y-90018966D01*
X92855676Y-90031500D01*
X91837189Y-90031500D01*
X91769068Y-90011498D01*
X91758236Y-90003696D01*
X91757690Y-90003257D01*
X91752303Y-89998424D01*
X91749815Y-89995918D01*
X91748775Y-89995258D01*
X91747547Y-89994156D01*
X91048188Y-89294796D01*
X91047261Y-89293859D01*
X90989157Y-89234525D01*
X90989156Y-89234524D01*
X90984229Y-89229493D01*
X90947779Y-89206002D01*
X90937442Y-89198574D01*
X90917271Y-89182472D01*
X90876512Y-89124341D01*
X90873651Y-89053403D01*
X90909596Y-88992178D01*
X90972936Y-88960106D01*
X90995879Y-88958000D01*
X99536000Y-88958000D01*
X99604121Y-88978002D01*
X99650614Y-89031658D01*
X99662000Y-89084000D01*
X99662000Y-107306000D01*
X99641998Y-107374121D01*
X99588342Y-107420614D01*
X99536000Y-107432000D01*
X63564000Y-107432000D01*
X63495879Y-107411998D01*
X63449386Y-107358342D01*
X63438000Y-107306000D01*
X63438000Y-101125768D01*
X65187425Y-101125768D01*
X65219138Y-101233521D01*
X65223731Y-101244889D01*
X65309607Y-101409154D01*
X65316321Y-101419415D01*
X65432468Y-101563873D01*
X65441046Y-101572632D01*
X65583039Y-101691778D01*
X65593159Y-101698708D01*
X65755585Y-101788002D01*
X65766858Y-101792834D01*
X65943538Y-101848880D01*
X65955532Y-101851430D01*
X66099761Y-101867607D01*
X66106785Y-101868000D01*
X66187885Y-101868000D01*
X66203124Y-101863525D01*
X66204329Y-101862135D01*
X66206000Y-101854452D01*
X66206000Y-101132115D01*
X66201525Y-101116876D01*
X66200135Y-101115671D01*
X66192452Y-101114000D01*
X65202076Y-101114000D01*
X65188545Y-101117973D01*
X65187425Y-101125768D01*
X63438000Y-101125768D01*
X63438000Y-100602795D01*
X65188544Y-100602795D01*
X65195299Y-100606000D01*
X66187885Y-100606000D01*
X66203124Y-100601525D01*
X66204329Y-100600135D01*
X66206000Y-100592452D01*
X66206000Y-99870115D01*
X66201525Y-99854876D01*
X66200135Y-99853671D01*
X66192452Y-99852000D01*
X66113343Y-99852000D01*
X66107195Y-99852301D01*
X65969397Y-99865812D01*
X65957362Y-99868195D01*
X65779924Y-99921767D01*
X65768584Y-99926441D01*
X65604923Y-100013460D01*
X65594706Y-100020249D01*
X65451067Y-100137397D01*
X65442363Y-100146041D01*
X65324216Y-100288856D01*
X65317356Y-100299027D01*
X65229196Y-100462076D01*
X65224444Y-100473381D01*
X65188750Y-100588692D01*
X65188544Y-100602795D01*
X63438000Y-100602795D01*
X63438000Y-92485768D01*
X65187425Y-92485768D01*
X65219138Y-92593521D01*
X65223731Y-92604889D01*
X65309607Y-92769154D01*
X65316321Y-92779415D01*
X65432468Y-92923873D01*
X65441046Y-92932632D01*
X65583039Y-93051778D01*
X65593159Y-93058708D01*
X65755585Y-93148002D01*
X65766858Y-93152834D01*
X65943538Y-93208880D01*
X65955532Y-93211430D01*
X66099761Y-93227607D01*
X66106785Y-93228000D01*
X66187885Y-93228000D01*
X66203124Y-93223525D01*
X66204329Y-93222135D01*
X66206000Y-93214452D01*
X66206000Y-93209885D01*
X66714000Y-93209885D01*
X66718475Y-93225124D01*
X66719865Y-93226329D01*
X66727548Y-93228000D01*
X66806657Y-93228000D01*
X66812805Y-93227699D01*
X66950603Y-93214188D01*
X66962638Y-93211805D01*
X67140076Y-93158233D01*
X67151416Y-93153559D01*
X67315077Y-93066540D01*
X67325294Y-93059751D01*
X67468933Y-92942603D01*
X67477637Y-92933959D01*
X67595784Y-92791144D01*
X67602644Y-92780973D01*
X67690804Y-92617924D01*
X67695556Y-92606619D01*
X67731250Y-92491308D01*
X67731456Y-92477205D01*
X67724701Y-92474000D01*
X66732115Y-92474000D01*
X66716876Y-92478475D01*
X66715671Y-92479865D01*
X66714000Y-92487548D01*
X66714000Y-93209885D01*
X66206000Y-93209885D01*
X66206000Y-92492115D01*
X66201525Y-92476876D01*
X66200135Y-92475671D01*
X66192452Y-92474000D01*
X65202076Y-92474000D01*
X65188545Y-92477973D01*
X65187425Y-92485768D01*
X63438000Y-92485768D01*
X63438000Y-91962795D01*
X65188544Y-91962795D01*
X65195299Y-91966000D01*
X66187885Y-91966000D01*
X66203124Y-91961525D01*
X66204329Y-91960135D01*
X66206000Y-91952452D01*
X66206000Y-91947885D01*
X66714000Y-91947885D01*
X66718475Y-91963124D01*
X66719865Y-91964329D01*
X66727548Y-91966000D01*
X67717924Y-91966000D01*
X67728839Y-91962795D01*
X69118544Y-91962795D01*
X69125299Y-91966000D01*
X70367885Y-91966000D01*
X70383124Y-91961525D01*
X70384329Y-91960135D01*
X70386000Y-91952452D01*
X70386000Y-91947885D01*
X70894000Y-91947885D01*
X70898475Y-91963124D01*
X70899865Y-91964329D01*
X70907548Y-91966000D01*
X72147924Y-91966000D01*
X72161455Y-91962027D01*
X72162575Y-91954232D01*
X72130862Y-91846479D01*
X72126269Y-91835111D01*
X72040393Y-91670846D01*
X72033679Y-91660585D01*
X71917532Y-91516127D01*
X71908954Y-91507368D01*
X71766961Y-91388222D01*
X71756841Y-91381292D01*
X71594415Y-91291998D01*
X71583142Y-91287166D01*
X71406462Y-91231120D01*
X71394468Y-91228570D01*
X71250239Y-91212393D01*
X71243215Y-91212000D01*
X70912115Y-91212000D01*
X70896876Y-91216475D01*
X70895671Y-91217865D01*
X70894000Y-91225548D01*
X70894000Y-91947885D01*
X70386000Y-91947885D01*
X70386000Y-91230115D01*
X70381525Y-91214876D01*
X70380135Y-91213671D01*
X70372452Y-91212000D01*
X70043343Y-91212000D01*
X70037195Y-91212301D01*
X69899397Y-91225812D01*
X69887362Y-91228195D01*
X69709924Y-91281767D01*
X69698584Y-91286441D01*
X69534923Y-91373460D01*
X69524706Y-91380249D01*
X69381067Y-91497397D01*
X69372363Y-91506041D01*
X69254216Y-91648856D01*
X69247356Y-91659027D01*
X69159196Y-91822076D01*
X69154444Y-91833381D01*
X69118750Y-91948692D01*
X69118544Y-91962795D01*
X67728839Y-91962795D01*
X67731455Y-91962027D01*
X67732575Y-91954232D01*
X67700862Y-91846479D01*
X67696269Y-91835111D01*
X67610393Y-91670846D01*
X67603679Y-91660585D01*
X67487532Y-91516127D01*
X67478954Y-91507368D01*
X67336961Y-91388222D01*
X67326841Y-91381292D01*
X67164415Y-91291998D01*
X67153142Y-91287166D01*
X66976462Y-91231120D01*
X66964468Y-91228570D01*
X66820239Y-91212393D01*
X66813215Y-91212000D01*
X66732115Y-91212000D01*
X66716876Y-91216475D01*
X66715671Y-91217865D01*
X66714000Y-91225548D01*
X66714000Y-91947885D01*
X66206000Y-91947885D01*
X66206000Y-91230115D01*
X66201525Y-91214876D01*
X66200135Y-91213671D01*
X66192452Y-91212000D01*
X66113343Y-91212000D01*
X66107195Y-91212301D01*
X65969397Y-91225812D01*
X65957362Y-91228195D01*
X65779924Y-91281767D01*
X65768584Y-91286441D01*
X65604923Y-91373460D01*
X65594706Y-91380249D01*
X65451067Y-91497397D01*
X65442363Y-91506041D01*
X65324216Y-91648856D01*
X65317356Y-91659027D01*
X65229196Y-91822076D01*
X65224444Y-91833381D01*
X65188750Y-91948692D01*
X65188544Y-91962795D01*
X63438000Y-91962795D01*
X63438000Y-89084000D01*
X63458002Y-89015879D01*
X63511658Y-88969386D01*
X63564000Y-88958000D01*
X80055638Y-88958000D01*
X80123759Y-88978002D01*
G37*
%TD.AperFunction*%
%TA.AperFunction,Conductor*%
G36*
X78244685Y-96679336D02*
G01*
X78255892Y-96689284D01*
X79014595Y-97447987D01*
X79048621Y-97510299D01*
X79051500Y-97537082D01*
X79051500Y-98035839D01*
X79031498Y-98103960D01*
X78977842Y-98150453D01*
X78907568Y-98160557D01*
X78890348Y-98156836D01*
X78785011Y-98126233D01*
X78785007Y-98126232D01*
X78778831Y-98124438D01*
X78772426Y-98123934D01*
X78772421Y-98123933D01*
X78743958Y-98121693D01*
X78743950Y-98121693D01*
X78741502Y-98121500D01*
X78308498Y-98121500D01*
X78306050Y-98121693D01*
X78306042Y-98121693D01*
X78277579Y-98123933D01*
X78277574Y-98123934D01*
X78271169Y-98124438D01*
X78206858Y-98143122D01*
X78119012Y-98168643D01*
X78119010Y-98168644D01*
X78111399Y-98170855D01*
X77968193Y-98255547D01*
X77965253Y-98258487D01*
X77900729Y-98283821D01*
X77831106Y-98269920D01*
X77812360Y-98257871D01*
X77804677Y-98251911D01*
X77675221Y-98175352D01*
X77660790Y-98169107D01*
X77526395Y-98130061D01*
X77512294Y-98130101D01*
X77509000Y-98137370D01*
X77509000Y-101066878D01*
X77512973Y-101080409D01*
X77520871Y-101081544D01*
X77660790Y-101040893D01*
X77675221Y-101034648D01*
X77788172Y-100967850D01*
X77856989Y-100950391D01*
X77924320Y-100972908D01*
X77962629Y-101015496D01*
X77965448Y-101022617D01*
X77981115Y-101044181D01*
X77991436Y-101058387D01*
X77997952Y-101068307D01*
X78016069Y-101098940D01*
X78020458Y-101106362D01*
X78032878Y-101118782D01*
X78066904Y-101181094D01*
X78069092Y-101194703D01*
X78073172Y-101233521D01*
X78083045Y-101327451D01*
X78086458Y-101359928D01*
X78145473Y-101541556D01*
X78148776Y-101547278D01*
X78148777Y-101547279D01*
X78169305Y-101582835D01*
X78212414Y-101657500D01*
X78225404Y-101680000D01*
X78242142Y-101748995D01*
X78218922Y-101816087D01*
X78163115Y-101859974D01*
X78116285Y-101869000D01*
X77281266Y-101869000D01*
X77278020Y-101869337D01*
X77278016Y-101869337D01*
X77182358Y-101879262D01*
X77182354Y-101879263D01*
X77175500Y-101879974D01*
X77168964Y-101882155D01*
X77168962Y-101882155D01*
X77061049Y-101918158D01*
X77007720Y-101935950D01*
X76857318Y-102029022D01*
X76852145Y-102034204D01*
X76841849Y-102044518D01*
X76779567Y-102078597D01*
X76752676Y-102081500D01*
X76745542Y-102081500D01*
X76677421Y-102061498D01*
X76669929Y-102056151D01*
X76665653Y-102051883D01*
X76636254Y-102033761D01*
X76606875Y-102015652D01*
X76516329Y-101959839D01*
X76484661Y-101949335D01*
X76356366Y-101906781D01*
X76356364Y-101906781D01*
X76349835Y-101904615D01*
X76246231Y-101894000D01*
X75743904Y-101894000D01*
X75233770Y-101894001D01*
X75128871Y-101904884D01*
X75122340Y-101907063D01*
X75122335Y-101907064D01*
X75003538Y-101946698D01*
X74962474Y-101960398D01*
X74813311Y-102052703D01*
X74808138Y-102057885D01*
X74767650Y-102098444D01*
X74689383Y-102176847D01*
X74597339Y-102326171D01*
X74595034Y-102333119D01*
X74595034Y-102333120D01*
X74546882Y-102478294D01*
X74542115Y-102492665D01*
X74531500Y-102596269D01*
X74531501Y-103183730D01*
X74542384Y-103288629D01*
X74544563Y-103295160D01*
X74544564Y-103295165D01*
X74584923Y-103416135D01*
X74597898Y-103455026D01*
X74690203Y-103604189D01*
X74814347Y-103728117D01*
X74817270Y-103729919D01*
X74857408Y-103786529D01*
X74860642Y-103857452D01*
X74825018Y-103918864D01*
X74818623Y-103924416D01*
X74813311Y-103927703D01*
X74811120Y-103929898D01*
X74746917Y-103955883D01*
X74734465Y-103956500D01*
X74612082Y-103956500D01*
X74543961Y-103936498D01*
X74522987Y-103919595D01*
X73945405Y-103342013D01*
X73911379Y-103279701D01*
X73908500Y-103252918D01*
X73908500Y-101008950D01*
X73928502Y-100940829D01*
X73982158Y-100894336D01*
X74052432Y-100884232D01*
X74117012Y-100913726D01*
X74123595Y-100919855D01*
X74158193Y-100954453D01*
X74165016Y-100958488D01*
X74165020Y-100958491D01*
X74226015Y-100994563D01*
X74301399Y-101039145D01*
X74309010Y-101041356D01*
X74309012Y-101041357D01*
X74347825Y-101052633D01*
X74461169Y-101085562D01*
X74467574Y-101086066D01*
X74467579Y-101086067D01*
X74496042Y-101088307D01*
X74496050Y-101088307D01*
X74498498Y-101088500D01*
X74931502Y-101088500D01*
X74933950Y-101088307D01*
X74933958Y-101088307D01*
X74962421Y-101086067D01*
X74962426Y-101086066D01*
X74968831Y-101085562D01*
X75082175Y-101052633D01*
X75120988Y-101041357D01*
X75120990Y-101041356D01*
X75128601Y-101039145D01*
X75271807Y-100954453D01*
X75274489Y-100951771D01*
X75338861Y-100926498D01*
X75408484Y-100940400D01*
X75424312Y-100950572D01*
X75428193Y-100954453D01*
X75571399Y-101039145D01*
X75579010Y-101041356D01*
X75579012Y-101041357D01*
X75617825Y-101052633D01*
X75731169Y-101085562D01*
X75737574Y-101086066D01*
X75737579Y-101086067D01*
X75766042Y-101088307D01*
X75766050Y-101088307D01*
X75768498Y-101088500D01*
X76201502Y-101088500D01*
X76203950Y-101088307D01*
X76203958Y-101088307D01*
X76232421Y-101086067D01*
X76232426Y-101086066D01*
X76238831Y-101085562D01*
X76352175Y-101052633D01*
X76390988Y-101041357D01*
X76390990Y-101041356D01*
X76398601Y-101039145D01*
X76541807Y-100954453D01*
X76544747Y-100951513D01*
X76609271Y-100926179D01*
X76678894Y-100940080D01*
X76697640Y-100952129D01*
X76705323Y-100958089D01*
X76834779Y-101034648D01*
X76849210Y-101040893D01*
X76983605Y-101079939D01*
X76997706Y-101079899D01*
X77001000Y-101072630D01*
X77001000Y-98143122D01*
X76997027Y-98129591D01*
X76989129Y-98128456D01*
X76849210Y-98169107D01*
X76834779Y-98175352D01*
X76705324Y-98251910D01*
X76697636Y-98257874D01*
X76631551Y-98283821D01*
X76561928Y-98269920D01*
X76545842Y-98259582D01*
X76541807Y-98255547D01*
X76398601Y-98170855D01*
X76274349Y-98134757D01*
X76214513Y-98096545D01*
X76184835Y-98032049D01*
X76183501Y-98013760D01*
X76183501Y-97584937D01*
X76184579Y-97568491D01*
X76186652Y-97552749D01*
X76188751Y-97536801D01*
X76183501Y-97496921D01*
X76183501Y-97496916D01*
X76178717Y-97460578D01*
X76168917Y-97386140D01*
X76168916Y-97386138D01*
X76168482Y-97382838D01*
X76167839Y-97377950D01*
X76139414Y-97309325D01*
X76131825Y-97238738D01*
X76163604Y-97175251D01*
X76229626Y-97137862D01*
X76272288Y-97128794D01*
X76318296Y-97108310D01*
X76440722Y-97053803D01*
X76440724Y-97053802D01*
X76446752Y-97051118D01*
X76537178Y-96985420D01*
X76604042Y-96961563D01*
X76673194Y-96977643D01*
X76685294Y-96985419D01*
X76803248Y-97071118D01*
X76809276Y-97073802D01*
X76809278Y-97073803D01*
X76953158Y-97137862D01*
X76977712Y-97148794D01*
X77052045Y-97164594D01*
X77158056Y-97187128D01*
X77158061Y-97187128D01*
X77164513Y-97188500D01*
X77355487Y-97188500D01*
X77361939Y-97187128D01*
X77361944Y-97187128D01*
X77467955Y-97164594D01*
X77542288Y-97148794D01*
X77566842Y-97137862D01*
X77710722Y-97073803D01*
X77710724Y-97073802D01*
X77716752Y-97071118D01*
X77871253Y-96958866D01*
X77889978Y-96938070D01*
X77994621Y-96821852D01*
X77994622Y-96821851D01*
X77999040Y-96816944D01*
X78057680Y-96715378D01*
X78109060Y-96666386D01*
X78178774Y-96652949D01*
X78244685Y-96679336D01*
G37*
%TD.AperFunction*%
%TA.AperFunction,Conductor*%
G36*
X84481039Y-101618502D02*
G01*
X84502013Y-101635405D01*
X84601766Y-101735158D01*
X84602694Y-101736095D01*
X84665771Y-101800507D01*
X84702221Y-101823998D01*
X84712546Y-101831417D01*
X84746443Y-101858476D01*
X84752784Y-101861541D01*
X84752785Y-101861542D01*
X84776637Y-101873072D01*
X84790054Y-101880601D01*
X84818238Y-101898765D01*
X84824855Y-101901173D01*
X84824860Y-101901176D01*
X84858973Y-101913592D01*
X84870716Y-101918553D01*
X84903403Y-101934354D01*
X84903408Y-101934356D01*
X84909749Y-101937421D01*
X84916607Y-101939004D01*
X84916609Y-101939005D01*
X84942426Y-101944965D01*
X84957169Y-101949332D01*
X84988685Y-101960803D01*
X84988686Y-101960803D01*
X84987915Y-101962922D01*
X85040117Y-101993023D01*
X85072684Y-102056110D01*
X85068807Y-102118959D01*
X85039725Y-102208464D01*
X85016458Y-102280072D01*
X85015768Y-102286633D01*
X85015768Y-102286635D01*
X85013237Y-102310716D01*
X84996496Y-102470000D01*
X84997186Y-102476565D01*
X85012840Y-102625500D01*
X85016458Y-102659928D01*
X85075473Y-102841556D01*
X85084620Y-102857398D01*
X85101500Y-102920397D01*
X85101500Y-103312918D01*
X85081498Y-103381039D01*
X85064595Y-103402013D01*
X84707857Y-103758751D01*
X84645545Y-103792777D01*
X84574730Y-103787712D01*
X84517894Y-103745165D01*
X84493083Y-103678645D01*
X84508174Y-103609271D01*
X84513959Y-103600521D01*
X84513910Y-103600491D01*
X84602816Y-103456257D01*
X84608963Y-103443076D01*
X84660138Y-103288790D01*
X84663005Y-103275414D01*
X84672672Y-103181062D01*
X84673000Y-103174646D01*
X84673000Y-103149615D01*
X84668525Y-103134376D01*
X84667135Y-103133171D01*
X84659452Y-103131500D01*
X82225116Y-103131500D01*
X82209877Y-103135975D01*
X82208672Y-103137365D01*
X82207001Y-103145048D01*
X82207001Y-103174595D01*
X82207338Y-103181114D01*
X82217257Y-103276706D01*
X82220149Y-103290100D01*
X82271588Y-103444284D01*
X82277763Y-103457465D01*
X82284434Y-103468246D01*
X82303271Y-103536698D01*
X82282109Y-103604467D01*
X82227667Y-103650037D01*
X82157231Y-103658940D01*
X82113153Y-103643001D01*
X81986933Y-103568355D01*
X81979322Y-103566144D01*
X81979320Y-103566143D01*
X81906065Y-103544861D01*
X81827163Y-103521938D01*
X81820758Y-103521434D01*
X81820753Y-103521433D01*
X81792290Y-103519193D01*
X81792282Y-103519193D01*
X81789834Y-103519000D01*
X81557832Y-103519000D01*
X81489711Y-103498998D01*
X81443218Y-103445342D01*
X81431832Y-103393000D01*
X81431832Y-102904556D01*
X81431833Y-102904116D01*
X81432177Y-102805657D01*
X81432177Y-102805652D01*
X81432189Y-102802130D01*
X81431921Y-102800930D01*
X81431832Y-102799293D01*
X81431832Y-102605385D01*
X82207000Y-102605385D01*
X82211475Y-102620624D01*
X82212865Y-102621829D01*
X82220548Y-102623500D01*
X83167885Y-102623500D01*
X83183124Y-102619025D01*
X83184329Y-102617635D01*
X83186000Y-102609952D01*
X83186000Y-102605385D01*
X83694000Y-102605385D01*
X83698475Y-102620624D01*
X83699865Y-102621829D01*
X83707548Y-102623500D01*
X84654884Y-102623500D01*
X84670123Y-102619025D01*
X84671328Y-102617635D01*
X84672999Y-102609952D01*
X84672999Y-102580405D01*
X84672662Y-102573886D01*
X84662743Y-102478294D01*
X84659851Y-102464900D01*
X84608412Y-102310716D01*
X84602239Y-102297538D01*
X84516937Y-102159693D01*
X84507901Y-102148292D01*
X84393171Y-102033761D01*
X84381760Y-102024749D01*
X84243757Y-101939684D01*
X84230576Y-101933537D01*
X84076290Y-101882362D01*
X84062914Y-101879495D01*
X83968562Y-101869828D01*
X83962145Y-101869500D01*
X83712115Y-101869500D01*
X83696876Y-101873975D01*
X83695671Y-101875365D01*
X83694000Y-101883048D01*
X83694000Y-102605385D01*
X83186000Y-102605385D01*
X83186000Y-101887616D01*
X83181525Y-101872377D01*
X83180135Y-101871172D01*
X83172452Y-101869501D01*
X82917905Y-101869501D01*
X82911386Y-101869838D01*
X82815794Y-101879757D01*
X82802400Y-101882649D01*
X82648216Y-101934088D01*
X82635038Y-101940261D01*
X82497193Y-102025563D01*
X82485792Y-102034599D01*
X82371261Y-102149329D01*
X82362249Y-102160740D01*
X82277184Y-102298743D01*
X82271037Y-102311924D01*
X82219862Y-102466210D01*
X82216995Y-102479586D01*
X82207328Y-102573938D01*
X82207000Y-102580355D01*
X82207000Y-102605385D01*
X81431832Y-102605385D01*
X81431832Y-102153750D01*
X81451834Y-102085629D01*
X81468737Y-102064655D01*
X81897987Y-101635405D01*
X81960299Y-101601379D01*
X81987082Y-101598500D01*
X84412918Y-101598500D01*
X84481039Y-101618502D01*
G37*
%TD.AperFunction*%
%TA.AperFunction,Conductor*%
G36*
X84603991Y-90688502D02*
G01*
X84650484Y-90742158D01*
X84660588Y-90812432D01*
X84643130Y-90860616D01*
X84614135Y-90907654D01*
X84607991Y-90920832D01*
X84557273Y-91073740D01*
X84554407Y-91087106D01*
X84544828Y-91180601D01*
X84544500Y-91187016D01*
X84544500Y-91417885D01*
X84548975Y-91433124D01*
X84550365Y-91434329D01*
X84558048Y-91436000D01*
X85668000Y-91436000D01*
X85736121Y-91456002D01*
X85782614Y-91509658D01*
X85794000Y-91562000D01*
X85794000Y-92879884D01*
X85798475Y-92895123D01*
X85799865Y-92896328D01*
X85807548Y-92897999D01*
X85830433Y-92897999D01*
X85836952Y-92897662D01*
X85931670Y-92887834D01*
X85945064Y-92884942D01*
X86097865Y-92833964D01*
X86111043Y-92827790D01*
X86247649Y-92743256D01*
X86259050Y-92734220D01*
X86372551Y-92620521D01*
X86378294Y-92613249D01*
X86436211Y-92572186D01*
X86507134Y-92568954D01*
X86568546Y-92604579D01*
X86574340Y-92611254D01*
X86577703Y-92616689D01*
X86701847Y-92740617D01*
X86708077Y-92744457D01*
X86708078Y-92744458D01*
X86741486Y-92765051D01*
X86851171Y-92832661D01*
X86858119Y-92834966D01*
X86858120Y-92834966D01*
X87011134Y-92885719D01*
X87011136Y-92885719D01*
X87017665Y-92887885D01*
X87121269Y-92898500D01*
X87412734Y-92898500D01*
X87708730Y-92898499D01*
X87813629Y-92887616D01*
X87820160Y-92885437D01*
X87820165Y-92885436D01*
X87973078Y-92834420D01*
X87980026Y-92832102D01*
X88129189Y-92739797D01*
X88253117Y-92615653D01*
X88281903Y-92568954D01*
X88295554Y-92546807D01*
X88348326Y-92499314D01*
X88418397Y-92487890D01*
X88483521Y-92516164D01*
X88509958Y-92546621D01*
X88524022Y-92569348D01*
X88649197Y-92694305D01*
X88655427Y-92698145D01*
X88655428Y-92698146D01*
X88792590Y-92782694D01*
X88799762Y-92787115D01*
X88843132Y-92801500D01*
X88961111Y-92840632D01*
X88961113Y-92840632D01*
X88967639Y-92842797D01*
X88974475Y-92843497D01*
X88974478Y-92843498D01*
X89017151Y-92847870D01*
X89072100Y-92853500D01*
X89697900Y-92853500D01*
X89701146Y-92853163D01*
X89701150Y-92853163D01*
X89796808Y-92843238D01*
X89796812Y-92843237D01*
X89803666Y-92842526D01*
X89810202Y-92840345D01*
X89810204Y-92840345D01*
X89957676Y-92791144D01*
X89971446Y-92786550D01*
X90121848Y-92693478D01*
X90186327Y-92628887D01*
X90248610Y-92594808D01*
X90319430Y-92599811D01*
X90376303Y-92642309D01*
X90401171Y-92708807D01*
X90401500Y-92717905D01*
X90401500Y-94039587D01*
X90381498Y-94107708D01*
X90327842Y-94154201D01*
X90257568Y-94164305D01*
X90192988Y-94134811D01*
X90186482Y-94128760D01*
X90170490Y-94112795D01*
X90120803Y-94063195D01*
X90082504Y-94039587D01*
X89976468Y-93974225D01*
X89976466Y-93974224D01*
X89970238Y-93970385D01*
X89890495Y-93943936D01*
X89808889Y-93916868D01*
X89808887Y-93916868D01*
X89802361Y-93914703D01*
X89795525Y-93914003D01*
X89795522Y-93914002D01*
X89752469Y-93909591D01*
X89697900Y-93904000D01*
X89072100Y-93904000D01*
X89068854Y-93904337D01*
X89068850Y-93904337D01*
X88973192Y-93914262D01*
X88973188Y-93914263D01*
X88966334Y-93914974D01*
X88959798Y-93917155D01*
X88959796Y-93917155D01*
X88899163Y-93937384D01*
X88798554Y-93970950D01*
X88648152Y-94064022D01*
X88523195Y-94189197D01*
X88519355Y-94195427D01*
X88519354Y-94195428D01*
X88489158Y-94244415D01*
X88436386Y-94291908D01*
X88366314Y-94303332D01*
X88301190Y-94275058D01*
X88274756Y-94244605D01*
X88252297Y-94208311D01*
X88128153Y-94084383D01*
X88102169Y-94068366D01*
X88055480Y-94039587D01*
X87978829Y-93992339D01*
X87925969Y-93974806D01*
X87818866Y-93939281D01*
X87818864Y-93939281D01*
X87812335Y-93937115D01*
X87708731Y-93926500D01*
X87417266Y-93926500D01*
X87121270Y-93926501D01*
X87016371Y-93937384D01*
X87009840Y-93939563D01*
X87009835Y-93939564D01*
X86861689Y-93988990D01*
X86849974Y-93992898D01*
X86700811Y-94085203D01*
X86576883Y-94209347D01*
X86575081Y-94212270D01*
X86518471Y-94252408D01*
X86447548Y-94255642D01*
X86386136Y-94220018D01*
X86380584Y-94213622D01*
X86377297Y-94208311D01*
X86253153Y-94084383D01*
X86227169Y-94068366D01*
X86180480Y-94039587D01*
X86103829Y-93992339D01*
X86050969Y-93974806D01*
X85943866Y-93939281D01*
X85943864Y-93939281D01*
X85937335Y-93937115D01*
X85833731Y-93926500D01*
X85542266Y-93926500D01*
X85246270Y-93926501D01*
X85141371Y-93937384D01*
X85134840Y-93939563D01*
X85134835Y-93939564D01*
X84986689Y-93988990D01*
X84974974Y-93992898D01*
X84825811Y-94085203D01*
X84701883Y-94209347D01*
X84609839Y-94358671D01*
X84607534Y-94365619D01*
X84607534Y-94365620D01*
X84557987Y-94515000D01*
X84554615Y-94525165D01*
X84544000Y-94628769D01*
X84544001Y-95641230D01*
X84554884Y-95746129D01*
X84557063Y-95752660D01*
X84557064Y-95752665D01*
X84602558Y-95889027D01*
X84610398Y-95912526D01*
X84636248Y-95954298D01*
X84655085Y-96022748D01*
X84633924Y-96090518D01*
X84603165Y-96122535D01*
X84582186Y-96137777D01*
X84515128Y-96186498D01*
X84508747Y-96191134D01*
X84504326Y-96196044D01*
X84504325Y-96196045D01*
X84388495Y-96324688D01*
X84380960Y-96333056D01*
X84337068Y-96409079D01*
X84290311Y-96490065D01*
X84285473Y-96498444D01*
X84226458Y-96680072D01*
X84225768Y-96686633D01*
X84225768Y-96686635D01*
X84217009Y-96769970D01*
X84206496Y-96870000D01*
X84207186Y-96876565D01*
X84222831Y-97025415D01*
X84226458Y-97059928D01*
X84285473Y-97241556D01*
X84288776Y-97247278D01*
X84288777Y-97247279D01*
X84289860Y-97249155D01*
X84380960Y-97406944D01*
X84385378Y-97411851D01*
X84385379Y-97411852D01*
X84488927Y-97526854D01*
X84508747Y-97548866D01*
X84514089Y-97552747D01*
X84514091Y-97552749D01*
X84547031Y-97576681D01*
X84583621Y-97603265D01*
X84592574Y-97609770D01*
X84635928Y-97665992D01*
X84642003Y-97736729D01*
X84625773Y-97777821D01*
X84609839Y-97803671D01*
X84607534Y-97810619D01*
X84607534Y-97810620D01*
X84568686Y-97927744D01*
X84554615Y-97970165D01*
X84544000Y-98073769D01*
X84544001Y-99086230D01*
X84554884Y-99191129D01*
X84557063Y-99197660D01*
X84557064Y-99197665D01*
X84586962Y-99287279D01*
X84610398Y-99357526D01*
X84662194Y-99441226D01*
X84669997Y-99453836D01*
X84688835Y-99522287D01*
X84682686Y-99559075D01*
X84646458Y-99670572D01*
X84645768Y-99677138D01*
X84645767Y-99677142D01*
X84630910Y-99818500D01*
X84626496Y-99860500D01*
X84625741Y-99860421D01*
X84607184Y-99923621D01*
X84553528Y-99970114D01*
X84501186Y-99981500D01*
X81609165Y-99981500D01*
X81607846Y-99981493D01*
X81517779Y-99980550D01*
X81510901Y-99982037D01*
X81510891Y-99982038D01*
X81475413Y-99989709D01*
X81462838Y-99991769D01*
X81419745Y-99996603D01*
X81388074Y-100007632D01*
X81373265Y-100011795D01*
X81347371Y-100017393D01*
X81347368Y-100017394D01*
X81340490Y-100018881D01*
X81301187Y-100037208D01*
X81289411Y-100041990D01*
X81248448Y-100056255D01*
X81242473Y-100059989D01*
X81242470Y-100059990D01*
X81220005Y-100074027D01*
X81206488Y-100081366D01*
X81182486Y-100092559D01*
X81176098Y-100095538D01*
X81170533Y-100099855D01*
X81170531Y-100099856D01*
X81141847Y-100122106D01*
X81131388Y-100129402D01*
X81100596Y-100148642D01*
X81100593Y-100148644D01*
X81094624Y-100152374D01*
X81089629Y-100157334D01*
X81089628Y-100157335D01*
X81065821Y-100180976D01*
X81065196Y-100181561D01*
X81064530Y-100182078D01*
X81038540Y-100208068D01*
X80965918Y-100280185D01*
X80965260Y-100281222D01*
X80964157Y-100282451D01*
X80097711Y-101148897D01*
X80035399Y-101182923D01*
X79964584Y-101177858D01*
X79907748Y-101135311D01*
X79883306Y-101072972D01*
X79874232Y-100986635D01*
X79874232Y-100986633D01*
X79873542Y-100980072D01*
X79814527Y-100798444D01*
X79719040Y-100633056D01*
X79690650Y-100601525D01*
X79595675Y-100496045D01*
X79595674Y-100496044D01*
X79591253Y-100491134D01*
X79458985Y-100395035D01*
X79442094Y-100382763D01*
X79442093Y-100382762D01*
X79436752Y-100378882D01*
X79430723Y-100376198D01*
X79430720Y-100376196D01*
X79408249Y-100366191D01*
X79354154Y-100320210D01*
X79333500Y-100251085D01*
X79333500Y-99864087D01*
X79353502Y-99795966D01*
X79407158Y-99749473D01*
X79477432Y-99739369D01*
X79510747Y-99748979D01*
X79511856Y-99749473D01*
X79570170Y-99775436D01*
X79577712Y-99778794D01*
X79670421Y-99798500D01*
X79758056Y-99817128D01*
X79758061Y-99817128D01*
X79764513Y-99818500D01*
X79955487Y-99818500D01*
X79961939Y-99817128D01*
X79961944Y-99817128D01*
X80049579Y-99798500D01*
X80142288Y-99778794D01*
X80149390Y-99775632D01*
X80310722Y-99703803D01*
X80310724Y-99703802D01*
X80316752Y-99701118D01*
X80345717Y-99680074D01*
X80386500Y-99650443D01*
X80471253Y-99588866D01*
X80500184Y-99556735D01*
X80594621Y-99451852D01*
X80594622Y-99451851D01*
X80599040Y-99446944D01*
X80694527Y-99281556D01*
X80753542Y-99099928D01*
X80755259Y-99083598D01*
X80772814Y-98916565D01*
X80773504Y-98910000D01*
X80753542Y-98720072D01*
X80694527Y-98538444D01*
X80685380Y-98522602D01*
X80668500Y-98459603D01*
X80668500Y-97159214D01*
X80668507Y-97157894D01*
X80668840Y-97126109D01*
X80669451Y-97067779D01*
X80660289Y-97025403D01*
X80658230Y-97012832D01*
X80657104Y-97002789D01*
X80653397Y-96969745D01*
X80647899Y-96953955D01*
X80642367Y-96938070D01*
X80638204Y-96923258D01*
X80632609Y-96897381D01*
X80631119Y-96890490D01*
X80612792Y-96851187D01*
X80608010Y-96839411D01*
X80593745Y-96798448D01*
X80589116Y-96791040D01*
X80575973Y-96770005D01*
X80568634Y-96756488D01*
X80557441Y-96732486D01*
X80557440Y-96732485D01*
X80554462Y-96726098D01*
X80546148Y-96715379D01*
X80527894Y-96691847D01*
X80520598Y-96681388D01*
X80501358Y-96650596D01*
X80501356Y-96650593D01*
X80497626Y-96644624D01*
X80475876Y-96622721D01*
X80469024Y-96615821D01*
X80468439Y-96615196D01*
X80467922Y-96614530D01*
X80441932Y-96588540D01*
X80369815Y-96515918D01*
X80368778Y-96515260D01*
X80367549Y-96514157D01*
X79370405Y-95517013D01*
X79336379Y-95454701D01*
X79333500Y-95427918D01*
X79333500Y-94817896D01*
X79334494Y-94802104D01*
X79336238Y-94788299D01*
X79338474Y-94775747D01*
X79346638Y-94740386D01*
X79346638Y-94740383D01*
X79348224Y-94733515D01*
X79348274Y-94719341D01*
X79348366Y-94692944D01*
X79348395Y-94692062D01*
X79348500Y-94691231D01*
X79348500Y-94654298D01*
X79348857Y-94552130D01*
X79348589Y-94550930D01*
X79348500Y-94549293D01*
X79348500Y-93570413D01*
X79368502Y-93502292D01*
X79422158Y-93455799D01*
X79461495Y-93445086D01*
X79479308Y-93443238D01*
X79479312Y-93443237D01*
X79486166Y-93442526D01*
X79492702Y-93440345D01*
X79492704Y-93440345D01*
X79646998Y-93388868D01*
X79653946Y-93386550D01*
X79804348Y-93293478D01*
X79929305Y-93168303D01*
X79937197Y-93155500D01*
X80018275Y-93023968D01*
X80018276Y-93023966D01*
X80022115Y-93017738D01*
X80054904Y-92918882D01*
X80075632Y-92856389D01*
X80075632Y-92856387D01*
X80077797Y-92849861D01*
X80078825Y-92839834D01*
X80088172Y-92748598D01*
X80088500Y-92745400D01*
X80088500Y-92192933D01*
X84544501Y-92192933D01*
X84544838Y-92199452D01*
X84554666Y-92294170D01*
X84557558Y-92307564D01*
X84608536Y-92460365D01*
X84614710Y-92473543D01*
X84699244Y-92610149D01*
X84708280Y-92621550D01*
X84821979Y-92735051D01*
X84833390Y-92744063D01*
X84970154Y-92828365D01*
X84983332Y-92834509D01*
X85136240Y-92885227D01*
X85149606Y-92888093D01*
X85243101Y-92897672D01*
X85249516Y-92898000D01*
X85267885Y-92898000D01*
X85283124Y-92893525D01*
X85284329Y-92892135D01*
X85286000Y-92884452D01*
X85286000Y-91962115D01*
X85281525Y-91946876D01*
X85280135Y-91945671D01*
X85272452Y-91944000D01*
X84562616Y-91944000D01*
X84547377Y-91948475D01*
X84546172Y-91949865D01*
X84544501Y-91957548D01*
X84544501Y-92192933D01*
X80088500Y-92192933D01*
X80088500Y-91694600D01*
X80086376Y-91674124D01*
X80078237Y-91595689D01*
X80077526Y-91588834D01*
X80076783Y-91586608D01*
X80081828Y-91517554D01*
X80110721Y-91472671D01*
X80877987Y-90705405D01*
X80940299Y-90671379D01*
X80967082Y-90668500D01*
X84535870Y-90668500D01*
X84603991Y-90688502D01*
G37*
%TD.AperFunction*%
%TA.AperFunction,Conductor*%
G36*
X70815311Y-100011575D02*
G01*
X70870937Y-100055691D01*
X70894000Y-100128355D01*
X70894000Y-100988000D01*
X70873998Y-101056121D01*
X70820342Y-101102614D01*
X70768000Y-101114000D01*
X70512000Y-101114000D01*
X70443879Y-101093998D01*
X70397386Y-101040342D01*
X70386000Y-100988000D01*
X70386000Y-100305830D01*
X70406002Y-100237709D01*
X70458218Y-100192257D01*
X70461675Y-100191094D01*
X70473905Y-100183746D01*
X70569980Y-100126018D01*
X70616905Y-100097823D01*
X70621862Y-100093135D01*
X70621865Y-100093133D01*
X70681427Y-100036807D01*
X70744664Y-100004535D01*
X70815311Y-100011575D01*
G37*
%TD.AperFunction*%
%TA.AperFunction,Conductor*%
G36*
X71751121Y-99818502D02*
G01*
X71797614Y-99872158D01*
X71809000Y-99924500D01*
X71809000Y-100512000D01*
X71788998Y-100580121D01*
X71735342Y-100626614D01*
X71683000Y-100638000D01*
X71427000Y-100638000D01*
X71358879Y-100617998D01*
X71312386Y-100564342D01*
X71301000Y-100512000D01*
X71301000Y-100062115D01*
X71296525Y-100046876D01*
X71285947Y-100037710D01*
X71241786Y-100013596D01*
X71207761Y-99951284D01*
X71212825Y-99880468D01*
X71255372Y-99823632D01*
X71321892Y-99798821D01*
X71330881Y-99798500D01*
X71683000Y-99798500D01*
X71751121Y-99818502D01*
G37*
%TD.AperFunction*%
%TA.AperFunction,Conductor*%
G36*
X88476573Y-95972436D02*
G01*
X88503007Y-96002889D01*
X88524022Y-96036848D01*
X88649197Y-96161805D01*
X88655427Y-96165645D01*
X88655428Y-96165646D01*
X88792590Y-96250194D01*
X88799762Y-96254615D01*
X88819462Y-96261149D01*
X88961111Y-96308132D01*
X88961113Y-96308132D01*
X88967639Y-96310297D01*
X88974475Y-96310997D01*
X88974478Y-96310998D01*
X89017531Y-96315409D01*
X89072100Y-96321000D01*
X89697900Y-96321000D01*
X89701146Y-96320663D01*
X89701150Y-96320663D01*
X89796808Y-96310738D01*
X89796812Y-96310737D01*
X89803666Y-96310026D01*
X89810202Y-96307845D01*
X89810204Y-96307845D01*
X89953792Y-96259940D01*
X89971446Y-96254050D01*
X90121848Y-96160978D01*
X90152938Y-96129834D01*
X90186327Y-96096387D01*
X90248610Y-96062308D01*
X90319430Y-96067311D01*
X90376303Y-96109809D01*
X90401171Y-96176307D01*
X90401500Y-96185405D01*
X90401500Y-97507087D01*
X90381498Y-97575208D01*
X90327842Y-97621701D01*
X90257568Y-97631805D01*
X90192988Y-97602311D01*
X90186482Y-97596260D01*
X90179775Y-97589564D01*
X90120803Y-97530695D01*
X90113753Y-97526349D01*
X89976468Y-97441725D01*
X89976466Y-97441724D01*
X89970238Y-97437885D01*
X89809754Y-97384655D01*
X89808889Y-97384368D01*
X89808887Y-97384368D01*
X89802361Y-97382203D01*
X89795525Y-97381503D01*
X89795522Y-97381502D01*
X89752469Y-97377091D01*
X89697900Y-97371500D01*
X89072100Y-97371500D01*
X89068854Y-97371837D01*
X89068850Y-97371837D01*
X88973192Y-97381762D01*
X88973188Y-97381763D01*
X88966334Y-97382474D01*
X88959798Y-97384655D01*
X88959796Y-97384655D01*
X88827694Y-97428728D01*
X88798554Y-97438450D01*
X88648152Y-97531522D01*
X88523195Y-97656697D01*
X88519355Y-97662927D01*
X88519354Y-97662928D01*
X88496106Y-97700643D01*
X88443333Y-97748137D01*
X88373262Y-97759559D01*
X88308138Y-97731285D01*
X88281705Y-97700833D01*
X88252297Y-97653311D01*
X88128153Y-97529383D01*
X87978829Y-97437339D01*
X87971880Y-97435034D01*
X87818866Y-97384281D01*
X87818864Y-97384281D01*
X87812335Y-97382115D01*
X87708731Y-97371500D01*
X87417266Y-97371500D01*
X87121270Y-97371501D01*
X87016371Y-97382384D01*
X87009840Y-97384563D01*
X87009835Y-97384564D01*
X86861689Y-97433990D01*
X86849974Y-97437898D01*
X86700811Y-97530203D01*
X86576883Y-97654347D01*
X86575081Y-97657270D01*
X86518471Y-97697408D01*
X86447548Y-97700642D01*
X86386136Y-97665018D01*
X86380584Y-97658622D01*
X86377297Y-97653311D01*
X86253153Y-97529383D01*
X86103829Y-97437339D01*
X86096880Y-97435034D01*
X86029136Y-97412564D01*
X85970776Y-97372133D01*
X85943540Y-97306568D01*
X85953424Y-97243467D01*
X85954527Y-97241556D01*
X86013542Y-97059928D01*
X86017170Y-97025415D01*
X86031769Y-96886508D01*
X86054338Y-96827715D01*
X86056586Y-96825321D01*
X86066347Y-96807566D01*
X86077198Y-96791047D01*
X86089614Y-96775041D01*
X86107174Y-96734463D01*
X86112391Y-96723813D01*
X86133695Y-96685060D01*
X86137086Y-96671855D01*
X86138733Y-96665438D01*
X86145137Y-96646734D01*
X86150033Y-96635420D01*
X86150033Y-96635419D01*
X86153181Y-96628145D01*
X86154420Y-96620322D01*
X86154423Y-96620312D01*
X86160099Y-96584476D01*
X86162505Y-96572856D01*
X86171528Y-96537711D01*
X86171528Y-96537710D01*
X86173500Y-96530030D01*
X86173500Y-96509776D01*
X86175051Y-96490065D01*
X86176980Y-96477886D01*
X86178220Y-96470057D01*
X86174059Y-96426038D01*
X86173500Y-96414181D01*
X86173500Y-96304931D01*
X86193502Y-96236810D01*
X86233196Y-96197788D01*
X86254189Y-96184797D01*
X86378117Y-96060653D01*
X86379919Y-96057730D01*
X86436529Y-96017592D01*
X86507452Y-96014358D01*
X86568864Y-96049982D01*
X86574416Y-96056378D01*
X86577703Y-96061689D01*
X86701847Y-96185617D01*
X86708077Y-96189457D01*
X86708078Y-96189458D01*
X86729686Y-96202777D01*
X86851171Y-96277661D01*
X86858119Y-96279966D01*
X86858120Y-96279966D01*
X87011134Y-96330719D01*
X87011136Y-96330719D01*
X87017665Y-96332885D01*
X87121269Y-96343500D01*
X87412734Y-96343500D01*
X87708730Y-96343499D01*
X87813629Y-96332616D01*
X87820160Y-96330437D01*
X87820165Y-96330436D01*
X87973078Y-96279420D01*
X87980026Y-96277102D01*
X88129189Y-96184797D01*
X88253117Y-96060653D01*
X88257393Y-96053717D01*
X88288606Y-96003079D01*
X88341378Y-95955586D01*
X88411450Y-95944162D01*
X88476573Y-95972436D01*
G37*
%TD.AperFunction*%
%TD*%
M02*
