%TF.GenerationSoftware,KiCad,Pcbnew,(6.0.2)*%
%TF.CreationDate,2022-03-29T22:00:30+08:00*%
%TF.ProjectId,CH340-USB-C,43483334-302d-4555-9342-2d432e6b6963,rev?*%
%TF.SameCoordinates,Original*%
%TF.FileFunction,Legend,Bot*%
%TF.FilePolarity,Positive*%
%FSLAX46Y46*%
G04 Gerber Fmt 4.6, Leading zero omitted, Abs format (unit mm)*
G04 Created by KiCad (PCBNEW (6.0.2)) date 2022-03-29 22:00:30*
%MOMM*%
%LPD*%
G01*
G04 APERTURE LIST*
%ADD10C,0.300000*%
%ADD11C,0.150000*%
%ADD12C,0.120000*%
G04 APERTURE END LIST*
D10*
X108680000Y-133798571D02*
X108180000Y-135298571D01*
X107680000Y-133798571D01*
X106322857Y-135155714D02*
X106394285Y-135227142D01*
X106608571Y-135298571D01*
X106751428Y-135298571D01*
X106965714Y-135227142D01*
X107108571Y-135084285D01*
X107180000Y-134941428D01*
X107251428Y-134655714D01*
X107251428Y-134441428D01*
X107180000Y-134155714D01*
X107108571Y-134012857D01*
X106965714Y-133870000D01*
X106751428Y-133798571D01*
X106608571Y-133798571D01*
X106394285Y-133870000D01*
X106322857Y-133941428D01*
X104822857Y-135155714D02*
X104894285Y-135227142D01*
X105108571Y-135298571D01*
X105251428Y-135298571D01*
X105465714Y-135227142D01*
X105608571Y-135084285D01*
X105680000Y-134941428D01*
X105751428Y-134655714D01*
X105751428Y-134441428D01*
X105680000Y-134155714D01*
X105608571Y-134012857D01*
X105465714Y-133870000D01*
X105251428Y-133798571D01*
X105108571Y-133798571D01*
X104894285Y-133870000D01*
X104822857Y-133941428D01*
X107755428Y-127678571D02*
X108255428Y-126964285D01*
X108612571Y-127678571D02*
X108612571Y-126178571D01*
X108041142Y-126178571D01*
X107898285Y-126250000D01*
X107826857Y-126321428D01*
X107755428Y-126464285D01*
X107755428Y-126678571D01*
X107826857Y-126821428D01*
X107898285Y-126892857D01*
X108041142Y-126964285D01*
X108612571Y-126964285D01*
X107326857Y-126178571D02*
X106469714Y-126178571D01*
X106898285Y-127678571D02*
X106898285Y-126178571D01*
X106041142Y-127607142D02*
X105826857Y-127678571D01*
X105469714Y-127678571D01*
X105326857Y-127607142D01*
X105255428Y-127535714D01*
X105184000Y-127392857D01*
X105184000Y-127250000D01*
X105255428Y-127107142D01*
X105326857Y-127035714D01*
X105469714Y-126964285D01*
X105755428Y-126892857D01*
X105898285Y-126821428D01*
X105969714Y-126750000D01*
X106041142Y-126607142D01*
X106041142Y-126464285D01*
X105969714Y-126321428D01*
X105898285Y-126250000D01*
X105755428Y-126178571D01*
X105398285Y-126178571D01*
X105184000Y-126250000D01*
X107822857Y-123456000D02*
X107965714Y-123384571D01*
X108180000Y-123384571D01*
X108394285Y-123456000D01*
X108537142Y-123598857D01*
X108608571Y-123741714D01*
X108680000Y-124027428D01*
X108680000Y-124241714D01*
X108608571Y-124527428D01*
X108537142Y-124670285D01*
X108394285Y-124813142D01*
X108180000Y-124884571D01*
X108037142Y-124884571D01*
X107822857Y-124813142D01*
X107751428Y-124741714D01*
X107751428Y-124241714D01*
X108037142Y-124241714D01*
X107108571Y-124884571D02*
X107108571Y-123384571D01*
X106251428Y-124884571D01*
X106251428Y-123384571D01*
X105537142Y-124884571D02*
X105537142Y-123384571D01*
X105180000Y-123384571D01*
X104965714Y-123456000D01*
X104822857Y-123598857D01*
X104751428Y-123741714D01*
X104680000Y-124027428D01*
X104680000Y-124241714D01*
X104751428Y-124527428D01*
X104822857Y-124670285D01*
X104965714Y-124813142D01*
X105180000Y-124884571D01*
X105537142Y-124884571D01*
X108572857Y-128718571D02*
X107715714Y-128718571D01*
X108144285Y-130218571D02*
X108144285Y-128718571D01*
X107358571Y-128718571D02*
X106358571Y-130218571D01*
X106358571Y-128718571D02*
X107358571Y-130218571D01*
X105787142Y-130218571D02*
X105787142Y-128718571D01*
X105430000Y-128718571D01*
X105215714Y-128790000D01*
X105072857Y-128932857D01*
X105001428Y-129075714D01*
X104930000Y-129361428D01*
X104930000Y-129575714D01*
X105001428Y-129861428D01*
X105072857Y-130004285D01*
X105215714Y-130147142D01*
X105430000Y-130218571D01*
X105787142Y-130218571D01*
D11*
X103344023Y-128441380D02*
X103344023Y-129250904D01*
X103305928Y-129346142D01*
X103267833Y-129393761D01*
X103191642Y-129441380D01*
X103039261Y-129441380D01*
X102963071Y-129393761D01*
X102924976Y-129346142D01*
X102886880Y-129250904D01*
X102886880Y-128441380D01*
X102544023Y-129393761D02*
X102429738Y-129441380D01*
X102239261Y-129441380D01*
X102163071Y-129393761D01*
X102124976Y-129346142D01*
X102086880Y-129250904D01*
X102086880Y-129155666D01*
X102124976Y-129060428D01*
X102163071Y-129012809D01*
X102239261Y-128965190D01*
X102391642Y-128917571D01*
X102467833Y-128869952D01*
X102505928Y-128822333D01*
X102544023Y-128727095D01*
X102544023Y-128631857D01*
X102505928Y-128536619D01*
X102467833Y-128489000D01*
X102391642Y-128441380D01*
X102201166Y-128441380D01*
X102086880Y-128489000D01*
X101477357Y-128917571D02*
X101363071Y-128965190D01*
X101324976Y-129012809D01*
X101286880Y-129108047D01*
X101286880Y-129250904D01*
X101324976Y-129346142D01*
X101363071Y-129393761D01*
X101439261Y-129441380D01*
X101744023Y-129441380D01*
X101744023Y-128441380D01*
X101477357Y-128441380D01*
X101401166Y-128489000D01*
X101363071Y-128536619D01*
X101324976Y-128631857D01*
X101324976Y-128727095D01*
X101363071Y-128822333D01*
X101401166Y-128869952D01*
X101477357Y-128917571D01*
X101744023Y-128917571D01*
X100448785Y-128441380D02*
X99991642Y-128441380D01*
X100220214Y-129441380D02*
X100220214Y-128441380D01*
X99572595Y-128965190D02*
X99572595Y-129441380D01*
X99839261Y-128441380D02*
X99572595Y-128965190D01*
X99305928Y-128441380D01*
X99039261Y-129441380D02*
X99039261Y-128441380D01*
X98734500Y-128441380D01*
X98658309Y-128489000D01*
X98620214Y-128536619D01*
X98582119Y-128631857D01*
X98582119Y-128774714D01*
X98620214Y-128869952D01*
X98658309Y-128917571D01*
X98734500Y-128965190D01*
X99039261Y-128965190D01*
X98239261Y-128917571D02*
X97972595Y-128917571D01*
X97858309Y-129441380D02*
X98239261Y-129441380D01*
X98239261Y-128441380D01*
X97858309Y-128441380D01*
X97515452Y-129060428D02*
X96905928Y-129060428D01*
X96067833Y-129346142D02*
X96105928Y-129393761D01*
X96220214Y-129441380D01*
X96296404Y-129441380D01*
X96410690Y-129393761D01*
X96486880Y-129298523D01*
X96524976Y-129203285D01*
X96563071Y-129012809D01*
X96563071Y-128869952D01*
X96524976Y-128679476D01*
X96486880Y-128584238D01*
X96410690Y-128489000D01*
X96296404Y-128441380D01*
X96220214Y-128441380D01*
X96105928Y-128489000D01*
X96067833Y-128536619D01*
X103344023Y-130051380D02*
X103344023Y-130860904D01*
X103305928Y-130956142D01*
X103267833Y-131003761D01*
X103191642Y-131051380D01*
X103039261Y-131051380D01*
X102963071Y-131003761D01*
X102924976Y-130956142D01*
X102886880Y-130860904D01*
X102886880Y-130051380D01*
X102544023Y-130765666D02*
X102163071Y-130765666D01*
X102620214Y-131051380D02*
X102353547Y-130051380D01*
X102086880Y-131051380D01*
X101363071Y-131051380D02*
X101629738Y-130575190D01*
X101820214Y-131051380D02*
X101820214Y-130051380D01*
X101515452Y-130051380D01*
X101439261Y-130099000D01*
X101401166Y-130146619D01*
X101363071Y-130241857D01*
X101363071Y-130384714D01*
X101401166Y-130479952D01*
X101439261Y-130527571D01*
X101515452Y-130575190D01*
X101820214Y-130575190D01*
X101134500Y-130051380D02*
X100677357Y-130051380D01*
X100905928Y-131051380D02*
X100905928Y-130051380D01*
X99915452Y-130051380D02*
X99648785Y-131051380D01*
X99382119Y-130051380D01*
X98696404Y-131051380D02*
X99153547Y-131051380D01*
X98924976Y-131051380D02*
X98924976Y-130051380D01*
X99001166Y-130194238D01*
X99077357Y-130289476D01*
X99153547Y-130337095D01*
X98353547Y-130956142D02*
X98315452Y-131003761D01*
X98353547Y-131051380D01*
X98391642Y-131003761D01*
X98353547Y-130956142D01*
X98353547Y-131051380D01*
X97820214Y-130051380D02*
X97744023Y-130051380D01*
X97667833Y-130099000D01*
X97629738Y-130146619D01*
X97591642Y-130241857D01*
X97553547Y-130432333D01*
X97553547Y-130670428D01*
X97591642Y-130860904D01*
X97629738Y-130956142D01*
X97667833Y-131003761D01*
X97744023Y-131051380D01*
X97820214Y-131051380D01*
X97896404Y-131003761D01*
X97934500Y-130956142D01*
X97972595Y-130860904D01*
X98010690Y-130670428D01*
X98010690Y-130432333D01*
X97972595Y-130241857D01*
X97934500Y-130146619D01*
X97896404Y-130099000D01*
X97820214Y-130051380D01*
D10*
X107755428Y-132758571D02*
X108255428Y-132044285D01*
X108612571Y-132758571D02*
X108612571Y-131258571D01*
X108041142Y-131258571D01*
X107898285Y-131330000D01*
X107826857Y-131401428D01*
X107755428Y-131544285D01*
X107755428Y-131758571D01*
X107826857Y-131901428D01*
X107898285Y-131972857D01*
X108041142Y-132044285D01*
X108612571Y-132044285D01*
X107255428Y-131258571D02*
X106255428Y-132758571D01*
X106255428Y-131258571D02*
X107255428Y-132758571D01*
X105898285Y-131258571D02*
X105041142Y-131258571D01*
X105469714Y-132758571D02*
X105469714Y-131258571D01*
D11*
%TO.C,J2*%
X125261619Y-134191333D02*
X124547333Y-134191333D01*
X124404476Y-134238952D01*
X124309238Y-134334190D01*
X124261619Y-134477047D01*
X124261619Y-134572285D01*
X125166380Y-133762761D02*
X125214000Y-133715142D01*
X125261619Y-133619904D01*
X125261619Y-133381809D01*
X125214000Y-133286571D01*
X125166380Y-133238952D01*
X125071142Y-133191333D01*
X124975904Y-133191333D01*
X124833047Y-133238952D01*
X124261619Y-133810380D01*
X124261619Y-133191333D01*
D12*
X123187000Y-130556000D02*
X114557000Y-130556000D01*
X123187000Y-135696000D02*
X114557000Y-135696000D01*
X123187000Y-128016000D02*
X114557000Y-128016000D01*
X123187000Y-122876000D02*
X123187000Y-135696000D01*
X123187000Y-122876000D02*
X114557000Y-122876000D01*
X114557000Y-122876000D02*
X114557000Y-135696000D01*
X123187000Y-125476000D02*
X114557000Y-125476000D01*
X123187000Y-133096000D02*
X114557000Y-133096000D01*
%TD*%
M02*
