M48
; DRILL file {KiCad (6.0.2)} date Tue Mar 29 22:09:09 2022
; FORMAT={-:-/ absolute / inch / decimal}
; #@! TF.CreationDate,2022-03-29T22:09:09+08:00
; #@! TF.GenerationSoftware,Kicad,Pcbnew,(6.0.2)
; #@! TF.FileFunction,Plated,1,2,PTH
FMAT,2
INCH
; #@! TA.AperFunction,Plated,PTH,ViaDrill
T1C0.0157
; #@! TA.AperFunction,Plated,PTH,ComponentDrill
T2C0.0236
%
G90
G05
T1
X2.615Y-3.7142
X2.6157Y-3.8925
X2.878Y-3.9087
X2.8846Y-3.7028
X2.9185Y-3.5642
X2.9295Y-4.002
X2.9917Y-3.7898
X3.0417Y-3.7906
X3.0461Y-3.563
X3.0705Y-3.8559
X3.1094Y-3.9831
X3.1441Y-3.8941
X3.2224Y-4.05
X3.3512Y-3.8138
X3.3677Y-3.9315
X3.3823Y-4.0343
X3.4795Y-3.6756
X3.4795Y-3.8126
X3.6311Y-3.6894
X3.6512Y-3.8189
X3.815Y-4.0748
T2
G00X2.6283Y-3.6307
M15
G01X2.6047Y-3.6307
M16
G05
G00X2.6283Y-3.9709
M15
G01X2.6047Y-3.9709
M16
G05
G00X2.8028Y-3.6307
M15
G01X2.7594Y-3.6307
M16
G05
G00X2.8028Y-3.9709
M15
G01X2.7594Y-3.9709
M16
G05
T0
M30
