%TF.GenerationSoftware,KiCad,Pcbnew,(6.0.2)*%
%TF.CreationDate,2022-03-29T21:44:56+08:00*%
%TF.ProjectId,CH340-USB-C,43483334-302d-4555-9342-2d432e6b6963,rev?*%
%TF.SameCoordinates,Original*%
%TF.FileFunction,Copper,L1,Top*%
%TF.FilePolarity,Positive*%
%FSLAX46Y46*%
G04 Gerber Fmt 4.6, Leading zero omitted, Abs format (unit mm)*
G04 Created by KiCad (PCBNEW (6.0.2)) date 2022-03-29 21:44:56*
%MOMM*%
%LPD*%
G01*
G04 APERTURE LIST*
G04 Aperture macros list*
%AMRoundRect*
0 Rectangle with rounded corners*
0 $1 Rounding radius*
0 $2 $3 $4 $5 $6 $7 $8 $9 X,Y pos of 4 corners*
0 Add a 4 corners polygon primitive as box body*
4,1,4,$2,$3,$4,$5,$6,$7,$8,$9,$2,$3,0*
0 Add four circle primitives for the rounded corners*
1,1,$1+$1,$2,$3*
1,1,$1+$1,$4,$5*
1,1,$1+$1,$6,$7*
1,1,$1+$1,$8,$9*
0 Add four rect primitives between the rounded corners*
20,1,$1+$1,$2,$3,$4,$5,0*
20,1,$1+$1,$4,$5,$6,$7,0*
20,1,$1+$1,$6,$7,$8,$9,0*
20,1,$1+$1,$8,$9,$2,$3,0*%
G04 Aperture macros list end*
%TA.AperFunction,SMDPad,CuDef*%
%ADD10RoundRect,0.250000X-0.262500X-0.450000X0.262500X-0.450000X0.262500X0.450000X-0.262500X0.450000X0*%
%TD*%
%TA.AperFunction,SMDPad,CuDef*%
%ADD11RoundRect,0.243750X-0.243750X-0.456250X0.243750X-0.456250X0.243750X0.456250X-0.243750X0.456250X0*%
%TD*%
%TA.AperFunction,SMDPad,CuDef*%
%ADD12RoundRect,0.243750X0.456250X-0.243750X0.456250X0.243750X-0.456250X0.243750X-0.456250X-0.243750X0*%
%TD*%
%TA.AperFunction,SMDPad,CuDef*%
%ADD13RoundRect,0.250000X0.475000X-0.250000X0.475000X0.250000X-0.475000X0.250000X-0.475000X-0.250000X0*%
%TD*%
%TA.AperFunction,SMDPad,CuDef*%
%ADD14RoundRect,0.250000X0.262500X0.450000X-0.262500X0.450000X-0.262500X-0.450000X0.262500X-0.450000X0*%
%TD*%
%TA.AperFunction,SMDPad,CuDef*%
%ADD15R,1.000000X0.800000*%
%TD*%
%TA.AperFunction,SMDPad,CuDef*%
%ADD16R,0.700000X1.500000*%
%TD*%
%TA.AperFunction,SMDPad,CuDef*%
%ADD17RoundRect,0.150000X0.587500X0.150000X-0.587500X0.150000X-0.587500X-0.150000X0.587500X-0.150000X0*%
%TD*%
%TA.AperFunction,SMDPad,CuDef*%
%ADD18R,1.450000X0.600000*%
%TD*%
%TA.AperFunction,SMDPad,CuDef*%
%ADD19R,1.450000X0.300000*%
%TD*%
%TA.AperFunction,ComponentPad*%
%ADD20O,2.100000X1.000000*%
%TD*%
%TA.AperFunction,ComponentPad*%
%ADD21O,1.600000X1.000000*%
%TD*%
%TA.AperFunction,SMDPad,CuDef*%
%ADD22RoundRect,0.250000X-0.475000X0.250000X-0.475000X-0.250000X0.475000X-0.250000X0.475000X0.250000X0*%
%TD*%
%TA.AperFunction,SMDPad,CuDef*%
%ADD23RoundRect,0.150000X0.150000X-0.825000X0.150000X0.825000X-0.150000X0.825000X-0.150000X-0.825000X0*%
%TD*%
%TA.AperFunction,ViaPad*%
%ADD24C,0.800000*%
%TD*%
%TA.AperFunction,Conductor*%
%ADD25C,0.600000*%
%TD*%
%TA.AperFunction,Conductor*%
%ADD26C,0.250000*%
%TD*%
%TA.AperFunction,Conductor*%
%ADD27C,0.200000*%
%TD*%
G04 APERTURE END LIST*
D10*
%TO.P,R3,1*%
%TO.N,Net-(D3-Pad2)*%
X120650000Y-132080000D03*
%TO.P,R3,2*%
%TO.N,VCC*%
X122475000Y-132080000D03*
%TD*%
D11*
%TO.P,D3,1,K*%
%TO.N,/TXD*%
X117141000Y-132080000D03*
%TO.P,D3,2,A*%
%TO.N,Net-(D3-Pad2)*%
X119016000Y-132080000D03*
%TD*%
D12*
%TO.P,F1,1*%
%TO.N,Net-(F1-Pad1)*%
X113792000Y-129774000D03*
%TO.P,F1,2*%
%TO.N,+5V*%
X113792000Y-127899000D03*
%TD*%
D13*
%TO.P,C3,1*%
%TO.N,VCC*%
X109728000Y-126746000D03*
%TO.P,C3,2*%
%TO.N,GND*%
X109728000Y-124846000D03*
%TD*%
D10*
%TO.P,R1,1*%
%TO.N,Net-(D1-Pad2)*%
X120650000Y-136398000D03*
%TO.P,R1,2*%
%TO.N,VCC*%
X122475000Y-136398000D03*
%TD*%
D14*
%TO.P,R5,1*%
%TO.N,GND*%
X103782500Y-122936000D03*
%TO.P,R5,2*%
%TO.N,/CC1*%
X101957500Y-122936000D03*
%TD*%
D10*
%TO.P,R2,1*%
%TO.N,Net-(D2-Pad2)*%
X120650000Y-134112000D03*
%TO.P,R2,2*%
%TO.N,VCC*%
X122475000Y-134112000D03*
%TD*%
D15*
%TO.P,SW1,*%
%TO.N,*%
X114206000Y-124732000D03*
X121506000Y-122522000D03*
X114206000Y-122522000D03*
X121506000Y-124732000D03*
D16*
%TO.P,SW1,1,A*%
%TO.N,+3V3*%
X120106000Y-125382000D03*
%TO.P,SW1,2,B*%
%TO.N,VCC*%
X117106000Y-125382000D03*
%TO.P,SW1,3,C*%
%TO.N,+5V*%
X115606000Y-125382000D03*
%TD*%
D17*
%TO.P,U1,1,GND*%
%TO.N,GND*%
X119985000Y-129728000D03*
%TO.P,U1,2,VO*%
%TO.N,+3V3*%
X119985000Y-127828000D03*
%TO.P,U1,3,VI*%
%TO.N,+5V*%
X118110000Y-128778000D03*
%TD*%
D11*
%TO.P,D2,1,K*%
%TO.N,/RXD*%
X117141000Y-134239000D03*
%TO.P,D2,2,A*%
%TO.N,Net-(D2-Pad2)*%
X119016000Y-134239000D03*
%TD*%
%TO.P,D1,1,K*%
%TO.N,GND*%
X117141000Y-136398000D03*
%TO.P,D1,2,A*%
%TO.N,Net-(D1-Pad2)*%
X119016000Y-136398000D03*
%TD*%
D18*
%TO.P,J1,A1,GND*%
%TO.N,GND*%
X103307000Y-126290000D03*
%TO.P,J1,A4,VBUS*%
%TO.N,Net-(F1-Pad1)*%
X103307000Y-127090000D03*
D19*
%TO.P,J1,A5,CC1*%
%TO.N,/CC1*%
X103307000Y-128290000D03*
%TO.P,J1,A6,D+*%
%TO.N,/USBD+*%
X103307000Y-129290000D03*
%TO.P,J1,A7,D-*%
%TO.N,/USBD-*%
X103307000Y-129790000D03*
%TO.P,J1,A8,SBU1*%
%TO.N,unconnected-(J1-PadA8)*%
X103307000Y-130790000D03*
D18*
%TO.P,J1,A9,VBUS*%
%TO.N,Net-(F1-Pad1)*%
X103307000Y-131990000D03*
%TO.P,J1,A12,GND*%
%TO.N,GND*%
X103307000Y-132790000D03*
%TO.P,J1,B1,GND*%
X103307000Y-132790000D03*
%TO.P,J1,B4,VBUS*%
%TO.N,Net-(F1-Pad1)*%
X103307000Y-131990000D03*
D19*
%TO.P,J1,B5,CC2*%
%TO.N,/CC2*%
X103307000Y-131290000D03*
%TO.P,J1,B6,D+*%
%TO.N,/USBD+*%
X103307000Y-130290000D03*
%TO.P,J1,B7,D-*%
%TO.N,/USBD-*%
X103307000Y-128790000D03*
%TO.P,J1,B8,SBU2*%
%TO.N,unconnected-(J1-PadB8)*%
X103307000Y-127790000D03*
D18*
%TO.P,J1,B9,VBUS*%
%TO.N,Net-(F1-Pad1)*%
X103307000Y-127090000D03*
%TO.P,J1,B12,GND*%
%TO.N,GND*%
X103307000Y-126290000D03*
D20*
%TO.P,J1,S1,SHIELD*%
X102392000Y-133860000D03*
X102392000Y-125220000D03*
D21*
X98212000Y-133860000D03*
X98212000Y-125220000D03*
%TD*%
D14*
%TO.P,R4,1*%
%TO.N,GND*%
X103782500Y-136144000D03*
%TO.P,R4,2*%
%TO.N,/CC2*%
X101957500Y-136144000D03*
%TD*%
D22*
%TO.P,C1,1*%
%TO.N,+5V*%
X115999500Y-127906500D03*
%TO.P,C1,2*%
%TO.N,GND*%
X115999500Y-129806500D03*
%TD*%
D13*
%TO.P,C4,1*%
%TO.N,/3V3*%
X106426000Y-126746000D03*
%TO.P,C4,2*%
%TO.N,GND*%
X106426000Y-124846000D03*
%TD*%
D23*
%TO.P,U2,1,UD+*%
%TO.N,/USBD+*%
X106045000Y-133793000D03*
%TO.P,U2,2,UD-*%
%TO.N,/USBD-*%
X107315000Y-133793000D03*
%TO.P,U2,3,GND*%
%TO.N,GND*%
X108585000Y-133793000D03*
%TO.P,U2,4,~{RTS}*%
%TO.N,/~{RTS}*%
X109855000Y-133793000D03*
%TO.P,U2,5,VCC*%
%TO.N,VCC*%
X109855000Y-128843000D03*
%TO.P,U2,6,TXD*%
%TO.N,/TXD*%
X108585000Y-128843000D03*
%TO.P,U2,7,RXD*%
%TO.N,/RXD*%
X107315000Y-128843000D03*
%TO.P,U2,8,V3*%
%TO.N,/3V3*%
X106045000Y-128843000D03*
%TD*%
D22*
%TO.P,C2,1*%
%TO.N,+3V3*%
X122095500Y-127906500D03*
%TO.P,C2,2*%
%TO.N,GND*%
X122095500Y-129806500D03*
%TD*%
D24*
%TO.N,GND*%
X118364000Y-129794000D03*
%TO.N,VCC*%
X117348000Y-127254000D03*
X117856000Y-130810000D03*
%TO.N,/RXD*%
X108712000Y-130556000D03*
%TO.N,/TXD*%
X110490000Y-130556000D03*
%TO.N,Net-(F1-Pad1)*%
X104902000Y-128270000D03*
X104648000Y-131826000D03*
X113284000Y-131064000D03*
%TO.N,/~{RTS}*%
X109982000Y-135636000D03*
%TD*%
D25*
%TO.N,+5V*%
X115606000Y-125128000D02*
X115606000Y-126782000D01*
X115606000Y-126782000D02*
X115999500Y-127175500D01*
X113792000Y-127899000D02*
X115992000Y-127899000D01*
X115992000Y-127899000D02*
X115999500Y-127906500D01*
X115999500Y-127906500D02*
X116476500Y-127906500D01*
X116476500Y-127906500D02*
X117348000Y-128778000D01*
X115999500Y-127175500D02*
X115999500Y-127906500D01*
X117348000Y-128778000D02*
X118110000Y-128778000D01*
D26*
%TO.N,GND*%
X103307000Y-126290000D02*
X104596000Y-126290000D01*
X104596000Y-126290000D02*
X104902000Y-125984000D01*
D25*
%TO.N,+3V3*%
X120106000Y-125382000D02*
X120106000Y-125948000D01*
X120063500Y-127906500D02*
X119985000Y-127828000D01*
X122095500Y-127175500D02*
X122095500Y-127906500D01*
X122095500Y-127906500D02*
X120063500Y-127906500D01*
X121412000Y-126492000D02*
X122095500Y-127175500D01*
X120106000Y-125948000D02*
X120650000Y-126492000D01*
X120650000Y-126492000D02*
X121412000Y-126492000D01*
%TO.N,VCC*%
X121990480Y-130880480D02*
X122475000Y-131365000D01*
X122475000Y-136144000D02*
X122475000Y-134112000D01*
X111389501Y-128407501D02*
X111389501Y-130947501D01*
X117106000Y-125128000D02*
X117106000Y-125742000D01*
X117106000Y-125742000D02*
X117348000Y-125984000D01*
X112776000Y-132334000D02*
X114300000Y-132334000D01*
X109855000Y-128843000D02*
X109855000Y-126873000D01*
X117856000Y-130810000D02*
X117926480Y-130880480D01*
X122475000Y-131365000D02*
X122475000Y-132080000D01*
X109728000Y-126746000D02*
X109982000Y-127000000D01*
X111389501Y-130947501D02*
X112776000Y-132334000D01*
X109728000Y-126746000D02*
X111389501Y-128407501D01*
X117348000Y-127254000D02*
X117348000Y-125984000D01*
X115824000Y-130810000D02*
X117856000Y-130810000D01*
X114300000Y-132334000D02*
X115824000Y-130810000D01*
X122475000Y-134112000D02*
X122475000Y-132080000D01*
X117926480Y-130880480D02*
X121990480Y-130880480D01*
D26*
%TO.N,/3V3*%
X106172000Y-128716000D02*
X106045000Y-128843000D01*
X106172000Y-126746000D02*
X106172000Y-128716000D01*
%TO.N,Net-(D1-Pad2)*%
X120650000Y-136398000D02*
X119016000Y-136398000D01*
%TO.N,/RXD*%
X108204000Y-130810000D02*
X108674501Y-131280501D01*
X108199700Y-130814300D02*
X108204000Y-130810000D01*
X108674501Y-131280501D02*
X109520099Y-131280501D01*
X108458000Y-130556000D02*
X108712000Y-130556000D01*
X108204000Y-130810000D02*
X108458000Y-130556000D01*
X107315000Y-129929600D02*
X107315000Y-128843000D01*
X112351598Y-134112000D02*
X117141000Y-134112000D01*
X109520099Y-131280501D02*
X112351598Y-134112000D01*
X108199700Y-130814300D02*
X107315000Y-129929600D01*
%TO.N,Net-(D2-Pad2)*%
X120650000Y-134366000D02*
X119016000Y-134366000D01*
%TO.N,/TXD*%
X112384511Y-132958511D02*
X110490000Y-131064000D01*
X110490000Y-131064000D02*
X110490000Y-130556000D01*
X108585000Y-128843000D02*
X108585000Y-129404400D01*
X116262489Y-132958511D02*
X112384511Y-132958511D01*
X109736600Y-130556000D02*
X110490000Y-130556000D01*
X108585000Y-129404400D02*
X109736600Y-130556000D01*
X117141000Y-132080000D02*
X116262489Y-132958511D01*
%TO.N,Net-(D3-Pad2)*%
X120650000Y-132334000D02*
X119016000Y-132334000D01*
D25*
%TO.N,Net-(F1-Pad1)*%
X113792000Y-129774000D02*
X113792000Y-130556000D01*
X103307000Y-131990000D02*
X104484000Y-131990000D01*
X104632000Y-127090000D02*
X104902000Y-127360000D01*
X113792000Y-130556000D02*
X113284000Y-131064000D01*
X103307000Y-127090000D02*
X104632000Y-127090000D01*
X104902000Y-127360000D02*
X104902000Y-128270000D01*
X104484000Y-131990000D02*
X104648000Y-131826000D01*
D26*
%TO.N,/CC1*%
X101957500Y-122936000D02*
X101346000Y-122936000D01*
X101346000Y-122936000D02*
X100584000Y-123698000D01*
X100584000Y-123698000D02*
X100584000Y-127762000D01*
X100584000Y-127762000D02*
X101112000Y-128290000D01*
X101112000Y-128290000D02*
X103307000Y-128290000D01*
D27*
%TO.N,/USBD+*%
X104990514Y-130701520D02*
X106768514Y-130701520D01*
X103307000Y-129290000D02*
X102358000Y-129290000D01*
X103307000Y-130290000D02*
X104578994Y-130290000D01*
X102108000Y-129540000D02*
X102108000Y-130048000D01*
X102350000Y-130290000D02*
X103307000Y-130290000D01*
X104578994Y-130290000D02*
X104990514Y-130701520D01*
X106915480Y-132352520D02*
X106045000Y-133223000D01*
X106045000Y-133223000D02*
X106045000Y-133793000D01*
X106768514Y-130701520D02*
X106915480Y-130848486D01*
X102358000Y-129290000D02*
X102108000Y-129540000D01*
X106915480Y-130848486D02*
X106915480Y-132352520D01*
X102108000Y-130048000D02*
X102350000Y-130290000D01*
%TO.N,/USBD-*%
X104648000Y-129423022D02*
X104648000Y-129032000D01*
X103307000Y-129790000D02*
X104644000Y-129790000D01*
X104648000Y-129032000D02*
X104406000Y-128790000D01*
X105156000Y-130302000D02*
X106934000Y-130302000D01*
X104406000Y-128790000D02*
X103307000Y-128790000D01*
X104644000Y-129790000D02*
X105156000Y-130302000D01*
X106934000Y-130302000D02*
X107315000Y-130683000D01*
X104281022Y-129790000D02*
X104648000Y-129423022D01*
X107315000Y-130683000D02*
X107315000Y-133793000D01*
D26*
%TO.N,/CC2*%
X101957500Y-136144000D02*
X101092000Y-136144000D01*
X100584000Y-132080000D02*
X101374000Y-131290000D01*
X101092000Y-136144000D02*
X100584000Y-135636000D01*
X101374000Y-131290000D02*
X103307000Y-131290000D01*
X100584000Y-135636000D02*
X100584000Y-132080000D01*
%TO.N,/~{RTS}*%
X109982000Y-135636000D02*
X109855000Y-135509000D01*
X109855000Y-135509000D02*
X109855000Y-133793000D01*
%TD*%
%TA.AperFunction,Conductor*%
%TO.N,GND*%
G36*
X108132012Y-131634372D02*
G01*
X108138595Y-131640501D01*
X108170853Y-131672759D01*
X108178388Y-131681039D01*
X108182501Y-131687519D01*
X108194621Y-131698900D01*
X108232152Y-131734144D01*
X108234994Y-131736899D01*
X108254731Y-131756636D01*
X108257928Y-131759116D01*
X108266948Y-131766819D01*
X108299180Y-131797087D01*
X108306126Y-131800906D01*
X108306129Y-131800908D01*
X108316935Y-131806849D01*
X108333454Y-131817700D01*
X108349460Y-131830115D01*
X108356729Y-131833260D01*
X108356733Y-131833263D01*
X108390038Y-131847675D01*
X108400688Y-131852892D01*
X108439441Y-131874196D01*
X108447116Y-131876167D01*
X108447117Y-131876167D01*
X108459063Y-131879234D01*
X108477768Y-131885638D01*
X108496356Y-131893682D01*
X108504179Y-131894921D01*
X108504189Y-131894924D01*
X108540025Y-131900600D01*
X108551645Y-131903006D01*
X108577672Y-131909688D01*
X108594471Y-131914001D01*
X108614725Y-131914001D01*
X108634435Y-131915552D01*
X108654444Y-131918721D01*
X108662336Y-131917975D01*
X108698462Y-131914560D01*
X108710320Y-131914001D01*
X109205505Y-131914001D01*
X109273626Y-131934003D01*
X109294600Y-131950906D01*
X109493328Y-132149634D01*
X109527354Y-132211946D01*
X109522289Y-132282761D01*
X109479742Y-132339597D01*
X109454276Y-132354365D01*
X109449012Y-132356643D01*
X109441399Y-132358855D01*
X109298193Y-132443547D01*
X109295253Y-132446487D01*
X109230729Y-132471821D01*
X109161106Y-132457920D01*
X109142360Y-132445871D01*
X109134677Y-132439911D01*
X109005221Y-132363352D01*
X108990790Y-132357107D01*
X108856395Y-132318061D01*
X108842294Y-132318101D01*
X108839000Y-132325370D01*
X108839000Y-135254878D01*
X108842973Y-135268409D01*
X108850871Y-135269544D01*
X108948036Y-135241315D01*
X109019032Y-135241518D01*
X109078648Y-135280072D01*
X109107957Y-135344736D01*
X109103022Y-135401248D01*
X109100818Y-135408031D01*
X109088458Y-135446072D01*
X109087768Y-135452633D01*
X109087768Y-135452635D01*
X109078082Y-135544794D01*
X109068496Y-135636000D01*
X109069186Y-135642565D01*
X109085219Y-135795106D01*
X109088458Y-135825928D01*
X109147473Y-136007556D01*
X109150776Y-136013278D01*
X109150777Y-136013279D01*
X109167176Y-136041683D01*
X109242960Y-136172944D01*
X109247378Y-136177851D01*
X109247379Y-136177852D01*
X109332150Y-136272000D01*
X109370747Y-136314866D01*
X109383790Y-136324342D01*
X109487471Y-136399671D01*
X109525248Y-136427118D01*
X109531276Y-136429802D01*
X109531278Y-136429803D01*
X109693681Y-136502109D01*
X109699712Y-136504794D01*
X109793112Y-136524647D01*
X109880056Y-136543128D01*
X109880061Y-136543128D01*
X109886513Y-136544500D01*
X110077487Y-136544500D01*
X110083939Y-136543128D01*
X110083944Y-136543128D01*
X110170888Y-136524647D01*
X110264288Y-136504794D01*
X110270319Y-136502109D01*
X110432722Y-136429803D01*
X110432724Y-136429802D01*
X110438752Y-136427118D01*
X110476530Y-136399671D01*
X110580210Y-136324342D01*
X110593253Y-136314866D01*
X110631850Y-136272000D01*
X110716621Y-136177852D01*
X110716622Y-136177851D01*
X110721040Y-136172944D01*
X110796824Y-136041683D01*
X110813223Y-136013279D01*
X110813224Y-136013278D01*
X110816527Y-136007556D01*
X110875542Y-135825928D01*
X110878782Y-135795106D01*
X110894814Y-135642565D01*
X110895504Y-135636000D01*
X110885918Y-135544794D01*
X110876232Y-135452635D01*
X110876232Y-135452633D01*
X110875542Y-135446072D01*
X110816527Y-135264444D01*
X110811586Y-135255885D01*
X110759511Y-135165689D01*
X110721040Y-135099056D01*
X110638680Y-135007586D01*
X110607965Y-134943582D01*
X110615594Y-134882022D01*
X110614145Y-134881601D01*
X110618932Y-134865124D01*
X110660562Y-134721831D01*
X110661242Y-134713199D01*
X110663307Y-134686958D01*
X110663307Y-134686950D01*
X110663500Y-134684502D01*
X110663500Y-133623996D01*
X110683502Y-133555875D01*
X110737158Y-133509382D01*
X110807432Y-133499278D01*
X110872012Y-133528772D01*
X110878595Y-133534901D01*
X111847941Y-134504247D01*
X111855485Y-134512537D01*
X111859598Y-134519018D01*
X111865375Y-134524443D01*
X111909265Y-134565658D01*
X111912107Y-134568413D01*
X111931828Y-134588134D01*
X111935023Y-134590612D01*
X111944045Y-134598318D01*
X111976277Y-134628586D01*
X111983226Y-134632406D01*
X111994030Y-134638346D01*
X112010554Y-134649199D01*
X112026557Y-134661613D01*
X112067141Y-134679176D01*
X112077771Y-134684383D01*
X112116538Y-134705695D01*
X112124215Y-134707666D01*
X112124220Y-134707668D01*
X112136156Y-134710732D01*
X112154864Y-134717137D01*
X112173453Y-134725181D01*
X112181281Y-134726421D01*
X112181288Y-134726423D01*
X112217122Y-134732099D01*
X112228742Y-134734505D01*
X112263887Y-134743528D01*
X112271568Y-134745500D01*
X112291822Y-134745500D01*
X112311532Y-134747051D01*
X112331541Y-134750220D01*
X112339433Y-134749474D01*
X112375559Y-134746059D01*
X112387417Y-134745500D01*
X116032364Y-134745500D01*
X116100485Y-134765502D01*
X116146978Y-134819158D01*
X116155259Y-134844102D01*
X116155884Y-134850129D01*
X116211398Y-135016526D01*
X116303703Y-135165689D01*
X116367018Y-135228893D01*
X116367802Y-135229676D01*
X116401881Y-135291958D01*
X116396878Y-135362778D01*
X116367957Y-135407867D01*
X116308449Y-135467479D01*
X116299437Y-135478890D01*
X116215135Y-135615654D01*
X116208991Y-135628832D01*
X116158273Y-135781740D01*
X116155407Y-135795106D01*
X116145828Y-135888601D01*
X116145500Y-135895016D01*
X116145500Y-136125885D01*
X116149975Y-136141124D01*
X116151365Y-136142329D01*
X116159048Y-136144000D01*
X117269000Y-136144000D01*
X117337121Y-136164002D01*
X117383614Y-136217658D01*
X117395000Y-136270000D01*
X117395000Y-136526000D01*
X117374998Y-136594121D01*
X117321342Y-136640614D01*
X117269000Y-136652000D01*
X116163616Y-136652000D01*
X116148377Y-136656475D01*
X116147172Y-136657865D01*
X116145501Y-136665548D01*
X116145501Y-136900933D01*
X116145838Y-136907452D01*
X116155665Y-137002167D01*
X116156796Y-137007403D01*
X116151624Y-137078211D01*
X116108992Y-137134982D01*
X116042434Y-137159692D01*
X116033635Y-137160000D01*
X104812260Y-137160000D01*
X104744139Y-137139998D01*
X104697646Y-137086342D01*
X104687542Y-137016068D01*
X104705000Y-136967884D01*
X104732816Y-136922757D01*
X104738963Y-136909576D01*
X104790138Y-136755290D01*
X104793005Y-136741914D01*
X104802672Y-136647562D01*
X104803000Y-136641146D01*
X104803000Y-136416115D01*
X104798525Y-136400876D01*
X104797135Y-136399671D01*
X104789452Y-136398000D01*
X103654500Y-136398000D01*
X103586379Y-136377998D01*
X103539886Y-136324342D01*
X103528500Y-136272000D01*
X103528500Y-135871885D01*
X104036500Y-135871885D01*
X104040975Y-135887124D01*
X104042365Y-135888329D01*
X104050048Y-135890000D01*
X104784884Y-135890000D01*
X104800123Y-135885525D01*
X104801328Y-135884135D01*
X104802999Y-135876452D01*
X104802999Y-135646905D01*
X104802662Y-135640386D01*
X104792743Y-135544794D01*
X104789851Y-135531400D01*
X104738412Y-135377216D01*
X104732239Y-135364038D01*
X104646937Y-135226193D01*
X104637901Y-135214792D01*
X104523171Y-135100261D01*
X104511760Y-135091249D01*
X104373757Y-135006184D01*
X104360576Y-135000037D01*
X104206290Y-134948862D01*
X104192914Y-134945995D01*
X104098562Y-134936328D01*
X104092145Y-134936000D01*
X104054615Y-134936000D01*
X104039376Y-134940475D01*
X104038171Y-134941865D01*
X104036500Y-134949548D01*
X104036500Y-135871885D01*
X103528500Y-135871885D01*
X103528500Y-134954116D01*
X103524025Y-134938877D01*
X103513244Y-134929535D01*
X103469483Y-134905640D01*
X103435458Y-134843328D01*
X103440522Y-134772513D01*
X103483068Y-134715677D01*
X103491986Y-134710015D01*
X103491943Y-134709951D01*
X103507294Y-134699751D01*
X103650933Y-134582603D01*
X103659637Y-134573959D01*
X103777784Y-134431144D01*
X103784644Y-134420973D01*
X103872804Y-134257924D01*
X103877556Y-134246619D01*
X103913250Y-134131308D01*
X103913456Y-134117205D01*
X103906701Y-134114000D01*
X102264000Y-134114000D01*
X102195879Y-134093998D01*
X102149386Y-134040342D01*
X102138000Y-133988000D01*
X102138000Y-133305830D01*
X102158002Y-133237709D01*
X102210218Y-133192257D01*
X102213675Y-133191094D01*
X102221496Y-133186395D01*
X102306591Y-133135265D01*
X102368905Y-133097823D01*
X102373862Y-133093135D01*
X102373865Y-133093133D01*
X102432472Y-133037710D01*
X102433427Y-133036807D01*
X102496664Y-133004535D01*
X102567311Y-133011575D01*
X102622937Y-133055691D01*
X102646000Y-133128355D01*
X102646000Y-133587885D01*
X102650475Y-133603124D01*
X102651865Y-133604329D01*
X102659548Y-133606000D01*
X103034885Y-133606000D01*
X103050124Y-133601525D01*
X103051329Y-133600135D01*
X103053000Y-133592452D01*
X103053000Y-133062115D01*
X103048525Y-133046876D01*
X103037947Y-133037710D01*
X102993786Y-133013596D01*
X102959761Y-132951284D01*
X102964825Y-132880468D01*
X103007372Y-132823632D01*
X103073892Y-132798821D01*
X103082881Y-132798500D01*
X103435000Y-132798500D01*
X103503121Y-132818502D01*
X103549614Y-132872158D01*
X103561000Y-132924500D01*
X103561000Y-133587885D01*
X103565475Y-133603124D01*
X103566865Y-133604329D01*
X103574548Y-133606000D01*
X103899924Y-133606000D01*
X103909790Y-133603103D01*
X103945288Y-133597999D01*
X104076669Y-133597999D01*
X104083490Y-133597629D01*
X104134352Y-133592105D01*
X104149604Y-133588479D01*
X104270054Y-133543324D01*
X104285649Y-133534786D01*
X104387724Y-133458285D01*
X104400285Y-133445724D01*
X104476786Y-133343649D01*
X104485324Y-133328054D01*
X104530478Y-133207606D01*
X104534105Y-133192351D01*
X104539631Y-133141486D01*
X104540000Y-133134672D01*
X104540000Y-132909992D01*
X104560002Y-132841871D01*
X104613658Y-132795378D01*
X104651953Y-132784777D01*
X104657257Y-132784182D01*
X104664255Y-132783397D01*
X104670906Y-132781081D01*
X104670910Y-132781080D01*
X104695930Y-132772367D01*
X104710742Y-132768204D01*
X104736619Y-132762609D01*
X104743510Y-132761119D01*
X104782813Y-132742792D01*
X104794589Y-132738010D01*
X104835552Y-132723745D01*
X104841525Y-132720013D01*
X104847878Y-132716969D01*
X104848375Y-132718005D01*
X104878658Y-132705769D01*
X104930288Y-132694794D01*
X105093910Y-132621945D01*
X105164277Y-132612511D01*
X105228574Y-132642617D01*
X105266388Y-132702706D01*
X105266156Y-132772204D01*
X105262904Y-132783397D01*
X105241232Y-132857992D01*
X105241231Y-132857997D01*
X105239438Y-132864169D01*
X105238934Y-132870574D01*
X105238933Y-132870579D01*
X105238809Y-132872158D01*
X105236500Y-132901498D01*
X105236500Y-134684502D01*
X105236693Y-134686950D01*
X105236693Y-134686958D01*
X105238759Y-134713199D01*
X105239438Y-134721831D01*
X105258662Y-134788002D01*
X105281904Y-134868000D01*
X105285855Y-134881601D01*
X105289892Y-134888427D01*
X105366509Y-135017980D01*
X105366511Y-135017983D01*
X105370547Y-135024807D01*
X105488193Y-135142453D01*
X105495016Y-135146488D01*
X105495020Y-135146491D01*
X105544591Y-135175807D01*
X105631399Y-135227145D01*
X105639010Y-135229356D01*
X105639012Y-135229357D01*
X105680173Y-135241315D01*
X105791169Y-135273562D01*
X105797574Y-135274066D01*
X105797579Y-135274067D01*
X105826042Y-135276307D01*
X105826050Y-135276307D01*
X105828498Y-135276500D01*
X106261502Y-135276500D01*
X106263950Y-135276307D01*
X106263958Y-135276307D01*
X106292421Y-135274067D01*
X106292426Y-135274066D01*
X106298831Y-135273562D01*
X106409827Y-135241315D01*
X106450988Y-135229357D01*
X106450990Y-135229356D01*
X106458601Y-135227145D01*
X106601807Y-135142453D01*
X106604489Y-135139771D01*
X106668861Y-135114498D01*
X106738484Y-135128400D01*
X106754312Y-135138572D01*
X106758193Y-135142453D01*
X106901399Y-135227145D01*
X106909010Y-135229356D01*
X106909012Y-135229357D01*
X106950173Y-135241315D01*
X107061169Y-135273562D01*
X107067574Y-135274066D01*
X107067579Y-135274067D01*
X107096042Y-135276307D01*
X107096050Y-135276307D01*
X107098498Y-135276500D01*
X107531502Y-135276500D01*
X107533950Y-135276307D01*
X107533958Y-135276307D01*
X107562421Y-135274067D01*
X107562426Y-135274066D01*
X107568831Y-135273562D01*
X107679827Y-135241315D01*
X107720988Y-135229357D01*
X107720990Y-135229356D01*
X107728601Y-135227145D01*
X107871807Y-135142453D01*
X107874747Y-135139513D01*
X107939271Y-135114179D01*
X108008894Y-135128080D01*
X108027640Y-135140129D01*
X108035323Y-135146089D01*
X108164779Y-135222648D01*
X108179210Y-135228893D01*
X108313605Y-135267939D01*
X108327706Y-135267899D01*
X108331000Y-135260630D01*
X108331000Y-132331122D01*
X108327027Y-132317591D01*
X108319129Y-132316456D01*
X108179210Y-132357107D01*
X108164779Y-132363352D01*
X108113639Y-132393596D01*
X108044823Y-132411055D01*
X107977492Y-132388538D01*
X107933022Y-132333194D01*
X107923500Y-132285142D01*
X107923500Y-131729596D01*
X107943502Y-131661475D01*
X107997158Y-131614982D01*
X108067432Y-131604878D01*
X108132012Y-131634372D01*
G37*
%TD.AperFunction*%
%TA.AperFunction,Conductor*%
G36*
X100991575Y-121946002D02*
G01*
X101038068Y-121999658D01*
X101048172Y-122069932D01*
X101030713Y-122118117D01*
X101002885Y-122163262D01*
X100947203Y-122331139D01*
X100946503Y-122337975D01*
X100946502Y-122337978D01*
X100940120Y-122400269D01*
X100913279Y-122465996D01*
X100909516Y-122470075D01*
X100908893Y-122470528D01*
X100907107Y-122472687D01*
X100880712Y-122504593D01*
X100872722Y-122513374D01*
X100191742Y-123194353D01*
X100183463Y-123201887D01*
X100176982Y-123206000D01*
X100130357Y-123255651D01*
X100127602Y-123258493D01*
X100107865Y-123278230D01*
X100105385Y-123281427D01*
X100097682Y-123290447D01*
X100067414Y-123322679D01*
X100063595Y-123329625D01*
X100063593Y-123329628D01*
X100057652Y-123340434D01*
X100046801Y-123356953D01*
X100034386Y-123372959D01*
X100031241Y-123380228D01*
X100031238Y-123380232D01*
X100016826Y-123413537D01*
X100011609Y-123424187D01*
X99990305Y-123462940D01*
X99988334Y-123470615D01*
X99988334Y-123470616D01*
X99985267Y-123482562D01*
X99978863Y-123501266D01*
X99970819Y-123519855D01*
X99969580Y-123527678D01*
X99969577Y-123527688D01*
X99963901Y-123563524D01*
X99961495Y-123575144D01*
X99952472Y-123610289D01*
X99950500Y-123617970D01*
X99950500Y-123638224D01*
X99948949Y-123657934D01*
X99945780Y-123677943D01*
X99946526Y-123685835D01*
X99949941Y-123721961D01*
X99950500Y-123733819D01*
X99950500Y-127683233D01*
X99949973Y-127694416D01*
X99948298Y-127701909D01*
X99948547Y-127709835D01*
X99948547Y-127709836D01*
X99950438Y-127769986D01*
X99950500Y-127773945D01*
X99950500Y-127801856D01*
X99950997Y-127805790D01*
X99950997Y-127805791D01*
X99951005Y-127805856D01*
X99951938Y-127817693D01*
X99953327Y-127861889D01*
X99956514Y-127872858D01*
X99958978Y-127881339D01*
X99962987Y-127900700D01*
X99965526Y-127920797D01*
X99968445Y-127928168D01*
X99968445Y-127928170D01*
X99981804Y-127961912D01*
X99985649Y-127973142D01*
X99995771Y-128007983D01*
X99997982Y-128015593D01*
X100002015Y-128022412D01*
X100002017Y-128022417D01*
X100008293Y-128033028D01*
X100016988Y-128050776D01*
X100024448Y-128069617D01*
X100029110Y-128076033D01*
X100029110Y-128076034D01*
X100050436Y-128105387D01*
X100056952Y-128115307D01*
X100079458Y-128153362D01*
X100093779Y-128167683D01*
X100106619Y-128182716D01*
X100118528Y-128199107D01*
X100144503Y-128220595D01*
X100152593Y-128227288D01*
X100161374Y-128235278D01*
X100608353Y-128682258D01*
X100615887Y-128690537D01*
X100620000Y-128697018D01*
X100663230Y-128737613D01*
X100669651Y-128743643D01*
X100672493Y-128746398D01*
X100692230Y-128766135D01*
X100695427Y-128768615D01*
X100704447Y-128776318D01*
X100736679Y-128806586D01*
X100743625Y-128810405D01*
X100743628Y-128810407D01*
X100754434Y-128816348D01*
X100770953Y-128827199D01*
X100786959Y-128839614D01*
X100794228Y-128842759D01*
X100794232Y-128842762D01*
X100827537Y-128857174D01*
X100838187Y-128862391D01*
X100876940Y-128883695D01*
X100884615Y-128885666D01*
X100884616Y-128885666D01*
X100896562Y-128888733D01*
X100915266Y-128895137D01*
X100926502Y-128899999D01*
X100933855Y-128903181D01*
X100941678Y-128904420D01*
X100941688Y-128904423D01*
X100977524Y-128910099D01*
X100989144Y-128912505D01*
X101024289Y-128921528D01*
X101031970Y-128923500D01*
X101052224Y-128923500D01*
X101071934Y-128925051D01*
X101091943Y-128928220D01*
X101099835Y-128927474D01*
X101135961Y-128924059D01*
X101147819Y-128923500D01*
X101558558Y-128923500D01*
X101626679Y-128943502D01*
X101673172Y-128997158D01*
X101683276Y-129067432D01*
X101658524Y-129126199D01*
X101649526Y-129137925D01*
X101649523Y-129137928D01*
X101649517Y-129137935D01*
X101649515Y-129137938D01*
X101594089Y-129210171D01*
X101576476Y-129233124D01*
X101515644Y-129379986D01*
X101515162Y-129381150D01*
X101499500Y-129500115D01*
X101499500Y-129500120D01*
X101494250Y-129540000D01*
X101497725Y-129566392D01*
X101498422Y-129571690D01*
X101499500Y-129588136D01*
X101499500Y-129999864D01*
X101498422Y-130016307D01*
X101494250Y-130048000D01*
X101499500Y-130087880D01*
X101499500Y-130087885D01*
X101510624Y-130172374D01*
X101511392Y-130178210D01*
X101511392Y-130178212D01*
X101513208Y-130192004D01*
X101515162Y-130206851D01*
X101576476Y-130354876D01*
X101581503Y-130361427D01*
X101581504Y-130361429D01*
X101649523Y-130450072D01*
X101649529Y-130450079D01*
X101652384Y-130453800D01*
X101677983Y-130520021D01*
X101663715Y-130589569D01*
X101614112Y-130640363D01*
X101552419Y-130656500D01*
X101452768Y-130656500D01*
X101441585Y-130655973D01*
X101434092Y-130654298D01*
X101426166Y-130654547D01*
X101426165Y-130654547D01*
X101366002Y-130656438D01*
X101362044Y-130656500D01*
X101334144Y-130656500D01*
X101330154Y-130657004D01*
X101318320Y-130657936D01*
X101274111Y-130659326D01*
X101266497Y-130661538D01*
X101266492Y-130661539D01*
X101254659Y-130664977D01*
X101235296Y-130668988D01*
X101215203Y-130671526D01*
X101207836Y-130674443D01*
X101207831Y-130674444D01*
X101174092Y-130687802D01*
X101162865Y-130691646D01*
X101120407Y-130703982D01*
X101113581Y-130708019D01*
X101102972Y-130714293D01*
X101085224Y-130722988D01*
X101066383Y-130730448D01*
X101059967Y-130735110D01*
X101059966Y-130735110D01*
X101030613Y-130756436D01*
X101020693Y-130762952D01*
X100989465Y-130781420D01*
X100989462Y-130781422D01*
X100982638Y-130785458D01*
X100968317Y-130799779D01*
X100953284Y-130812619D01*
X100936893Y-130824528D01*
X100931842Y-130830633D01*
X100931837Y-130830638D01*
X100908701Y-130858604D01*
X100900713Y-130867382D01*
X100191747Y-131576348D01*
X100183461Y-131583888D01*
X100176982Y-131588000D01*
X100171557Y-131593777D01*
X100130357Y-131637651D01*
X100127602Y-131640493D01*
X100107865Y-131660230D01*
X100105385Y-131663427D01*
X100097682Y-131672447D01*
X100067414Y-131704679D01*
X100063595Y-131711625D01*
X100063593Y-131711628D01*
X100057652Y-131722434D01*
X100046801Y-131738953D01*
X100034386Y-131754959D01*
X100031241Y-131762228D01*
X100031238Y-131762232D01*
X100016826Y-131795537D01*
X100011609Y-131806187D01*
X99990305Y-131844940D01*
X99988334Y-131852615D01*
X99988334Y-131852616D01*
X99985267Y-131864562D01*
X99978863Y-131883266D01*
X99970819Y-131901855D01*
X99969580Y-131909678D01*
X99969577Y-131909688D01*
X99963901Y-131945524D01*
X99961495Y-131957144D01*
X99950500Y-131999970D01*
X99950500Y-132020224D01*
X99948949Y-132039934D01*
X99945780Y-132059943D01*
X99946526Y-132067835D01*
X99949941Y-132103961D01*
X99950500Y-132115819D01*
X99950500Y-135557233D01*
X99949973Y-135568416D01*
X99948298Y-135575909D01*
X99948547Y-135583835D01*
X99948547Y-135583836D01*
X99950438Y-135643986D01*
X99950500Y-135647945D01*
X99950500Y-135675856D01*
X99950997Y-135679790D01*
X99950997Y-135679791D01*
X99951005Y-135679856D01*
X99951938Y-135691693D01*
X99953327Y-135735889D01*
X99958978Y-135755339D01*
X99962987Y-135774700D01*
X99965526Y-135794797D01*
X99968445Y-135802168D01*
X99968445Y-135802170D01*
X99981804Y-135835912D01*
X99985649Y-135847142D01*
X99997982Y-135889593D01*
X100002015Y-135896412D01*
X100002017Y-135896417D01*
X100008293Y-135907028D01*
X100016988Y-135924776D01*
X100024448Y-135943617D01*
X100029110Y-135950033D01*
X100029110Y-135950034D01*
X100050436Y-135979387D01*
X100056952Y-135989307D01*
X100067745Y-136007556D01*
X100079458Y-136027362D01*
X100093779Y-136041683D01*
X100106619Y-136056716D01*
X100118528Y-136073107D01*
X100124634Y-136078158D01*
X100152605Y-136101298D01*
X100161384Y-136109288D01*
X100588343Y-136536247D01*
X100595887Y-136544537D01*
X100600000Y-136551018D01*
X100605777Y-136556443D01*
X100649667Y-136597658D01*
X100652509Y-136600413D01*
X100672230Y-136620134D01*
X100675425Y-136622612D01*
X100684447Y-136630318D01*
X100716679Y-136660586D01*
X100723628Y-136664406D01*
X100734432Y-136670346D01*
X100750956Y-136681199D01*
X100766959Y-136693613D01*
X100807543Y-136711176D01*
X100818173Y-136716383D01*
X100856940Y-136737695D01*
X100864617Y-136739666D01*
X100864622Y-136739668D01*
X100876558Y-136742732D01*
X100895271Y-136749139D01*
X100904220Y-136753012D01*
X100958793Y-136798425D01*
X100973698Y-136828770D01*
X101000658Y-136909576D01*
X101003450Y-136917946D01*
X101007301Y-136924170D01*
X101007302Y-136924171D01*
X101034237Y-136967697D01*
X101053075Y-137036149D01*
X101031914Y-137103918D01*
X100977473Y-137149490D01*
X100927093Y-137160000D01*
X95630000Y-137160000D01*
X95561879Y-137139998D01*
X95515386Y-137086342D01*
X95504000Y-137034000D01*
X95504000Y-134125768D01*
X96939425Y-134125768D01*
X96971138Y-134233521D01*
X96975731Y-134244889D01*
X97061607Y-134409154D01*
X97068321Y-134419415D01*
X97184468Y-134563873D01*
X97193046Y-134572632D01*
X97335039Y-134691778D01*
X97345159Y-134698708D01*
X97507585Y-134788002D01*
X97518858Y-134792834D01*
X97695538Y-134848880D01*
X97707532Y-134851430D01*
X97851761Y-134867607D01*
X97858785Y-134868000D01*
X97939885Y-134868000D01*
X97955124Y-134863525D01*
X97956329Y-134862135D01*
X97958000Y-134854452D01*
X97958000Y-134849885D01*
X98466000Y-134849885D01*
X98470475Y-134865124D01*
X98471865Y-134866329D01*
X98479548Y-134868000D01*
X98558657Y-134868000D01*
X98564805Y-134867699D01*
X98702603Y-134854188D01*
X98714638Y-134851805D01*
X98892076Y-134798233D01*
X98903416Y-134793559D01*
X99067077Y-134706540D01*
X99077294Y-134699751D01*
X99220933Y-134582603D01*
X99229637Y-134573959D01*
X99347784Y-134431144D01*
X99354644Y-134420973D01*
X99442804Y-134257924D01*
X99447556Y-134246619D01*
X99483250Y-134131308D01*
X99483456Y-134117205D01*
X99476701Y-134114000D01*
X98484115Y-134114000D01*
X98468876Y-134118475D01*
X98467671Y-134119865D01*
X98466000Y-134127548D01*
X98466000Y-134849885D01*
X97958000Y-134849885D01*
X97958000Y-134132115D01*
X97953525Y-134116876D01*
X97952135Y-134115671D01*
X97944452Y-134114000D01*
X96954076Y-134114000D01*
X96940545Y-134117973D01*
X96939425Y-134125768D01*
X95504000Y-134125768D01*
X95504000Y-133602795D01*
X96940544Y-133602795D01*
X96947299Y-133606000D01*
X97939885Y-133606000D01*
X97955124Y-133601525D01*
X97956329Y-133600135D01*
X97958000Y-133592452D01*
X97958000Y-133587885D01*
X98466000Y-133587885D01*
X98470475Y-133603124D01*
X98471865Y-133604329D01*
X98479548Y-133606000D01*
X99469924Y-133606000D01*
X99483455Y-133602027D01*
X99484575Y-133594232D01*
X99452862Y-133486479D01*
X99448269Y-133475111D01*
X99362393Y-133310846D01*
X99355679Y-133300585D01*
X99239532Y-133156127D01*
X99230954Y-133147368D01*
X99088961Y-133028222D01*
X99078841Y-133021292D01*
X98916415Y-132931998D01*
X98905142Y-132927166D01*
X98728462Y-132871120D01*
X98716468Y-132868570D01*
X98572239Y-132852393D01*
X98565215Y-132852000D01*
X98484115Y-132852000D01*
X98468876Y-132856475D01*
X98467671Y-132857865D01*
X98466000Y-132865548D01*
X98466000Y-133587885D01*
X97958000Y-133587885D01*
X97958000Y-132870115D01*
X97953525Y-132854876D01*
X97952135Y-132853671D01*
X97944452Y-132852000D01*
X97865343Y-132852000D01*
X97859195Y-132852301D01*
X97721397Y-132865812D01*
X97709362Y-132868195D01*
X97531924Y-132921767D01*
X97520584Y-132926441D01*
X97356923Y-133013460D01*
X97346706Y-133020249D01*
X97203067Y-133137397D01*
X97194363Y-133146041D01*
X97076216Y-133288856D01*
X97069356Y-133299027D01*
X96981196Y-133462076D01*
X96976444Y-133473381D01*
X96940750Y-133588692D01*
X96940544Y-133602795D01*
X95504000Y-133602795D01*
X95504000Y-125485768D01*
X96939425Y-125485768D01*
X96971138Y-125593521D01*
X96975731Y-125604889D01*
X97061607Y-125769154D01*
X97068321Y-125779415D01*
X97184468Y-125923873D01*
X97193046Y-125932632D01*
X97335039Y-126051778D01*
X97345159Y-126058708D01*
X97507585Y-126148002D01*
X97518858Y-126152834D01*
X97695538Y-126208880D01*
X97707532Y-126211430D01*
X97851761Y-126227607D01*
X97858785Y-126228000D01*
X97939885Y-126228000D01*
X97955124Y-126223525D01*
X97956329Y-126222135D01*
X97958000Y-126214452D01*
X97958000Y-126209885D01*
X98466000Y-126209885D01*
X98470475Y-126225124D01*
X98471865Y-126226329D01*
X98479548Y-126228000D01*
X98558657Y-126228000D01*
X98564805Y-126227699D01*
X98702603Y-126214188D01*
X98714638Y-126211805D01*
X98892076Y-126158233D01*
X98903416Y-126153559D01*
X99067077Y-126066540D01*
X99077294Y-126059751D01*
X99220933Y-125942603D01*
X99229637Y-125933959D01*
X99347784Y-125791144D01*
X99354644Y-125780973D01*
X99442804Y-125617924D01*
X99447556Y-125606619D01*
X99483250Y-125491308D01*
X99483456Y-125477205D01*
X99476701Y-125474000D01*
X98484115Y-125474000D01*
X98468876Y-125478475D01*
X98467671Y-125479865D01*
X98466000Y-125487548D01*
X98466000Y-126209885D01*
X97958000Y-126209885D01*
X97958000Y-125492115D01*
X97953525Y-125476876D01*
X97952135Y-125475671D01*
X97944452Y-125474000D01*
X96954076Y-125474000D01*
X96940545Y-125477973D01*
X96939425Y-125485768D01*
X95504000Y-125485768D01*
X95504000Y-124962795D01*
X96940544Y-124962795D01*
X96947299Y-124966000D01*
X97939885Y-124966000D01*
X97955124Y-124961525D01*
X97956329Y-124960135D01*
X97958000Y-124952452D01*
X97958000Y-124947885D01*
X98466000Y-124947885D01*
X98470475Y-124963124D01*
X98471865Y-124964329D01*
X98479548Y-124966000D01*
X99469924Y-124966000D01*
X99483455Y-124962027D01*
X99484575Y-124954232D01*
X99452862Y-124846479D01*
X99448269Y-124835111D01*
X99362393Y-124670846D01*
X99355679Y-124660585D01*
X99239532Y-124516127D01*
X99230954Y-124507368D01*
X99088961Y-124388222D01*
X99078841Y-124381292D01*
X98916415Y-124291998D01*
X98905142Y-124287166D01*
X98728462Y-124231120D01*
X98716468Y-124228570D01*
X98572239Y-124212393D01*
X98565215Y-124212000D01*
X98484115Y-124212000D01*
X98468876Y-124216475D01*
X98467671Y-124217865D01*
X98466000Y-124225548D01*
X98466000Y-124947885D01*
X97958000Y-124947885D01*
X97958000Y-124230115D01*
X97953525Y-124214876D01*
X97952135Y-124213671D01*
X97944452Y-124212000D01*
X97865343Y-124212000D01*
X97859195Y-124212301D01*
X97721397Y-124225812D01*
X97709362Y-124228195D01*
X97531924Y-124281767D01*
X97520584Y-124286441D01*
X97356923Y-124373460D01*
X97346706Y-124380249D01*
X97203067Y-124497397D01*
X97194363Y-124506041D01*
X97076216Y-124648856D01*
X97069356Y-124659027D01*
X96981196Y-124822076D01*
X96976444Y-124833381D01*
X96940750Y-124948692D01*
X96940544Y-124962795D01*
X95504000Y-124962795D01*
X95504000Y-122052000D01*
X95524002Y-121983879D01*
X95577658Y-121937386D01*
X95630000Y-121926000D01*
X100923454Y-121926000D01*
X100991575Y-121946002D01*
G37*
%TD.AperFunction*%
%TA.AperFunction,Conductor*%
G36*
X113141255Y-121946002D02*
G01*
X113187748Y-121999658D01*
X113198397Y-122065606D01*
X113197869Y-122070464D01*
X113197868Y-122070474D01*
X113197500Y-122073866D01*
X113197500Y-122970134D01*
X113204255Y-123032316D01*
X113255385Y-123168705D01*
X113342739Y-123285261D01*
X113459295Y-123372615D01*
X113595684Y-123423745D01*
X113657866Y-123430500D01*
X114754134Y-123430500D01*
X114816316Y-123423745D01*
X114952705Y-123372615D01*
X115069261Y-123285261D01*
X115156615Y-123168705D01*
X115207745Y-123032316D01*
X115214500Y-122970134D01*
X115214500Y-122073866D01*
X115214132Y-122070474D01*
X115214131Y-122070464D01*
X115213603Y-122065606D01*
X115226132Y-121995724D01*
X115274453Y-121943709D01*
X115338866Y-121926000D01*
X120373134Y-121926000D01*
X120441255Y-121946002D01*
X120487748Y-121999658D01*
X120498397Y-122065606D01*
X120497869Y-122070464D01*
X120497868Y-122070474D01*
X120497500Y-122073866D01*
X120497500Y-122970134D01*
X120504255Y-123032316D01*
X120555385Y-123168705D01*
X120642739Y-123285261D01*
X120759295Y-123372615D01*
X120895684Y-123423745D01*
X120957866Y-123430500D01*
X122054134Y-123430500D01*
X122116316Y-123423745D01*
X122252705Y-123372615D01*
X122369261Y-123285261D01*
X122456615Y-123168705D01*
X122507745Y-123032316D01*
X122514500Y-122970134D01*
X122514500Y-122073866D01*
X122514132Y-122070474D01*
X122514131Y-122070464D01*
X122513603Y-122065606D01*
X122526132Y-121995724D01*
X122574453Y-121943709D01*
X122638866Y-121926000D01*
X123242000Y-121926000D01*
X123310121Y-121946002D01*
X123356614Y-121999658D01*
X123368000Y-122052000D01*
X123368000Y-127077011D01*
X123347998Y-127145132D01*
X123294342Y-127191625D01*
X123224068Y-127201729D01*
X123159488Y-127172235D01*
X123152982Y-127166184D01*
X123048983Y-127062366D01*
X123043803Y-127057195D01*
X123031479Y-127049598D01*
X122987417Y-127022438D01*
X122917929Y-126979605D01*
X122870437Y-126926834D01*
X122867287Y-126919081D01*
X122866619Y-126915990D01*
X122848292Y-126876687D01*
X122843510Y-126864911D01*
X122829245Y-126823948D01*
X122820967Y-126810700D01*
X122811473Y-126795505D01*
X122804134Y-126781988D01*
X122792941Y-126757986D01*
X122792940Y-126757985D01*
X122789962Y-126751598D01*
X122763394Y-126717347D01*
X122756098Y-126706888D01*
X122736858Y-126676096D01*
X122736856Y-126676093D01*
X122733126Y-126670124D01*
X122704524Y-126641321D01*
X122703939Y-126640696D01*
X122703422Y-126640030D01*
X122677432Y-126614040D01*
X122605315Y-126541418D01*
X122604278Y-126540760D01*
X122603049Y-126539657D01*
X121990234Y-125926842D01*
X121989306Y-125925905D01*
X121960701Y-125896695D01*
X121926229Y-125861493D01*
X121926343Y-125861381D01*
X121888088Y-125805591D01*
X121885969Y-125734626D01*
X121922553Y-125673781D01*
X121986224Y-125642373D01*
X122007871Y-125640500D01*
X122054134Y-125640500D01*
X122116316Y-125633745D01*
X122252705Y-125582615D01*
X122369261Y-125495261D01*
X122456615Y-125378705D01*
X122507745Y-125242316D01*
X122514500Y-125180134D01*
X122514500Y-124283866D01*
X122507745Y-124221684D01*
X122456615Y-124085295D01*
X122369261Y-123968739D01*
X122252705Y-123881385D01*
X122116316Y-123830255D01*
X122054134Y-123823500D01*
X120957866Y-123823500D01*
X120895684Y-123830255D01*
X120759295Y-123881385D01*
X120642739Y-123968739D01*
X120628963Y-123987120D01*
X120564551Y-124073065D01*
X120507692Y-124115580D01*
X120463725Y-124123500D01*
X120378008Y-124123500D01*
X120309887Y-124103498D01*
X120263394Y-124049842D01*
X120253290Y-123979568D01*
X120258622Y-123958634D01*
X120259018Y-123957829D01*
X120260625Y-123951659D01*
X120260627Y-123951654D01*
X120306492Y-123775575D01*
X120306492Y-123775572D01*
X120308102Y-123769393D01*
X120313943Y-123657935D01*
X120317959Y-123581317D01*
X120317959Y-123581313D01*
X120318293Y-123574936D01*
X120289175Y-123382401D01*
X120286972Y-123376415D01*
X120286971Y-123376409D01*
X120224140Y-123205640D01*
X120224138Y-123205635D01*
X120221937Y-123199654D01*
X120119326Y-123034160D01*
X119985534Y-122892678D01*
X119826025Y-122780989D01*
X119731025Y-122739879D01*
X119653175Y-122706190D01*
X119653171Y-122706189D01*
X119647316Y-122703655D01*
X119641069Y-122702350D01*
X119641066Y-122702349D01*
X119461443Y-122664824D01*
X119461438Y-122664823D01*
X119456707Y-122663835D01*
X119450315Y-122663500D01*
X119307337Y-122663500D01*
X119238049Y-122670538D01*
X119168622Y-122677590D01*
X119168621Y-122677590D01*
X119162273Y-122678235D01*
X119150259Y-122682000D01*
X118982549Y-122734556D01*
X118982544Y-122734558D01*
X118976459Y-122736465D01*
X118900713Y-122778452D01*
X118811729Y-122827777D01*
X118811726Y-122827779D01*
X118806150Y-122830870D01*
X118801309Y-122835019D01*
X118801305Y-122835022D01*
X118738311Y-122889015D01*
X118658302Y-122957591D01*
X118654391Y-122962633D01*
X118654390Y-122962634D01*
X118606433Y-123024460D01*
X118538954Y-123111453D01*
X118536138Y-123117176D01*
X118536136Y-123117179D01*
X118492608Y-123205640D01*
X118452982Y-123286171D01*
X118451373Y-123292349D01*
X118451372Y-123292351D01*
X118413027Y-123439562D01*
X118403898Y-123474607D01*
X118403564Y-123480986D01*
X118396385Y-123617970D01*
X118393707Y-123669064D01*
X118422825Y-123861599D01*
X118425028Y-123867585D01*
X118425029Y-123867591D01*
X118487860Y-124038360D01*
X118487862Y-124038365D01*
X118490063Y-124044346D01*
X118520666Y-124093703D01*
X118578371Y-124186771D01*
X118592674Y-124209840D01*
X118597055Y-124214473D01*
X118597056Y-124214474D01*
X118662676Y-124283866D01*
X118726466Y-124351322D01*
X118731696Y-124354984D01*
X118731697Y-124354985D01*
X118827362Y-124421970D01*
X118885975Y-124463011D01*
X118891838Y-124465548D01*
X119058825Y-124537810D01*
X119058829Y-124537811D01*
X119064684Y-124540345D01*
X119070931Y-124541650D01*
X119070934Y-124541651D01*
X119147266Y-124557597D01*
X119209857Y-124591106D01*
X119244395Y-124653135D01*
X119247500Y-124680934D01*
X119247500Y-126180134D01*
X119254255Y-126242316D01*
X119305385Y-126378705D01*
X119392739Y-126495261D01*
X119509295Y-126582615D01*
X119517703Y-126585767D01*
X119624394Y-126625764D01*
X119669259Y-126654651D01*
X119819013Y-126804405D01*
X119853039Y-126866717D01*
X119847974Y-126937532D01*
X119805427Y-126994368D01*
X119738907Y-127019179D01*
X119729918Y-127019500D01*
X119330998Y-127019500D01*
X119328550Y-127019693D01*
X119328542Y-127019693D01*
X119300079Y-127021933D01*
X119300074Y-127021934D01*
X119293669Y-127022438D01*
X119200183Y-127049598D01*
X119141512Y-127066643D01*
X119141510Y-127066644D01*
X119133899Y-127068855D01*
X119127072Y-127072892D01*
X119127073Y-127072892D01*
X118997520Y-127149509D01*
X118997517Y-127149511D01*
X118990693Y-127153547D01*
X118873047Y-127271193D01*
X118869011Y-127278017D01*
X118869009Y-127278020D01*
X118838896Y-127328939D01*
X118788355Y-127414399D01*
X118741938Y-127574169D01*
X118739000Y-127611498D01*
X118739000Y-127843500D01*
X118718998Y-127911621D01*
X118665342Y-127958114D01*
X118613000Y-127969500D01*
X118202189Y-127969500D01*
X118134068Y-127949498D01*
X118087575Y-127895842D01*
X118077471Y-127825568D01*
X118093070Y-127780500D01*
X118179223Y-127631279D01*
X118179224Y-127631278D01*
X118182527Y-127625556D01*
X118241542Y-127443928D01*
X118243846Y-127422012D01*
X118260814Y-127260565D01*
X118261504Y-127254000D01*
X118253953Y-127182152D01*
X118242232Y-127070635D01*
X118242232Y-127070633D01*
X118241542Y-127064072D01*
X118182527Y-126882444D01*
X118173380Y-126866602D01*
X118156500Y-126803603D01*
X118156500Y-125993260D01*
X118156507Y-125991941D01*
X118156995Y-125945331D01*
X118157451Y-125901779D01*
X118155892Y-125894565D01*
X118148881Y-125862142D01*
X118148289Y-125859403D01*
X118146230Y-125846832D01*
X118142863Y-125816810D01*
X118141397Y-125803745D01*
X118135070Y-125785574D01*
X118130367Y-125772070D01*
X118126204Y-125757258D01*
X118120609Y-125731381D01*
X118119119Y-125724490D01*
X118100793Y-125685189D01*
X118096008Y-125673406D01*
X118081745Y-125632448D01*
X118063979Y-125604016D01*
X118056640Y-125590499D01*
X118045440Y-125566481D01*
X118045438Y-125566477D01*
X118042463Y-125560098D01*
X118030918Y-125545214D01*
X118015891Y-125525840D01*
X118008597Y-125515385D01*
X117985626Y-125478624D01*
X117987612Y-125477383D01*
X117965117Y-125421814D01*
X117964500Y-125409356D01*
X117964500Y-124583866D01*
X117957745Y-124521684D01*
X117906615Y-124385295D01*
X117819261Y-124268739D01*
X117702705Y-124181385D01*
X117566316Y-124130255D01*
X117504134Y-124123500D01*
X117378008Y-124123500D01*
X117309887Y-124103498D01*
X117263394Y-124049842D01*
X117253290Y-123979568D01*
X117258622Y-123958634D01*
X117259018Y-123957829D01*
X117260625Y-123951659D01*
X117260627Y-123951654D01*
X117306492Y-123775575D01*
X117306492Y-123775572D01*
X117308102Y-123769393D01*
X117313943Y-123657935D01*
X117317959Y-123581317D01*
X117317959Y-123581313D01*
X117318293Y-123574936D01*
X117289175Y-123382401D01*
X117286972Y-123376415D01*
X117286971Y-123376409D01*
X117224140Y-123205640D01*
X117224138Y-123205635D01*
X117221937Y-123199654D01*
X117119326Y-123034160D01*
X116985534Y-122892678D01*
X116826025Y-122780989D01*
X116731025Y-122739879D01*
X116653175Y-122706190D01*
X116653171Y-122706189D01*
X116647316Y-122703655D01*
X116641069Y-122702350D01*
X116641066Y-122702349D01*
X116461443Y-122664824D01*
X116461438Y-122664823D01*
X116456707Y-122663835D01*
X116450315Y-122663500D01*
X116307337Y-122663500D01*
X116238049Y-122670538D01*
X116168622Y-122677590D01*
X116168621Y-122677590D01*
X116162273Y-122678235D01*
X116150259Y-122682000D01*
X115982549Y-122734556D01*
X115982544Y-122734558D01*
X115976459Y-122736465D01*
X115900713Y-122778452D01*
X115811729Y-122827777D01*
X115811726Y-122827779D01*
X115806150Y-122830870D01*
X115801309Y-122835019D01*
X115801305Y-122835022D01*
X115738311Y-122889015D01*
X115658302Y-122957591D01*
X115654391Y-122962633D01*
X115654390Y-122962634D01*
X115606433Y-123024460D01*
X115538954Y-123111453D01*
X115536138Y-123117176D01*
X115536136Y-123117179D01*
X115492608Y-123205640D01*
X115452982Y-123286171D01*
X115451373Y-123292349D01*
X115451372Y-123292351D01*
X115413027Y-123439562D01*
X115403898Y-123474607D01*
X115403564Y-123480986D01*
X115396385Y-123617970D01*
X115393707Y-123669064D01*
X115422825Y-123861599D01*
X115425028Y-123867585D01*
X115425029Y-123867591D01*
X115456819Y-123953992D01*
X115461569Y-124024830D01*
X115427268Y-124086990D01*
X115364805Y-124120738D01*
X115338569Y-124123500D01*
X115248275Y-124123500D01*
X115180154Y-124103498D01*
X115147449Y-124073065D01*
X115083037Y-123987120D01*
X115069261Y-123968739D01*
X114952705Y-123881385D01*
X114816316Y-123830255D01*
X114754134Y-123823500D01*
X113657866Y-123823500D01*
X113595684Y-123830255D01*
X113459295Y-123881385D01*
X113342739Y-123968739D01*
X113255385Y-124085295D01*
X113204255Y-124221684D01*
X113197500Y-124283866D01*
X113197500Y-125180134D01*
X113204255Y-125242316D01*
X113255385Y-125378705D01*
X113342739Y-125495261D01*
X113459295Y-125582615D01*
X113595684Y-125633745D01*
X113657866Y-125640500D01*
X114621500Y-125640500D01*
X114689621Y-125660502D01*
X114736114Y-125714158D01*
X114747500Y-125766500D01*
X114747500Y-126180134D01*
X114747869Y-126183531D01*
X114753402Y-126234460D01*
X114754255Y-126242316D01*
X114757027Y-126249709D01*
X114757027Y-126249711D01*
X114789482Y-126336284D01*
X114797500Y-126380513D01*
X114797500Y-126772786D01*
X114797493Y-126774106D01*
X114796549Y-126864221D01*
X114798039Y-126871111D01*
X114798180Y-126872503D01*
X114785165Y-126942296D01*
X114736483Y-126993974D01*
X114667590Y-127011128D01*
X114606710Y-126992497D01*
X114591451Y-126983091D01*
X114574561Y-126972680D01*
X114574558Y-126972679D01*
X114568329Y-126968839D01*
X114548479Y-126962255D01*
X114408366Y-126915781D01*
X114408364Y-126915781D01*
X114401835Y-126913615D01*
X114298231Y-126903000D01*
X113795904Y-126903000D01*
X113285770Y-126903001D01*
X113180871Y-126913884D01*
X113174340Y-126916063D01*
X113174335Y-126916064D01*
X113046459Y-126958727D01*
X113014474Y-126969398D01*
X112865311Y-127061703D01*
X112741383Y-127185847D01*
X112649339Y-127335171D01*
X112647034Y-127342119D01*
X112647034Y-127342120D01*
X112596808Y-127493547D01*
X112594115Y-127501665D01*
X112583500Y-127605269D01*
X112583501Y-128192730D01*
X112594384Y-128297629D01*
X112596563Y-128304160D01*
X112596564Y-128304165D01*
X112645990Y-128452311D01*
X112649898Y-128464026D01*
X112742203Y-128613189D01*
X112866347Y-128737117D01*
X112869270Y-128738919D01*
X112909408Y-128795529D01*
X112912642Y-128866452D01*
X112877018Y-128927864D01*
X112870622Y-128933416D01*
X112865311Y-128936703D01*
X112741383Y-129060847D01*
X112737543Y-129067077D01*
X112737542Y-129067078D01*
X112716949Y-129100486D01*
X112649339Y-129210171D01*
X112594115Y-129376665D01*
X112583500Y-129480269D01*
X112583501Y-130067730D01*
X112594384Y-130172629D01*
X112596563Y-130179160D01*
X112596564Y-130179165D01*
X112644068Y-130321551D01*
X112646652Y-130392501D01*
X112618180Y-130445737D01*
X112544960Y-130527056D01*
X112541661Y-130532769D01*
X112541658Y-130532774D01*
X112468752Y-130659051D01*
X112417369Y-130708044D01*
X112347655Y-130721480D01*
X112281745Y-130695093D01*
X112270538Y-130685146D01*
X112234906Y-130649514D01*
X112200880Y-130587202D01*
X112198001Y-130560419D01*
X112198001Y-128416666D01*
X112198008Y-128415347D01*
X112198877Y-128332322D01*
X112198951Y-128325280D01*
X112197464Y-128318402D01*
X112197463Y-128318392D01*
X112189792Y-128282914D01*
X112187731Y-128270332D01*
X112183683Y-128234244D01*
X112182898Y-128227246D01*
X112171869Y-128195575D01*
X112167706Y-128180766D01*
X112162108Y-128154872D01*
X112162107Y-128154869D01*
X112160620Y-128147991D01*
X112142293Y-128108688D01*
X112137511Y-128096912D01*
X112123246Y-128055949D01*
X112108924Y-128033028D01*
X112105474Y-128027506D01*
X112098135Y-128013989D01*
X112086940Y-127989982D01*
X112086938Y-127989978D01*
X112083963Y-127983599D01*
X112057393Y-127949345D01*
X112050099Y-127938889D01*
X112027127Y-127902125D01*
X111998518Y-127873316D01*
X111997935Y-127872693D01*
X111997422Y-127872031D01*
X111971573Y-127846182D01*
X111943288Y-127817699D01*
X111901805Y-127775925D01*
X111901801Y-127775921D01*
X111899316Y-127773419D01*
X111898276Y-127772759D01*
X111897049Y-127771658D01*
X110998404Y-126873012D01*
X110964379Y-126810700D01*
X110961500Y-126783917D01*
X110961500Y-126445600D01*
X110961163Y-126442350D01*
X110951238Y-126346692D01*
X110951237Y-126346688D01*
X110950526Y-126339834D01*
X110945793Y-126325646D01*
X110896868Y-126179002D01*
X110894550Y-126172054D01*
X110801478Y-126021652D01*
X110676303Y-125896695D01*
X110671765Y-125893898D01*
X110631176Y-125836647D01*
X110627946Y-125765724D01*
X110663572Y-125704313D01*
X110672068Y-125696938D01*
X110682207Y-125688902D01*
X110796739Y-125574171D01*
X110805751Y-125562760D01*
X110890816Y-125424757D01*
X110896963Y-125411576D01*
X110948138Y-125257290D01*
X110951005Y-125243914D01*
X110960672Y-125149562D01*
X110961000Y-125143146D01*
X110961000Y-125118115D01*
X110956525Y-125102876D01*
X110955135Y-125101671D01*
X110947452Y-125100000D01*
X108513116Y-125100000D01*
X108497877Y-125104475D01*
X108496672Y-125105865D01*
X108495001Y-125113548D01*
X108495001Y-125143095D01*
X108495338Y-125149614D01*
X108505257Y-125245206D01*
X108508149Y-125258600D01*
X108559588Y-125412784D01*
X108565761Y-125425962D01*
X108651063Y-125563807D01*
X108660099Y-125575208D01*
X108774828Y-125689738D01*
X108783762Y-125696794D01*
X108824823Y-125754712D01*
X108828053Y-125825635D01*
X108792426Y-125887046D01*
X108784593Y-125893846D01*
X108778652Y-125897522D01*
X108773479Y-125902704D01*
X108743603Y-125932632D01*
X108653695Y-126022697D01*
X108649855Y-126028927D01*
X108649854Y-126028928D01*
X108571834Y-126155500D01*
X108560885Y-126173262D01*
X108505203Y-126341139D01*
X108494500Y-126445600D01*
X108494500Y-127046400D01*
X108494837Y-127049646D01*
X108494837Y-127049650D01*
X108499076Y-127090500D01*
X108505474Y-127152166D01*
X108507656Y-127158706D01*
X108519305Y-127193622D01*
X108521891Y-127264572D01*
X108485708Y-127325656D01*
X108422244Y-127357482D01*
X108399782Y-127359500D01*
X108368498Y-127359500D01*
X108366050Y-127359693D01*
X108366042Y-127359693D01*
X108337579Y-127361933D01*
X108337574Y-127361934D01*
X108331169Y-127362438D01*
X108260022Y-127383108D01*
X108179012Y-127406643D01*
X108179010Y-127406644D01*
X108171399Y-127408855D01*
X108028193Y-127493547D01*
X108025511Y-127496229D01*
X107961139Y-127521502D01*
X107891516Y-127507600D01*
X107875688Y-127497428D01*
X107871807Y-127493547D01*
X107728601Y-127408855D01*
X107716663Y-127405387D01*
X107703385Y-127401529D01*
X107643549Y-127363317D01*
X107613871Y-127298821D01*
X107618944Y-127240865D01*
X107639568Y-127178687D01*
X107648797Y-127150861D01*
X107659500Y-127046400D01*
X107659500Y-126445600D01*
X107659163Y-126442350D01*
X107649238Y-126346692D01*
X107649237Y-126346688D01*
X107648526Y-126339834D01*
X107643793Y-126325646D01*
X107594868Y-126179002D01*
X107592550Y-126172054D01*
X107499478Y-126021652D01*
X107374303Y-125896695D01*
X107369765Y-125893898D01*
X107329176Y-125836647D01*
X107325946Y-125765724D01*
X107361572Y-125704313D01*
X107370068Y-125696938D01*
X107380207Y-125688902D01*
X107494739Y-125574171D01*
X107503751Y-125562760D01*
X107588816Y-125424757D01*
X107594963Y-125411576D01*
X107646138Y-125257290D01*
X107649005Y-125243914D01*
X107658672Y-125149562D01*
X107659000Y-125143145D01*
X107659000Y-125118115D01*
X107654525Y-125102876D01*
X107653135Y-125101671D01*
X107645452Y-125100000D01*
X105211116Y-125100000D01*
X105195877Y-125104475D01*
X105194672Y-125105865D01*
X105193001Y-125113548D01*
X105193001Y-125143095D01*
X105193338Y-125149614D01*
X105203257Y-125245206D01*
X105206149Y-125258600D01*
X105257588Y-125412784D01*
X105263761Y-125425962D01*
X105349063Y-125563807D01*
X105358099Y-125575208D01*
X105472828Y-125689738D01*
X105481762Y-125696794D01*
X105522823Y-125754712D01*
X105526053Y-125825635D01*
X105490426Y-125887046D01*
X105482593Y-125893846D01*
X105476652Y-125897522D01*
X105471479Y-125902704D01*
X105441603Y-125932632D01*
X105351695Y-126022697D01*
X105347855Y-126028927D01*
X105347854Y-126028928D01*
X105269834Y-126155500D01*
X105258885Y-126173262D01*
X105238587Y-126234460D01*
X105212113Y-126314275D01*
X105171682Y-126372635D01*
X105106118Y-126399872D01*
X105037683Y-126388049D01*
X105035364Y-126386928D01*
X105021945Y-126379398D01*
X105007823Y-126370297D01*
X104993762Y-126361235D01*
X104987145Y-126358827D01*
X104987140Y-126358824D01*
X104953027Y-126346408D01*
X104941284Y-126341447D01*
X104908597Y-126325646D01*
X104908592Y-126325644D01*
X104902251Y-126322579D01*
X104895393Y-126320996D01*
X104895391Y-126320995D01*
X104869574Y-126315035D01*
X104854831Y-126310668D01*
X104823315Y-126299197D01*
X104816325Y-126298314D01*
X104816317Y-126298312D01*
X104780299Y-126293762D01*
X104767747Y-126291526D01*
X104732386Y-126283362D01*
X104732383Y-126283362D01*
X104725515Y-126281776D01*
X104718469Y-126281751D01*
X104718466Y-126281751D01*
X104684944Y-126281634D01*
X104684062Y-126281605D01*
X104683231Y-126281500D01*
X104665999Y-126281500D01*
X104597878Y-126261498D01*
X104551385Y-126207842D01*
X104539999Y-126155500D01*
X104539999Y-125945331D01*
X104539629Y-125938510D01*
X104534105Y-125887648D01*
X104530479Y-125872396D01*
X104485324Y-125751946D01*
X104476786Y-125736351D01*
X104400285Y-125634276D01*
X104387724Y-125621715D01*
X104285649Y-125545214D01*
X104270054Y-125536676D01*
X104149606Y-125491522D01*
X104134351Y-125487895D01*
X104083486Y-125482369D01*
X104076672Y-125482000D01*
X103951934Y-125482000D01*
X103917892Y-125474335D01*
X103913648Y-125474000D01*
X103579115Y-125474000D01*
X103563876Y-125478475D01*
X103562671Y-125479865D01*
X103561000Y-125487548D01*
X103561000Y-126155500D01*
X103540998Y-126223621D01*
X103487342Y-126270114D01*
X103435000Y-126281500D01*
X103075137Y-126281500D01*
X103007016Y-126261498D01*
X102960523Y-126207842D01*
X102950419Y-126137568D01*
X102979913Y-126072988D01*
X103039639Y-126034604D01*
X103050124Y-126031525D01*
X103051329Y-126030135D01*
X103053000Y-126022452D01*
X103053000Y-125492115D01*
X103048525Y-125476876D01*
X103047135Y-125475671D01*
X103039452Y-125474000D01*
X102664115Y-125474000D01*
X102648876Y-125478475D01*
X102647671Y-125479865D01*
X102646000Y-125487548D01*
X102646000Y-125945874D01*
X102625998Y-126013995D01*
X102572342Y-126060488D01*
X102502068Y-126070592D01*
X102441461Y-126041176D01*
X102440187Y-126042843D01*
X102301743Y-125936994D01*
X102301739Y-125936991D01*
X102296322Y-125932850D01*
X102290142Y-125929968D01*
X102290140Y-125929967D01*
X102210750Y-125892947D01*
X102157465Y-125846030D01*
X102138000Y-125778752D01*
X102138000Y-125092000D01*
X102158002Y-125023879D01*
X102211658Y-124977386D01*
X102264000Y-124966000D01*
X103899924Y-124966000D01*
X103913455Y-124962027D01*
X103914575Y-124954232D01*
X103882862Y-124846479D01*
X103878269Y-124835111D01*
X103792393Y-124670846D01*
X103785679Y-124660585D01*
X103715971Y-124573885D01*
X105193000Y-124573885D01*
X105197475Y-124589124D01*
X105198865Y-124590329D01*
X105206548Y-124592000D01*
X106153885Y-124592000D01*
X106169124Y-124587525D01*
X106170329Y-124586135D01*
X106172000Y-124578452D01*
X106172000Y-124573885D01*
X106680000Y-124573885D01*
X106684475Y-124589124D01*
X106685865Y-124590329D01*
X106693548Y-124592000D01*
X107640884Y-124592000D01*
X107656123Y-124587525D01*
X107657328Y-124586135D01*
X107658999Y-124578452D01*
X107658999Y-124573885D01*
X108495000Y-124573885D01*
X108499475Y-124589124D01*
X108500865Y-124590329D01*
X108508548Y-124592000D01*
X109455885Y-124592000D01*
X109471124Y-124587525D01*
X109472329Y-124586135D01*
X109474000Y-124578452D01*
X109474000Y-124573885D01*
X109982000Y-124573885D01*
X109986475Y-124589124D01*
X109987865Y-124590329D01*
X109995548Y-124592000D01*
X110942884Y-124592000D01*
X110958123Y-124587525D01*
X110959328Y-124586135D01*
X110960999Y-124578452D01*
X110960999Y-124548905D01*
X110960662Y-124542386D01*
X110950743Y-124446794D01*
X110947851Y-124433400D01*
X110896412Y-124279216D01*
X110890239Y-124266038D01*
X110804937Y-124128193D01*
X110795901Y-124116792D01*
X110681171Y-124002261D01*
X110669760Y-123993249D01*
X110531757Y-123908184D01*
X110518576Y-123902037D01*
X110364290Y-123850862D01*
X110350914Y-123847995D01*
X110256562Y-123838328D01*
X110250145Y-123838000D01*
X110000115Y-123838000D01*
X109984876Y-123842475D01*
X109983671Y-123843865D01*
X109982000Y-123851548D01*
X109982000Y-124573885D01*
X109474000Y-124573885D01*
X109474000Y-123856116D01*
X109469525Y-123840877D01*
X109468135Y-123839672D01*
X109460452Y-123838001D01*
X109205905Y-123838001D01*
X109199386Y-123838338D01*
X109103794Y-123848257D01*
X109090400Y-123851149D01*
X108936216Y-123902588D01*
X108923038Y-123908761D01*
X108785193Y-123994063D01*
X108773792Y-124003099D01*
X108659261Y-124117829D01*
X108650249Y-124129240D01*
X108565184Y-124267243D01*
X108559037Y-124280424D01*
X108507862Y-124434710D01*
X108504995Y-124448086D01*
X108495328Y-124542438D01*
X108495000Y-124548855D01*
X108495000Y-124573885D01*
X107658999Y-124573885D01*
X107658999Y-124548905D01*
X107658662Y-124542386D01*
X107648743Y-124446794D01*
X107645851Y-124433400D01*
X107594412Y-124279216D01*
X107588239Y-124266038D01*
X107502937Y-124128193D01*
X107493901Y-124116792D01*
X107379171Y-124002261D01*
X107367760Y-123993249D01*
X107229757Y-123908184D01*
X107216576Y-123902037D01*
X107062290Y-123850862D01*
X107048914Y-123847995D01*
X106954562Y-123838328D01*
X106948145Y-123838000D01*
X106698115Y-123838000D01*
X106682876Y-123842475D01*
X106681671Y-123843865D01*
X106680000Y-123851548D01*
X106680000Y-124573885D01*
X106172000Y-124573885D01*
X106172000Y-123856116D01*
X106167525Y-123840877D01*
X106166135Y-123839672D01*
X106158452Y-123838001D01*
X105903905Y-123838001D01*
X105897386Y-123838338D01*
X105801794Y-123848257D01*
X105788400Y-123851149D01*
X105634216Y-123902588D01*
X105621038Y-123908761D01*
X105483193Y-123994063D01*
X105471792Y-124003099D01*
X105357261Y-124117829D01*
X105348249Y-124129240D01*
X105263184Y-124267243D01*
X105257037Y-124280424D01*
X105205862Y-124434710D01*
X105202995Y-124448086D01*
X105193328Y-124542438D01*
X105193000Y-124548855D01*
X105193000Y-124573885D01*
X103715971Y-124573885D01*
X103669532Y-124516127D01*
X103660954Y-124507368D01*
X103518961Y-124388222D01*
X103508848Y-124381298D01*
X103493512Y-124372867D01*
X103443453Y-124322522D01*
X103428558Y-124253106D01*
X103453557Y-124186656D01*
X103510514Y-124144271D01*
X103518712Y-124141555D01*
X103525624Y-124139525D01*
X103526829Y-124138135D01*
X103528500Y-124130452D01*
X103528500Y-124125884D01*
X104036500Y-124125884D01*
X104040975Y-124141123D01*
X104042365Y-124142328D01*
X104050048Y-124143999D01*
X104092095Y-124143999D01*
X104098614Y-124143662D01*
X104194206Y-124133743D01*
X104207600Y-124130851D01*
X104361784Y-124079412D01*
X104374962Y-124073239D01*
X104512807Y-123987937D01*
X104524208Y-123978901D01*
X104638739Y-123864171D01*
X104647751Y-123852760D01*
X104732816Y-123714757D01*
X104738963Y-123701576D01*
X104790138Y-123547290D01*
X104793005Y-123533914D01*
X104802672Y-123439562D01*
X104803000Y-123433146D01*
X104803000Y-123208115D01*
X104798525Y-123192876D01*
X104797135Y-123191671D01*
X104789452Y-123190000D01*
X104054615Y-123190000D01*
X104039376Y-123194475D01*
X104038171Y-123195865D01*
X104036500Y-123203548D01*
X104036500Y-124125884D01*
X103528500Y-124125884D01*
X103528500Y-122808000D01*
X103548502Y-122739879D01*
X103602158Y-122693386D01*
X103654500Y-122682000D01*
X104784884Y-122682000D01*
X104800123Y-122677525D01*
X104801328Y-122676135D01*
X104802999Y-122668452D01*
X104802999Y-122438905D01*
X104802662Y-122432386D01*
X104792743Y-122336794D01*
X104789851Y-122323400D01*
X104738412Y-122169216D01*
X104732241Y-122156042D01*
X104708887Y-122118304D01*
X104690049Y-122049852D01*
X104711210Y-121982082D01*
X104765650Y-121936511D01*
X104816031Y-121926000D01*
X113073134Y-121926000D01*
X113141255Y-121946002D01*
G37*
%TD.AperFunction*%
%TA.AperFunction,Conductor*%
G36*
X121226568Y-129494002D02*
G01*
X121273061Y-129547658D01*
X121273231Y-129548113D01*
X121276365Y-129550829D01*
X121284048Y-129552500D01*
X122223500Y-129552500D01*
X122291621Y-129572502D01*
X122338114Y-129626158D01*
X122349500Y-129678500D01*
X122349500Y-129934500D01*
X122329498Y-130002621D01*
X122275842Y-130049114D01*
X122223500Y-130060500D01*
X120934553Y-130060500D01*
X120866432Y-130040498D01*
X120819939Y-129986842D01*
X120819769Y-129986387D01*
X120816635Y-129983671D01*
X120808952Y-129982000D01*
X118760622Y-129982000D01*
X118745383Y-129986475D01*
X118733915Y-129999710D01*
X118720769Y-130028494D01*
X118661042Y-130066877D01*
X118625546Y-130071980D01*
X118426775Y-130071980D01*
X118352714Y-130047916D01*
X118318094Y-130022763D01*
X118318093Y-130022762D01*
X118312752Y-130018882D01*
X118306724Y-130016198D01*
X118306722Y-130016197D01*
X118144319Y-129943891D01*
X118144318Y-129943891D01*
X118138288Y-129941206D01*
X118044888Y-129921353D01*
X117957944Y-129902872D01*
X117957939Y-129902872D01*
X117951487Y-129901500D01*
X117760513Y-129901500D01*
X117754061Y-129902872D01*
X117754056Y-129902872D01*
X117667112Y-129921353D01*
X117573712Y-129941206D01*
X117567682Y-129943891D01*
X117567681Y-129943891D01*
X117462755Y-129990607D01*
X117411506Y-130001500D01*
X115871500Y-130001500D01*
X115803379Y-129981498D01*
X115756886Y-129927842D01*
X115745500Y-129875500D01*
X115745500Y-129678500D01*
X115765502Y-129610379D01*
X115819158Y-129563886D01*
X115871500Y-129552500D01*
X117089676Y-129552500D01*
X117132771Y-129560099D01*
X117156685Y-129568803D01*
X117163675Y-129569686D01*
X117163683Y-129569688D01*
X117199701Y-129574238D01*
X117212253Y-129576474D01*
X117247614Y-129584638D01*
X117247617Y-129584638D01*
X117254485Y-129586224D01*
X117261531Y-129586249D01*
X117261534Y-129586249D01*
X117295056Y-129586366D01*
X117295938Y-129586395D01*
X117296769Y-129586500D01*
X117333419Y-129586500D01*
X117333859Y-129586501D01*
X117432343Y-129586845D01*
X117432348Y-129586845D01*
X117435870Y-129586857D01*
X117437070Y-129586589D01*
X117438707Y-129586500D01*
X118764002Y-129586500D01*
X118766450Y-129586307D01*
X118766458Y-129586307D01*
X118794921Y-129584067D01*
X118794926Y-129584066D01*
X118801331Y-129583562D01*
X118914000Y-129550829D01*
X118953488Y-129539357D01*
X118953490Y-129539356D01*
X118961101Y-129537145D01*
X119038203Y-129491547D01*
X119102342Y-129474000D01*
X121158447Y-129474000D01*
X121226568Y-129494002D01*
G37*
%TD.AperFunction*%
%TD*%
M02*
