%TF.GenerationSoftware,KiCad,Pcbnew,(6.0.2)*%
%TF.CreationDate,2022-03-29T21:44:56+08:00*%
%TF.ProjectId,CH340-USB-C,43483334-302d-4555-9342-2d432e6b6963,rev?*%
%TF.SameCoordinates,Original*%
%TF.FileFunction,Soldermask,Top*%
%TF.FilePolarity,Negative*%
%FSLAX46Y46*%
G04 Gerber Fmt 4.6, Leading zero omitted, Abs format (unit mm)*
G04 Created by KiCad (PCBNEW (6.0.2)) date 2022-03-29 21:44:56*
%MOMM*%
%LPD*%
G01*
G04 APERTURE LIST*
G04 Aperture macros list*
%AMRoundRect*
0 Rectangle with rounded corners*
0 $1 Rounding radius*
0 $2 $3 $4 $5 $6 $7 $8 $9 X,Y pos of 4 corners*
0 Add a 4 corners polygon primitive as box body*
4,1,4,$2,$3,$4,$5,$6,$7,$8,$9,$2,$3,0*
0 Add four circle primitives for the rounded corners*
1,1,$1+$1,$2,$3*
1,1,$1+$1,$4,$5*
1,1,$1+$1,$6,$7*
1,1,$1+$1,$8,$9*
0 Add four rect primitives between the rounded corners*
20,1,$1+$1,$2,$3,$4,$5,0*
20,1,$1+$1,$4,$5,$6,$7,0*
20,1,$1+$1,$6,$7,$8,$9,0*
20,1,$1+$1,$8,$9,$2,$3,0*%
G04 Aperture macros list end*
%ADD10RoundRect,0.250000X-0.262500X-0.450000X0.262500X-0.450000X0.262500X0.450000X-0.262500X0.450000X0*%
%ADD11RoundRect,0.243750X-0.243750X-0.456250X0.243750X-0.456250X0.243750X0.456250X-0.243750X0.456250X0*%
%ADD12RoundRect,0.243750X0.456250X-0.243750X0.456250X0.243750X-0.456250X0.243750X-0.456250X-0.243750X0*%
%ADD13RoundRect,0.250000X0.475000X-0.250000X0.475000X0.250000X-0.475000X0.250000X-0.475000X-0.250000X0*%
%ADD14RoundRect,0.250000X0.262500X0.450000X-0.262500X0.450000X-0.262500X-0.450000X0.262500X-0.450000X0*%
%ADD15R,1.000000X0.800000*%
%ADD16C,0.900000*%
%ADD17R,0.700000X1.500000*%
%ADD18RoundRect,0.150000X0.587500X0.150000X-0.587500X0.150000X-0.587500X-0.150000X0.587500X-0.150000X0*%
%ADD19C,0.650000*%
%ADD20R,1.450000X0.600000*%
%ADD21R,1.450000X0.300000*%
%ADD22O,2.100000X1.000000*%
%ADD23O,1.600000X1.000000*%
%ADD24RoundRect,0.250000X-0.475000X0.250000X-0.475000X-0.250000X0.475000X-0.250000X0.475000X0.250000X0*%
%ADD25RoundRect,0.150000X0.150000X-0.825000X0.150000X0.825000X-0.150000X0.825000X-0.150000X-0.825000X0*%
G04 APERTURE END LIST*
D10*
%TO.C,R3*%
X120650000Y-132080000D03*
X122475000Y-132080000D03*
%TD*%
D11*
%TO.C,D3*%
X117141000Y-132080000D03*
X119016000Y-132080000D03*
%TD*%
D12*
%TO.C,F1*%
X113792000Y-129774000D03*
X113792000Y-127899000D03*
%TD*%
D13*
%TO.C,C3*%
X109728000Y-126746000D03*
X109728000Y-124846000D03*
%TD*%
D10*
%TO.C,R1*%
X120650000Y-136398000D03*
X122475000Y-136398000D03*
%TD*%
D14*
%TO.C,R5*%
X103782500Y-122936000D03*
X101957500Y-122936000D03*
%TD*%
D10*
%TO.C,R2*%
X120650000Y-134112000D03*
X122475000Y-134112000D03*
%TD*%
D15*
%TO.C,SW1*%
X114206000Y-124732000D03*
X121506000Y-122522000D03*
X114206000Y-122522000D03*
D16*
X119356000Y-123622000D03*
D15*
X121506000Y-124732000D03*
D16*
X116356000Y-123622000D03*
D17*
X120106000Y-125382000D03*
X117106000Y-125382000D03*
X115606000Y-125382000D03*
%TD*%
D18*
%TO.C,U1*%
X119985000Y-129728000D03*
X119985000Y-127828000D03*
X118110000Y-128778000D03*
%TD*%
D11*
%TO.C,D2*%
X117141000Y-134239000D03*
X119016000Y-134239000D03*
%TD*%
%TO.C,D1*%
X117141000Y-136398000D03*
X119016000Y-136398000D03*
%TD*%
D19*
%TO.C,J1*%
X101862000Y-132430000D03*
X101862000Y-126650000D03*
D20*
X103307000Y-126290000D03*
X103307000Y-127090000D03*
D21*
X103307000Y-128290000D03*
X103307000Y-129290000D03*
X103307000Y-129790000D03*
X103307000Y-130790000D03*
D20*
X103307000Y-131990000D03*
X103307000Y-132790000D03*
X103307000Y-132790000D03*
X103307000Y-131990000D03*
D21*
X103307000Y-131290000D03*
X103307000Y-130290000D03*
X103307000Y-128790000D03*
X103307000Y-127790000D03*
D20*
X103307000Y-127090000D03*
X103307000Y-126290000D03*
D22*
X102392000Y-133860000D03*
X102392000Y-125220000D03*
D23*
X98212000Y-133860000D03*
X98212000Y-125220000D03*
%TD*%
D14*
%TO.C,R4*%
X103782500Y-136144000D03*
X101957500Y-136144000D03*
%TD*%
D24*
%TO.C,C1*%
X115999500Y-127906500D03*
X115999500Y-129806500D03*
%TD*%
D13*
%TO.C,C4*%
X106426000Y-126746000D03*
X106426000Y-124846000D03*
%TD*%
D25*
%TO.C,U2*%
X106045000Y-133793000D03*
X107315000Y-133793000D03*
X108585000Y-133793000D03*
X109855000Y-133793000D03*
X109855000Y-128843000D03*
X108585000Y-128843000D03*
X107315000Y-128843000D03*
X106045000Y-128843000D03*
%TD*%
D24*
%TO.C,C2*%
X122095500Y-127906500D03*
X122095500Y-129806500D03*
%TD*%
M02*
